<?xml version="1.0" encoding="utf-8" standalone="no"?>
<!DOCTYPE svg PUBLIC "-//W3C//DTD SVG 1.1//EN"
  "http://www.w3.org/Graphics/SVG/1.1/DTD/svg11.dtd">
<svg xmlns:xlink="http://www.w3.org/1999/xlink" width="504pt" height="432pt" viewBox="0 0 504 432" xmlns="http://www.w3.org/2000/svg" version="1.1">
 <metadata>
  <rdf:RDF xmlns:dc="http://purl.org/dc/elements/1.1/" xmlns:cc="http://creativecommons.org/ns#" xmlns:rdf="http://www.w3.org/1999/02/22-rdf-syntax-ns#">
   <cc:Work>
    <dc:type rdf:resource="http://purl.org/dc/dcmitype/StillImage"/>
    <dc:date>2024-08-23T04:29:45.732200</dc:date>
    <dc:format>image/svg+xml</dc:format>
    <dc:creator>
     <cc:Agent>
      <dc:title>Matplotlib v3.8.4, https://matplotlib.org/</dc:title>
     </cc:Agent>
    </dc:creator>
   </cc:Work>
  </rdf:RDF>
 </metadata>
 <defs>
  <style type="text/css">*{stroke-linejoin: round; stroke-linecap: butt}</style>
 </defs>
 <g id="figure_1">
  <g id="patch_1">
   <path d="M 0 432 
L 504 432 
L 504 0 
L 0 0 
z
" style="fill: #ffffff"/>
  </g>
  <g id="axes_1">
   <g id="patch_2">
    <path d="M 166.394118 127.44 
C 166.394118 125.434209 166.262792 123.430568 166.000984 121.441937 
C 165.739176 119.453306 165.347446 117.483948 164.828309 115.546503 
L 151.512169 119.114552 
C 151.875565 120.470764 152.149776 121.849314 152.333042 123.241356 
C 152.516307 124.633398 152.608235 126.035946 152.608235 127.44 
z
" style="fill: #1f77b4; stroke: #ffffff; stroke-linejoin: miter"/>
   </g>
   <g id="patch_3">
    <path d="M 164.828309 115.546503 
C 162.476279 106.768609 157.572434 98.882584 150.740056 92.890749 
C 143.907677 86.898914 135.449039 83.066355 126.439239 81.880193 
C 117.429438 80.69403 108.267082 82.206741 100.11671 86.22606 
C 91.966338 90.245378 85.188534 96.593485 80.644762 104.46353 
L 92.583686 111.356471 
C 95.764327 105.847439 100.50879 101.403765 106.21405 98.590242 
C 111.91931 95.776719 118.33296 94.717821 124.63982 95.548135 
C 130.94668 96.378449 136.867727 99.06124 141.650392 103.255525 
C 146.433057 107.449809 149.865748 112.970026 151.512169 119.114552 
z
" style="fill: #ff7f0e; stroke: #ffffff; stroke-linejoin: miter"/>
   </g>
   <g id="patch_4">
    <path d="M 80.644762 104.46353 
C 76.611849 111.44874 74.488235 119.374175 74.488235 127.440001 
C 74.488235 135.505827 76.61185 143.431262 80.644763 150.416472 
L 92.583687 143.52353 
C 89.760648 138.633884 88.274118 133.086079 88.274118 127.440001 
C 88.274118 121.793923 89.760647 116.246118 92.583686 111.356471 
z
" style="fill: #2ca02c; stroke: #ffffff; stroke-linejoin: miter"/>
   </g>
   <g id="patch_5">
    <path d="M 80.644763 150.416472 
C 83.662006 155.642489 87.679321 160.223359 92.4668 163.89692 
C 97.254279 167.570482 102.718817 170.265294 108.547682 171.827133 
L 112.11573 158.510993 
C 108.035525 157.417706 104.210348 155.531337 100.859113 152.959844 
C 97.507878 150.388351 94.695757 147.181742 92.583687 143.52353 
z
" style="fill: #d62728; stroke: #ffffff; stroke-linejoin: miter"/>
   </g>
   <g id="patch_6">
    <path d="M 108.547682 171.827133 
C 110.485127 172.34627 112.454485 172.737999 114.443116 172.999808 
C 116.431747 173.261616 118.435388 173.392941 120.441179 173.392941 
L 120.441178 159.607059 
C 119.037124 159.607059 117.634576 159.515131 116.242534 159.331865 
C 114.850492 159.1486 113.471942 158.874389 112.11573 158.510993 
z
" style="fill: #9467bd; stroke: #ffffff; stroke-linejoin: miter"/>
   </g>
   <g id="patch_7">
    <path d="M 120.441179 173.392941 
C 128.507004 173.392941 136.43244 171.269326 143.41765 167.236413 
C 150.402859 163.2035 156.20468 157.401678 160.237593 150.416467 
L 148.298668 143.523527 
C 145.475629 148.413174 141.414354 152.47445 136.524708 155.297489 
C 131.635061 158.120528 126.087256 159.607059 120.441178 159.607059 
z
" style="fill: #8c564b; stroke: #ffffff; stroke-linejoin: miter"/>
   </g>
   <g id="patch_8">
    <path d="M 160.237593 150.416467 
C 162.245527 146.938623 163.788927 143.212523 164.82831 139.333493 
C 165.867693 135.454462 166.394118 131.455864 166.394118 127.439996 
L 152.608235 127.439997 
C 152.608236 130.251105 152.239738 133.050123 151.51217 135.765445 
C 150.784602 138.480766 149.704221 141.089036 148.298668 143.523527 
z
" style="fill: #e377c2; stroke: #ffffff; stroke-linejoin: miter"/>
   </g>
   <g id="patch_9">
    <path d="M 152.608235 127.44 
C 152.608235 126.035946 152.516307 124.633398 152.333042 123.241356 
C 152.149776 121.849314 151.875565 120.470764 151.512169 119.114552 
L 138.19603 122.682601 
C 138.403684 123.457579 138.560376 124.245323 138.665099 125.040775 
C 138.769823 125.836227 138.822353 126.637684 138.822353 127.44 
z
" style="fill: #1f77b4; stroke: #ffffff; stroke-linejoin: miter"/>
   </g>
   <g id="patch_10">
    <path d="M 151.512169 119.114552 
C 151.512169 119.114552 151.512169 119.114552 151.512169 119.114552 
L 138.19603 122.682601 
C 138.19603 122.682601 138.19603 122.682601 138.19603 122.682601 
z
" style="fill: #1f77b4; stroke: #ffffff; stroke-linejoin: miter"/>
   </g>
   <g id="patch_11">
    <path d="M 151.512169 119.114552 
C 151.512169 119.114552 151.512169 119.114552 151.512169 119.114552 
L 138.19603 122.682601 
C 138.19603 122.682601 138.19603 122.682601 138.19603 122.682601 
z
" style="fill: #1f77b4; stroke: #ffffff; stroke-linejoin: miter"/>
   </g>
   <g id="patch_12">
    <path d="M 151.512169 119.114552 
C 150.235204 114.348853 147.878742 109.940223 144.625652 106.230785 
C 141.372562 102.521346 137.309228 99.609602 132.750978 97.721513 
C 128.192727 95.833424 123.260603 95.019127 118.337351 95.341813 
C 113.4141 95.6645 108.630458 97.115602 104.357649 99.582509 
L 111.250589 111.521434 
C 113.692194 110.111772 116.425704 109.282571 119.238991 109.098179 
C 122.052277 108.913787 124.870634 109.379099 127.475349 110.458007 
C 130.080063 111.536916 132.401968 113.200769 134.260877 115.320448 
C 136.119785 117.440127 137.466335 119.959345 138.19603 122.682601 
z
" style="fill: #ff7f0e; stroke: #ffffff; stroke-linejoin: miter"/>
   </g>
   <g id="patch_13">
    <path d="M 104.357649 99.582509 
C 103.141702 100.284536 101.973024 101.065422 100.859113 101.920155 
C 99.745202 102.774889 98.688448 103.701638 97.695632 104.694454 
L 107.443723 114.442545 
C 108.011046 113.875222 108.614906 113.345651 109.251426 112.857232 
C 109.887946 112.368812 110.555763 111.922592 111.250589 111.521434 
z
" style="fill: #ff7f0e; stroke: #ffffff; stroke-linejoin: miter"/>
   </g>
   <g id="patch_14">
    <path d="M 97.695632 104.694454 
C 96.702816 105.687269 95.776067 106.744024 94.921334 107.857934 
C 94.0666 108.971845 93.285714 110.140523 92.583687 111.35647 
L 104.522611 118.249411 
C 104.923769 117.554585 105.36999 116.886768 105.858409 116.250248 
C 106.346828 115.613728 106.876399 115.009868 107.443723 114.442545 
z
" style="fill: #ff7f0e; stroke: #ffffff; stroke-linejoin: miter"/>
   </g>
   <g id="patch_15">
    <path d="M 92.583687 111.35647 
C 91.178133 113.79096 90.097752 116.39923 89.370184 119.114552 
C 88.642616 121.829873 88.274118 124.628892 88.274118 127.439999 
L 102.06 127.44 
C 102.06 125.833652 102.27057 124.234213 102.686324 122.682601 
C 103.102077 121.130989 103.719437 119.640549 104.522611 118.249411 
z
" style="fill: #2ca02c; stroke: #ffffff; stroke-linejoin: miter"/>
   </g>
   <g id="patch_16">
    <path d="M 88.274118 127.439999 
C 88.274118 128.844053 88.366045 130.246601 88.549311 131.638643 
C 88.732577 133.030685 89.006788 134.409235 89.370183 135.765447 
L 102.686323 132.197398 
C 102.478669 131.42242 102.321977 130.634677 102.217253 129.839225 
C 102.11253 129.043772 102.06 128.242316 102.06 127.44 
z
" style="fill: #2ca02c; stroke: #ffffff; stroke-linejoin: miter"/>
   </g>
   <g id="patch_17">
    <path d="M 89.370183 135.765447 
C 89.733579 137.121659 90.185381 138.452624 90.722689 139.7498 
C 91.259997 141.046977 91.881659 142.307583 92.583686 143.523529 
L 104.522611 136.630588 
C 104.121452 135.935762 103.766217 135.215415 103.459184 134.474172 
C 103.15215 133.732928 102.893978 132.972376 102.686323 132.197398 
z
" style="fill: #2ca02c; stroke: #ffffff; stroke-linejoin: miter"/>
   </g>
   <g id="patch_18">
    <path d="M 92.583686 143.523529 
C 94.695756 147.181741 97.507876 150.38835 100.859112 152.959843 
C 104.210347 155.531337 108.035523 157.417705 112.115729 158.510993 
L 115.683778 145.194853 
C 113.352232 144.570117 111.166417 143.492192 109.251425 142.022768 
C 107.336434 140.553343 105.729508 138.720995 104.522611 136.630588 
z
" style="fill: #d62728; stroke: #ffffff; stroke-linejoin: miter"/>
   </g>
   <g id="patch_19">
    <path d="M 112.115729 158.510993 
C 112.115729 158.510993 112.115729 158.510993 112.115729 158.510993 
L 115.683778 145.194853 
C 115.683778 145.194853 115.683778 145.194853 115.683778 145.194853 
z
" style="fill: #d62728; stroke: #ffffff; stroke-linejoin: miter"/>
   </g>
   <g id="patch_20">
    <path d="M 112.115729 158.510993 
C 112.115729 158.510993 112.115729 158.510993 112.115729 158.510993 
L 115.683778 145.194853 
C 115.683778 145.194853 115.683778 145.194853 115.683778 145.194853 
z
" style="fill: #d62728; stroke: #ffffff; stroke-linejoin: miter"/>
   </g>
   <g id="patch_21">
    <path d="M 112.115729 158.510993 
C 113.47194 158.874389 114.850491 159.148599 116.242533 159.331865 
C 117.634574 159.515131 119.037123 159.607059 120.441176 159.607059 
L 120.441176 145.821176 
C 119.63886 145.821176 118.837404 145.768646 118.041951 145.663923 
C 117.246499 145.5592 116.458756 145.402508 115.683778 145.194853 
z
" style="fill: #9467bd; stroke: #ffffff; stroke-linejoin: miter"/>
   </g>
   <g id="patch_22">
    <path d="M 120.441176 159.607059 
C 120.441176 159.607059 120.441176 159.607059 120.441176 159.607059 
L 120.441176 145.821176 
C 120.441176 145.821176 120.441176 145.821176 120.441176 145.821176 
z
" style="fill: #9467bd; stroke: #ffffff; stroke-linejoin: miter"/>
   </g>
   <g id="patch_23">
    <path d="M 120.441176 159.607059 
C 120.441176 159.607059 120.441176 159.607059 120.441176 159.607059 
L 120.441176 145.821176 
C 120.441176 145.821176 120.441176 145.821176 120.441176 145.821176 
z
" style="fill: #9467bd; stroke: #ffffff; stroke-linejoin: miter"/>
   </g>
   <g id="patch_24">
    <path d="M 120.441176 159.607059 
C 126.087254 159.607059 131.635059 158.120529 136.524706 155.29749 
C 141.414353 152.474451 145.475628 148.413176 148.298667 143.523529 
L 136.359743 136.630588 
C 134.746577 139.424672 132.425849 141.7454 129.631765 143.358566 
C 126.837681 144.971731 123.667507 145.821176 120.441176 145.821176 
z
" style="fill: #8c564b; stroke: #ffffff; stroke-linejoin: miter"/>
   </g>
   <g id="patch_25">
    <path d="M 148.298667 143.523529 
C 148.298667 143.523529 148.298667 143.523529 148.298667 143.523529 
L 136.359743 136.630588 
C 136.359743 136.630588 136.359743 136.630588 136.359743 136.630588 
z
" style="fill: #8c564b; stroke: #ffffff; stroke-linejoin: miter"/>
   </g>
   <g id="patch_26">
    <path d="M 148.298667 143.523529 
C 148.298667 143.523529 148.298667 143.523529 148.298667 143.523529 
L 136.359743 136.630588 
C 136.359743 136.630588 136.359743 136.630588 136.359743 136.630588 
z
" style="fill: #8c564b; stroke: #ffffff; stroke-linejoin: miter"/>
   </g>
   <g id="patch_27">
    <path d="M 148.298667 143.523529 
C 149.704221 141.089038 150.784602 138.480768 151.51217 135.765446 
C 152.239738 133.050125 152.608235 130.251106 152.608235 127.439998 
L 138.822353 127.439999 
C 138.822353 129.046346 138.611783 130.645786 138.19603 132.197398 
C 137.780277 133.74901 137.162916 135.23945 136.359743 136.630588 
z
" style="fill: #e377c2; stroke: #ffffff; stroke-linejoin: miter"/>
   </g>
   <g id="patch_28">
    <path d="M 152.608235 127.439998 
C 152.608235 127.439998 152.608235 127.439998 152.608235 127.439998 
L 138.822353 127.439999 
C 138.822353 127.439999 138.822353 127.439999 138.822353 127.439999 
z
" style="fill: #e377c2; stroke: #ffffff; stroke-linejoin: miter"/>
   </g>
   <g id="patch_29">
    <path d="M 152.608235 127.439998 
C 152.608235 127.439998 152.608235 127.439998 152.608235 127.439998 
L 138.822353 127.439999 
C 138.822353 127.439999 138.822353 127.439999 138.822353 127.439999 
z
" style="fill: #e377c2; stroke: #ffffff; stroke-linejoin: miter"/>
   </g>
   <g id="matplotlib.axis_1"/>
   <g id="matplotlib.axis_2"/>
   <g id="text_1">
    <!-- 1 -->
    <g transform="translate(170.556965 123.601506) scale(0.1 -0.1)">
     <defs>
      <path id="DejaVuSans-31" d="M 794 531 
L 1825 531 
L 1825 4091 
L 703 3866 
L 703 4441 
L 1819 4666 
L 2450 4666 
L 2450 531 
L 3481 531 
L 3481 0 
L 794 0 
L 794 531 
z
" transform="scale(0.015625)"/>
     </defs>
     <use xlink:href="#DejaVuSans-31"/>
    </g>
   </g>
   <g id="text_2">
    <!-- 2 -->
    <g transform="translate(127.039045 80.083587) scale(0.1 -0.1)">
     <defs>
      <path id="DejaVuSans-32" d="M 1228 531 
L 3431 531 
L 3431 0 
L 469 0 
L 469 531 
Q 828 903 1448 1529 
Q 2069 2156 2228 2338 
Q 2531 2678 2651 2914 
Q 2772 3150 2772 3378 
Q 2772 3750 2511 3984 
Q 2250 4219 1831 4219 
Q 1534 4219 1204 4116 
Q 875 4013 500 3803 
L 500 4441 
Q 881 4594 1212 4672 
Q 1544 4750 1819 4750 
Q 2544 4750 2975 4387 
Q 3406 4025 3406 3419 
Q 3406 3131 3298 2873 
Q 3191 2616 2906 2266 
Q 2828 2175 2409 1742 
Q 1991 1309 1228 531 
z
" transform="scale(0.015625)"/>
     </defs>
     <use xlink:href="#DejaVuSans-32"/>
    </g>
   </g>
   <g id="text_3">
    <!-- 3 -->
    <g transform="translate(63.530441 130.199376) scale(0.1 -0.1)">
     <defs>
      <path id="DejaVuSans-33" d="M 2597 2516 
Q 3050 2419 3304 2112 
Q 3559 1806 3559 1356 
Q 3559 666 3084 287 
Q 2609 -91 1734 -91 
Q 1441 -91 1130 -33 
Q 819 25 488 141 
L 488 750 
Q 750 597 1062 519 
Q 1375 441 1716 441 
Q 2309 441 2620 675 
Q 2931 909 2931 1356 
Q 2931 1769 2642 2001 
Q 2353 2234 1838 2234 
L 1294 2234 
L 1294 2753 
L 1863 2753 
Q 2328 2753 2575 2939 
Q 2822 3125 2822 3475 
Q 2822 3834 2567 4026 
Q 2313 4219 1838 4219 
Q 1578 4219 1281 4162 
Q 984 4106 628 3988 
L 628 4550 
Q 988 4650 1302 4700 
Q 1616 4750 1894 4750 
Q 2613 4750 3031 4423 
Q 3450 4097 3450 3541 
Q 3450 3153 3228 2886 
Q 3006 2619 2597 2516 
z
" transform="scale(0.015625)"/>
     </defs>
     <use xlink:href="#DejaVuSans-33"/>
    </g>
   </g>
   <g id="text_4">
    <!-- 4 -->
    <g transform="translate(83.306862 170.301988) scale(0.1 -0.1)">
     <defs>
      <path id="DejaVuSans-34" d="M 2419 4116 
L 825 1625 
L 2419 1625 
L 2419 4116 
z
M 2253 4666 
L 3047 4666 
L 3047 1625 
L 3713 1625 
L 3713 1100 
L 3047 1100 
L 3047 0 
L 2419 0 
L 2419 1100 
L 313 1100 
L 313 1709 
L 2253 4666 
z
" transform="scale(0.015625)"/>
     </defs>
     <use xlink:href="#DejaVuSans-34"/>
    </g>
   </g>
   <g id="text_5">
    <!-- 5 -->
    <g transform="translate(107.48081 180.315163) scale(0.1 -0.1)">
     <defs>
      <path id="DejaVuSans-35" d="M 691 4666 
L 3169 4666 
L 3169 4134 
L 1269 4134 
L 1269 2991 
Q 1406 3038 1543 3061 
Q 1681 3084 1819 3084 
Q 2600 3084 3056 2656 
Q 3513 2228 3513 1497 
Q 3513 744 3044 326 
Q 2575 -91 1722 -91 
Q 1428 -91 1123 -41 
Q 819 9 494 109 
L 494 744 
Q 775 591 1075 516 
Q 1375 441 1709 441 
Q 2250 441 2565 725 
Q 2881 1009 2881 1497 
Q 2881 1984 2565 2268 
Q 2250 2553 1709 2553 
Q 1456 2553 1204 2497 
Q 953 2441 691 2322 
L 691 4666 
z
" transform="scale(0.015625)"/>
     </defs>
     <use xlink:href="#DejaVuSans-35"/>
    </g>
   </g>
   <g id="text_6">
    <!-- 6 -->
    <g transform="translate(145.715297 173.975429) scale(0.1 -0.1)">
     <defs>
      <path id="DejaVuSans-36" d="M 2113 2584 
Q 1688 2584 1439 2293 
Q 1191 2003 1191 1497 
Q 1191 994 1439 701 
Q 1688 409 2113 409 
Q 2538 409 2786 701 
Q 3034 994 3034 1497 
Q 3034 2003 2786 2293 
Q 2538 2584 2113 2584 
z
M 3366 4563 
L 3366 3988 
Q 3128 4100 2886 4159 
Q 2644 4219 2406 4219 
Q 1781 4219 1451 3797 
Q 1122 3375 1075 2522 
Q 1259 2794 1537 2939 
Q 1816 3084 2150 3084 
Q 2853 3084 3261 2657 
Q 3669 2231 3669 1497 
Q 3669 778 3244 343 
Q 2819 -91 2113 -91 
Q 1303 -91 875 529 
Q 447 1150 447 2328 
Q 447 3434 972 4092 
Q 1497 4750 2381 4750 
Q 2619 4750 2861 4703 
Q 3103 4656 3366 4563 
z
" transform="scale(0.015625)"/>
     </defs>
     <use xlink:href="#DejaVuSans-36"/>
    </g>
   </g>
   <g id="text_7">
    <!-- 7 -->
    <g transform="translate(169.267024 143.282217) scale(0.1 -0.1)">
     <defs>
      <path id="DejaVuSans-37" d="M 525 4666 
L 3525 4666 
L 3525 4397 
L 1831 0 
L 1172 0 
L 2766 4134 
L 525 4134 
L 525 4666 
z
" transform="scale(0.015625)"/>
     </defs>
     <use xlink:href="#DejaVuSans-37"/>
    </g>
   </g>
   <g id="text_8">
    <!-- Train Common ECs -->
    <g transform="translate(64.104926 63.998824) scale(0.12 -0.12)">
     <defs>
      <path id="DejaVuSans-54" d="M -19 4666 
L 3928 4666 
L 3928 4134 
L 2272 4134 
L 2272 0 
L 1638 0 
L 1638 4134 
L -19 4134 
L -19 4666 
z
" transform="scale(0.015625)"/>
      <path id="DejaVuSans-72" d="M 2631 2963 
Q 2534 3019 2420 3045 
Q 2306 3072 2169 3072 
Q 1681 3072 1420 2755 
Q 1159 2438 1159 1844 
L 1159 0 
L 581 0 
L 581 3500 
L 1159 3500 
L 1159 2956 
Q 1341 3275 1631 3429 
Q 1922 3584 2338 3584 
Q 2397 3584 2469 3576 
Q 2541 3569 2628 3553 
L 2631 2963 
z
" transform="scale(0.015625)"/>
      <path id="DejaVuSans-61" d="M 2194 1759 
Q 1497 1759 1228 1600 
Q 959 1441 959 1056 
Q 959 750 1161 570 
Q 1363 391 1709 391 
Q 2188 391 2477 730 
Q 2766 1069 2766 1631 
L 2766 1759 
L 2194 1759 
z
M 3341 1997 
L 3341 0 
L 2766 0 
L 2766 531 
Q 2569 213 2275 61 
Q 1981 -91 1556 -91 
Q 1019 -91 701 211 
Q 384 513 384 1019 
Q 384 1609 779 1909 
Q 1175 2209 1959 2209 
L 2766 2209 
L 2766 2266 
Q 2766 2663 2505 2880 
Q 2244 3097 1772 3097 
Q 1472 3097 1187 3025 
Q 903 2953 641 2809 
L 641 3341 
Q 956 3463 1253 3523 
Q 1550 3584 1831 3584 
Q 2591 3584 2966 3190 
Q 3341 2797 3341 1997 
z
" transform="scale(0.015625)"/>
      <path id="DejaVuSans-69" d="M 603 3500 
L 1178 3500 
L 1178 0 
L 603 0 
L 603 3500 
z
M 603 4863 
L 1178 4863 
L 1178 4134 
L 603 4134 
L 603 4863 
z
" transform="scale(0.015625)"/>
      <path id="DejaVuSans-6e" d="M 3513 2113 
L 3513 0 
L 2938 0 
L 2938 2094 
Q 2938 2591 2744 2837 
Q 2550 3084 2163 3084 
Q 1697 3084 1428 2787 
Q 1159 2491 1159 1978 
L 1159 0 
L 581 0 
L 581 3500 
L 1159 3500 
L 1159 2956 
Q 1366 3272 1645 3428 
Q 1925 3584 2291 3584 
Q 2894 3584 3203 3211 
Q 3513 2838 3513 2113 
z
" transform="scale(0.015625)"/>
      <path id="DejaVuSans-20" transform="scale(0.015625)"/>
      <path id="DejaVuSans-43" d="M 4122 4306 
L 4122 3641 
Q 3803 3938 3442 4084 
Q 3081 4231 2675 4231 
Q 1875 4231 1450 3742 
Q 1025 3253 1025 2328 
Q 1025 1406 1450 917 
Q 1875 428 2675 428 
Q 3081 428 3442 575 
Q 3803 722 4122 1019 
L 4122 359 
Q 3791 134 3420 21 
Q 3050 -91 2638 -91 
Q 1578 -91 968 557 
Q 359 1206 359 2328 
Q 359 3453 968 4101 
Q 1578 4750 2638 4750 
Q 3056 4750 3426 4639 
Q 3797 4528 4122 4306 
z
" transform="scale(0.015625)"/>
      <path id="DejaVuSans-6f" d="M 1959 3097 
Q 1497 3097 1228 2736 
Q 959 2375 959 1747 
Q 959 1119 1226 758 
Q 1494 397 1959 397 
Q 2419 397 2687 759 
Q 2956 1122 2956 1747 
Q 2956 2369 2687 2733 
Q 2419 3097 1959 3097 
z
M 1959 3584 
Q 2709 3584 3137 3096 
Q 3566 2609 3566 1747 
Q 3566 888 3137 398 
Q 2709 -91 1959 -91 
Q 1206 -91 779 398 
Q 353 888 353 1747 
Q 353 2609 779 3096 
Q 1206 3584 1959 3584 
z
" transform="scale(0.015625)"/>
      <path id="DejaVuSans-6d" d="M 3328 2828 
Q 3544 3216 3844 3400 
Q 4144 3584 4550 3584 
Q 5097 3584 5394 3201 
Q 5691 2819 5691 2113 
L 5691 0 
L 5113 0 
L 5113 2094 
Q 5113 2597 4934 2840 
Q 4756 3084 4391 3084 
Q 3944 3084 3684 2787 
Q 3425 2491 3425 1978 
L 3425 0 
L 2847 0 
L 2847 2094 
Q 2847 2600 2669 2842 
Q 2491 3084 2119 3084 
Q 1678 3084 1418 2786 
Q 1159 2488 1159 1978 
L 1159 0 
L 581 0 
L 581 3500 
L 1159 3500 
L 1159 2956 
Q 1356 3278 1631 3431 
Q 1906 3584 2284 3584 
Q 2666 3584 2933 3390 
Q 3200 3197 3328 2828 
z
" transform="scale(0.015625)"/>
      <path id="DejaVuSans-45" d="M 628 4666 
L 3578 4666 
L 3578 4134 
L 1259 4134 
L 1259 2753 
L 3481 2753 
L 3481 2222 
L 1259 2222 
L 1259 531 
L 3634 531 
L 3634 0 
L 628 0 
L 628 4666 
z
" transform="scale(0.015625)"/>
      <path id="DejaVuSans-73" d="M 2834 3397 
L 2834 2853 
Q 2591 2978 2328 3040 
Q 2066 3103 1784 3103 
Q 1356 3103 1142 2972 
Q 928 2841 928 2578 
Q 928 2378 1081 2264 
Q 1234 2150 1697 2047 
L 1894 2003 
Q 2506 1872 2764 1633 
Q 3022 1394 3022 966 
Q 3022 478 2636 193 
Q 2250 -91 1575 -91 
Q 1294 -91 989 -36 
Q 684 19 347 128 
L 347 722 
Q 666 556 975 473 
Q 1284 391 1588 391 
Q 1994 391 2212 530 
Q 2431 669 2431 922 
Q 2431 1156 2273 1281 
Q 2116 1406 1581 1522 
L 1381 1569 
Q 847 1681 609 1914 
Q 372 2147 372 2553 
Q 372 3047 722 3315 
Q 1072 3584 1716 3584 
Q 2034 3584 2315 3537 
Q 2597 3491 2834 3397 
z
" transform="scale(0.015625)"/>
     </defs>
     <use xlink:href="#DejaVuSans-54"/>
     <use xlink:href="#DejaVuSans-72" x="46.333984"/>
     <use xlink:href="#DejaVuSans-61" x="87.447266"/>
     <use xlink:href="#DejaVuSans-69" x="148.726562"/>
     <use xlink:href="#DejaVuSans-6e" x="176.509766"/>
     <use xlink:href="#DejaVuSans-20" x="239.888672"/>
     <use xlink:href="#DejaVuSans-43" x="271.675781"/>
     <use xlink:href="#DejaVuSans-6f" x="341.5"/>
     <use xlink:href="#DejaVuSans-6d" x="402.681641"/>
     <use xlink:href="#DejaVuSans-6d" x="500.09375"/>
     <use xlink:href="#DejaVuSans-6f" x="597.505859"/>
     <use xlink:href="#DejaVuSans-6e" x="658.6875"/>
     <use xlink:href="#DejaVuSans-20" x="722.066406"/>
     <use xlink:href="#DejaVuSans-45" x="753.853516"/>
     <use xlink:href="#DejaVuSans-43" x="817.037109"/>
     <use xlink:href="#DejaVuSans-73" x="886.861328"/>
    </g>
   </g>
  </g>
  <g id="axes_2">
   <g id="patch_30">
    <path d="M 304.252941 127.44 
C 304.252941 120.391693 302.631327 113.436969 299.513941 107.115534 
C 296.396554 100.7941 291.866177 95.273819 286.274379 90.983081 
C 280.682582 86.692344 274.177852 83.745089 267.264976 82.370032 
C 260.352101 80.994975 253.214648 81.228631 246.406506 83.052867 
L 249.974554 96.369007 
C 254.740254 95.092042 259.73647 94.928483 264.575483 95.891022 
C 269.414496 96.853562 273.967807 98.916641 277.882065 101.920157 
C 281.796324 104.923673 284.967588 108.78787 287.149758 113.212874 
C 289.331929 117.637878 290.467059 122.506185 290.467059 127.44 
z
" style="fill: #1f77b4; stroke: #ffffff; stroke-linejoin: miter"/>
   </g>
   <g id="patch_31">
    <path d="M 246.406506 83.052867 
C 239.598365 84.877102 233.300321 88.243476 228.001123 92.890747 
C 222.701925 97.538018 218.542291 103.342781 215.84502 109.854567 
C 213.147749 116.366353 211.984467 123.412245 212.445447 130.445461 
C 212.906428 137.478677 214.97943 144.312452 218.503583 150.416466 
L 230.442508 143.523526 
C 227.975601 139.250717 226.524499 134.467074 226.201813 129.543823 
C 225.879127 124.620572 226.693424 119.688447 228.581514 115.130197 
C 230.469603 110.571946 233.381348 106.508613 237.090786 103.255523 
C 240.800225 100.002433 245.208855 97.645972 249.974554 96.369007 
z
" style="fill: #ff7f0e; stroke: #ffffff; stroke-linejoin: miter"/>
   </g>
   <g id="patch_32">
    <path d="M 218.503583 150.416466 
C 223.560562 159.175414 231.370483 166.024532 240.714565 169.894979 
C 250.058646 173.765426 260.424152 174.444819 270.193489 171.827135 
L 266.625443 158.510994 
C 259.786907 160.343373 252.531052 159.867798 245.990195 157.158486 
C 239.449338 154.449173 233.982394 149.65479 230.442508 143.523526 
z
" style="fill: #2ca02c; stroke: #ffffff; stroke-linejoin: miter"/>
   </g>
   <g id="patch_33">
    <path d="M 270.193489 171.827135 
C 277.984479 169.739546 285.090231 165.63704 290.793632 159.933641 
C 296.497033 154.230242 300.599541 147.124491 302.687131 139.333502 
L 289.370992 135.765451 
C 287.909679 141.219144 285.037923 146.193169 281.045542 150.185549 
C 277.053162 154.177928 272.079135 157.049683 266.625443 158.510994 
z
" style="fill: #d62728; stroke: #ffffff; stroke-linejoin: miter"/>
   </g>
   <g id="patch_34">
    <path d="M 302.687131 139.333502 
C 303.206268 137.396057 303.597998 135.426699 303.859807 133.438068 
C 304.121615 131.449437 304.252941 129.445796 304.252941 127.440005 
L 290.467059 127.440004 
C 290.467059 128.844057 290.375131 130.246606 290.191865 131.638648 
C 290.008599 133.030689 289.734388 134.40924 289.370992 135.765451 
z
" style="fill: #9467bd; stroke: #ffffff; stroke-linejoin: miter"/>
   </g>
   <g id="patch_35">
    <path d="M 290.467059 127.44 
C 290.467059 124.628892 290.098561 121.829874 289.370993 119.114552 
C 288.643425 116.399231 287.563044 113.790961 286.15749 111.35647 
L 274.218566 118.249412 
C 275.021739 119.640549 275.6391 121.130989 276.054853 122.682601 
C 276.470606 124.234214 276.681176 125.833653 276.681176 127.44 
z
" style="fill: #1f77b4; stroke: #ffffff; stroke-linejoin: miter"/>
   </g>
   <g id="patch_36">
    <path d="M 286.15749 111.35647 
C 284.751936 108.921979 283.033298 106.682207 281.045545 104.694454 
C 279.057792 102.706701 276.818019 100.988063 274.383529 99.582509 
L 267.490588 111.521434 
C 268.881725 112.324608 270.161595 113.306686 271.297454 114.442545 
C 272.433313 115.578404 273.415392 116.858274 274.218566 118.249412 
z
" style="fill: #1f77b4; stroke: #ffffff; stroke-linejoin: miter"/>
   </g>
   <g id="patch_37">
    <path d="M 274.383529 99.582509 
C 271.949038 98.176956 269.340768 97.096575 266.625446 96.369007 
C 263.910125 95.641439 261.111106 95.272941 258.299998 95.272941 
L 258.299999 109.058824 
C 259.906346 109.058823 261.505786 109.269394 263.057398 109.685147 
C 264.60901 110.1009 266.09945 110.71826 267.490588 111.521434 
z
" style="fill: #1f77b4; stroke: #ffffff; stroke-linejoin: miter"/>
   </g>
   <g id="patch_38">
    <path d="M 258.299998 95.272941 
C 256.895945 95.272941 255.493396 95.364869 254.101355 95.548135 
C 252.709313 95.731401 251.330762 96.005612 249.974551 96.369008 
L 253.5426 109.685147 
C 254.317579 109.477492 255.105322 109.320801 255.900774 109.216077 
C 256.696227 109.111354 257.497683 109.058824 258.299999 109.058824 
z
" style="fill: #1f77b4; stroke: #ffffff; stroke-linejoin: miter"/>
   </g>
   <g id="patch_39">
    <path d="M 249.974551 96.369008 
C 249.974551 96.369008 249.974551 96.369008 249.974551 96.369008 
L 253.5426 109.685147 
C 253.5426 109.685147 253.5426 109.685147 253.5426 109.685147 
z
" style="fill: #1f77b4; stroke: #ffffff; stroke-linejoin: miter"/>
   </g>
   <g id="patch_40">
    <path d="M 249.974551 96.369008 
C 245.894346 97.462296 242.069169 99.348664 238.717934 101.920158 
C 235.366699 104.491651 232.554579 107.69826 230.442509 111.356472 
L 242.381434 118.249413 
C 243.588331 116.159006 245.195257 114.326658 247.110248 112.857233 
C 249.025239 111.387808 251.211055 110.309883 253.5426 109.685147 
z
" style="fill: #ff7f0e; stroke: #ffffff; stroke-linejoin: miter"/>
   </g>
   <g id="patch_41">
    <path d="M 230.442509 111.356472 
C 229.740482 112.572418 229.11882 113.833025 228.581512 115.130201 
C 228.044204 116.427378 227.592402 117.758343 227.229007 119.114554 
L 240.545147 122.682603 
C 240.752801 121.907624 241.010974 121.147073 241.318007 120.405829 
C 241.62504 119.664586 241.980276 118.944239 242.381434 118.249413 
z
" style="fill: #ff7f0e; stroke: #ffffff; stroke-linejoin: miter"/>
   </g>
   <g id="patch_42">
    <path d="M 227.229007 119.114554 
C 226.865611 120.470766 226.5914 121.849317 226.408135 123.241358 
C 226.224869 124.6334 226.132941 126.035949 226.132941 127.440002 
L 239.918824 127.440001 
C 239.918823 126.637685 239.971354 125.836229 240.076077 125.040776 
C 240.1808 124.245324 240.337492 123.457581 240.545147 122.682603 
z
" style="fill: #ff7f0e; stroke: #ffffff; stroke-linejoin: miter"/>
   </g>
   <g id="patch_43">
    <path d="M 226.132941 127.440002 
C 226.132941 128.844056 226.224869 130.246604 226.408135 131.638646 
C 226.591401 133.030688 226.865612 134.409238 227.229008 135.76545 
L 240.545147 132.1974 
C 240.337492 131.422422 240.180801 130.634679 240.076077 129.839226 
C 239.971354 129.043774 239.918824 128.242318 239.918824 127.440001 
z
" style="fill: #ff7f0e; stroke: #ffffff; stroke-linejoin: miter"/>
   </g>
   <g id="patch_44">
    <path d="M 227.229008 135.76545 
C 227.592404 137.121661 228.044206 138.452627 228.581514 139.749803 
C 229.118822 141.046979 229.740484 142.307586 230.442511 143.523532 
L 242.381435 136.63059 
C 241.980277 135.935763 241.625041 135.215417 241.318008 134.474173 
C 241.010975 133.732929 240.752802 132.972378 240.545147 132.1974 
z
" style="fill: #ff7f0e; stroke: #ffffff; stroke-linejoin: miter"/>
   </g>
   <g id="patch_45">
    <path d="M 230.442511 143.523532 
C 231.848065 145.958022 233.566703 148.197794 235.554457 150.185548 
C 237.54221 152.173301 239.781983 153.891938 242.216473 155.297492 
L 249.109413 143.358567 
C 247.718276 142.555393 246.438406 141.573315 245.302547 140.437456 
C 244.166688 139.301597 243.184609 138.021727 242.381435 136.63059 
z
" style="fill: #2ca02c; stroke: #ffffff; stroke-linejoin: miter"/>
   </g>
   <g id="patch_46">
    <path d="M 242.216473 155.297492 
C 244.650964 156.703045 247.259234 157.783426 249.974556 158.510994 
C 252.689878 159.238562 255.488896 159.607059 258.300004 159.607059 
L 258.300002 145.821176 
C 256.693655 145.821177 255.094216 145.610607 253.542603 145.194854 
C 251.990991 144.7791 250.500551 144.16174 249.109413 143.358567 
z
" style="fill: #2ca02c; stroke: #ffffff; stroke-linejoin: miter"/>
   </g>
   <g id="patch_47">
    <path d="M 258.300004 159.607059 
C 259.704057 159.607059 261.106606 159.515131 262.498648 159.331865 
C 263.890689 159.148599 265.26924 158.874388 266.625451 158.510992 
L 263.057401 145.194852 
C 262.282423 145.402507 261.49468 145.559199 260.699227 145.663923 
C 259.903775 145.768646 259.102318 145.821176 258.300002 145.821176 
z
" style="fill: #2ca02c; stroke: #ffffff; stroke-linejoin: miter"/>
   </g>
   <g id="patch_48">
    <path d="M 266.625451 158.510992 
C 266.625451 158.510992 266.625451 158.510992 266.625451 158.510992 
L 263.057401 145.194852 
C 263.057401 145.194852 263.057401 145.194852 263.057401 145.194852 
z
" style="fill: #2ca02c; stroke: #ffffff; stroke-linejoin: miter"/>
   </g>
   <g id="patch_49">
    <path d="M 266.625451 158.510992 
C 266.625451 158.510992 266.625451 158.510992 266.625451 158.510992 
L 263.057401 145.194852 
C 263.057401 145.194852 263.057401 145.194852 263.057401 145.194852 
z
" style="fill: #2ca02c; stroke: #ffffff; stroke-linejoin: miter"/>
   </g>
   <g id="patch_50">
    <path d="M 266.625451 158.510992 
C 269.340773 157.783423 271.949043 156.703042 274.383533 155.297488 
C 276.818024 153.891934 279.057796 152.173296 281.045549 150.185542 
L 271.297456 140.437453 
C 270.161597 141.573312 268.881728 142.555391 267.49059 143.358565 
C 266.099453 144.161738 264.609013 144.779099 263.057401 145.194852 
z
" style="fill: #d62728; stroke: #ffffff; stroke-linejoin: miter"/>
   </g>
   <g id="patch_51">
    <path d="M 281.045549 150.185542 
C 282.038364 149.192726 282.965113 148.135972 283.819846 147.022061 
C 284.67458 145.90815 285.455466 144.739471 286.157492 143.523525 
L 274.218567 136.630586 
C 273.817409 137.325412 273.371189 137.993229 272.882769 138.629749 
C 272.39435 139.26627 271.86478 139.870129 271.297456 140.437453 
z
" style="fill: #d62728; stroke: #ffffff; stroke-linejoin: miter"/>
   </g>
   <g id="patch_52">
    <path d="M 286.157492 143.523525 
C 286.859519 142.307579 287.481181 141.046972 288.018489 139.749796 
C 288.555797 138.452619 289.007599 137.121654 289.370994 135.765443 
L 276.054854 132.197396 
C 275.847199 132.972374 275.589027 133.732925 275.281994 134.474169 
C 274.974961 135.215413 274.619725 135.935759 274.218567 136.630586 
z
" style="fill: #d62728; stroke: #ffffff; stroke-linejoin: miter"/>
   </g>
   <g id="patch_53">
    <path d="M 289.370994 135.765443 
C 289.370994 135.765443 289.370994 135.765443 289.370994 135.765443 
L 276.054854 132.197396 
C 276.054854 132.197396 276.054854 132.197396 276.054854 132.197396 
z
" style="fill: #d62728; stroke: #ffffff; stroke-linejoin: miter"/>
   </g>
   <g id="patch_54">
    <path d="M 289.370994 135.765443 
C 289.370994 135.765443 289.370994 135.765443 289.370994 135.765443 
L 276.054854 132.197396 
C 276.054854 132.197396 276.054854 132.197396 276.054854 132.197396 
z
" style="fill: #d62728; stroke: #ffffff; stroke-linejoin: miter"/>
   </g>
   <g id="patch_55">
    <path d="M 289.370994 135.765443 
C 289.73439 134.409231 290.0086 133.03068 290.191866 131.638639 
C 290.375131 130.246597 290.467059 128.844048 290.467059 127.439995 
L 276.681176 127.439997 
C 276.681177 128.242313 276.628647 129.04377 276.523923 129.839222 
C 276.4192 130.634674 276.262508 131.422418 276.054854 132.197396 
z
" style="fill: #9467bd; stroke: #ffffff; stroke-linejoin: miter"/>
   </g>
   <g id="patch_56">
    <path d="M 290.467059 127.439995 
C 290.467059 127.439995 290.467059 127.439995 290.467059 127.439995 
L 276.681176 127.439997 
C 276.681176 127.439997 276.681176 127.439997 276.681176 127.439997 
z
" style="fill: #9467bd; stroke: #ffffff; stroke-linejoin: miter"/>
   </g>
   <g id="patch_57">
    <path d="M 290.467059 127.439995 
C 290.467059 127.439995 290.467059 127.439995 290.467059 127.439995 
L 276.681176 127.439997 
C 276.681176 127.439997 276.681176 127.439997 276.681176 127.439997 
z
" style="fill: #9467bd; stroke: #ffffff; stroke-linejoin: miter"/>
   </g>
   <g id="patch_58">
    <path d="M 290.467059 127.439995 
C 290.467059 127.439995 290.467059 127.439995 290.467059 127.439995 
L 276.681176 127.439997 
C 276.681176 127.439997 276.681176 127.439997 276.681176 127.439997 
z
" style="fill: #9467bd; stroke: #ffffff; stroke-linejoin: miter"/>
   </g>
   <g id="patch_59">
    <path d="M 290.467059 127.439995 
C 290.467059 127.439995 290.467059 127.439995 290.467059 127.439995 
L 276.681176 127.439997 
C 276.681176 127.439997 276.681176 127.439997 276.681176 127.439997 
z
" style="fill: #9467bd; stroke: #ffffff; stroke-linejoin: miter"/>
   </g>
   <g id="matplotlib.axis_3"/>
   <g id="matplotlib.axis_4"/>
   <g id="text_9">
    <!-- 1 -->
    <g transform="translate(289.071817 90.096765) scale(0.1 -0.1)">
     <use xlink:href="#DejaVuSans-31"/>
    </g>
   </g>
   <g id="text_10">
    <!-- 2 -->
    <g transform="translate(205.237022 110.855398) scale(0.1 -0.1)">
     <use xlink:href="#DejaVuSans-32"/>
    </g>
   </g>
   <g id="text_11">
    <!-- 3 -->
    <g transform="translate(232.593521 176.899852) scale(0.1 -0.1)">
     <use xlink:href="#DejaVuSans-33"/>
    </g>
   </g>
   <g id="text_12">
    <!-- 4 -->
    <g transform="translate(294.042995 165.94238) scale(0.1 -0.1)">
     <use xlink:href="#DejaVuSans-34"/>
    </g>
   </g>
   <g id="text_13">
    <!-- 5 -->
    <g transform="translate(308.415787 136.79725) scale(0.1 -0.1)">
     <use xlink:href="#DejaVuSans-35"/>
    </g>
   </g>
   <g id="text_14">
    <!-- Train Rare ECs -->
    <g transform="translate(215.252813 63.998824) scale(0.12 -0.12)">
     <defs>
      <path id="DejaVuSans-52" d="M 2841 2188 
Q 3044 2119 3236 1894 
Q 3428 1669 3622 1275 
L 4263 0 
L 3584 0 
L 2988 1197 
Q 2756 1666 2539 1819 
Q 2322 1972 1947 1972 
L 1259 1972 
L 1259 0 
L 628 0 
L 628 4666 
L 2053 4666 
Q 2853 4666 3247 4331 
Q 3641 3997 3641 3322 
Q 3641 2881 3436 2590 
Q 3231 2300 2841 2188 
z
M 1259 4147 
L 1259 2491 
L 2053 2491 
Q 2509 2491 2742 2702 
Q 2975 2913 2975 3322 
Q 2975 3731 2742 3939 
Q 2509 4147 2053 4147 
L 1259 4147 
z
" transform="scale(0.015625)"/>
      <path id="DejaVuSans-65" d="M 3597 1894 
L 3597 1613 
L 953 1613 
Q 991 1019 1311 708 
Q 1631 397 2203 397 
Q 2534 397 2845 478 
Q 3156 559 3463 722 
L 3463 178 
Q 3153 47 2828 -22 
Q 2503 -91 2169 -91 
Q 1331 -91 842 396 
Q 353 884 353 1716 
Q 353 2575 817 3079 
Q 1281 3584 2069 3584 
Q 2775 3584 3186 3129 
Q 3597 2675 3597 1894 
z
M 3022 2063 
Q 3016 2534 2758 2815 
Q 2500 3097 2075 3097 
Q 1594 3097 1305 2825 
Q 1016 2553 972 2059 
L 3022 2063 
z
" transform="scale(0.015625)"/>
     </defs>
     <use xlink:href="#DejaVuSans-54"/>
     <use xlink:href="#DejaVuSans-72" x="46.333984"/>
     <use xlink:href="#DejaVuSans-61" x="87.447266"/>
     <use xlink:href="#DejaVuSans-69" x="148.726562"/>
     <use xlink:href="#DejaVuSans-6e" x="176.509766"/>
     <use xlink:href="#DejaVuSans-20" x="239.888672"/>
     <use xlink:href="#DejaVuSans-52" x="271.675781"/>
     <use xlink:href="#DejaVuSans-61" x="338.908203"/>
     <use xlink:href="#DejaVuSans-72" x="400.1875"/>
     <use xlink:href="#DejaVuSans-65" x="439.050781"/>
     <use xlink:href="#DejaVuSans-20" x="500.574219"/>
     <use xlink:href="#DejaVuSans-45" x="532.361328"/>
     <use xlink:href="#DejaVuSans-43" x="595.544922"/>
     <use xlink:href="#DejaVuSans-73" x="665.369141"/>
    </g>
   </g>
  </g>
  <g id="axes_3">
   <g id="patch_60">
    <path d="M 442.111765 127.44 
C 442.111765 120.391693 440.49015 113.436969 437.372764 107.115534 
C 434.255378 100.7941 429.725 95.273819 424.133203 90.983081 
C 418.541405 86.692344 412.036675 83.745089 405.1238 82.370032 
C 398.210924 80.994975 391.073472 81.228631 384.26533 83.052867 
L 387.833378 96.369007 
C 392.599077 95.092042 397.595294 94.928483 402.434307 95.891022 
C 407.27332 96.853562 411.826631 98.916641 415.740889 101.920157 
C 419.655147 104.923673 422.826412 108.78787 425.008582 113.212874 
C 427.190752 117.637878 428.325882 122.506185 428.325882 127.44 
z
" style="fill: #1f77b4; stroke: #ffffff; stroke-linejoin: miter"/>
   </g>
   <g id="patch_61">
    <path d="M 384.26533 83.052867 
C 374.495993 85.670552 365.858897 91.441674 359.701906 99.465619 
C 353.544916 107.489564 350.205883 117.326034 350.205882 127.439996 
L 363.991765 127.439997 
C 363.991765 120.360224 366.329088 113.474695 370.638981 107.857933 
C 374.948875 102.241172 380.994842 98.201386 387.833378 96.369007 
z
" style="fill: #ff7f0e; stroke: #ffffff; stroke-linejoin: miter"/>
   </g>
   <g id="patch_62">
    <path d="M 350.205882 127.439996 
C 350.205881 139.622799 355.050642 151.319089 363.665184 159.933633 
C 372.279726 168.548177 383.976016 173.39294 396.158819 173.392941 
L 396.158821 159.607059 
C 387.630858 159.607058 379.443456 156.215724 373.413276 150.185543 
C 367.383096 144.155363 363.991764 135.96796 363.991765 127.439997 
z
" style="fill: #2ca02c; stroke: #ffffff; stroke-linejoin: miter"/>
   </g>
   <g id="patch_63">
    <path d="M 396.158819 173.392941 
C 400.174687 173.392942 404.173285 172.866517 408.052316 171.827134 
C 411.931347 170.787751 415.657447 169.24435 419.135291 167.236416 
L 412.242351 155.297491 
C 409.80786 156.703045 407.19959 157.783426 404.484268 158.510994 
C 401.768947 159.238562 398.969928 159.607059 396.158821 159.607059 
z
" style="fill: #d62728; stroke: #ffffff; stroke-linejoin: miter"/>
   </g>
   <g id="patch_64">
    <path d="M 419.135291 167.236416 
C 424.361309 164.219174 428.942179 160.201859 432.615741 155.414381 
C 436.289303 150.626902 438.984115 145.162365 440.545955 139.3335 
L 427.229816 135.76545 
C 426.136528 139.845655 424.250159 143.670832 421.678666 147.022067 
C 419.107172 150.373302 415.900563 153.185422 412.242351 155.297491 
z
" style="fill: #9467bd; stroke: #ffffff; stroke-linejoin: miter"/>
   </g>
   <g id="patch_65">
    <path d="M 440.545955 139.3335 
C 441.065092 137.396055 441.456822 135.426697 441.71863 133.438066 
C 441.980439 131.449435 442.111765 129.445794 442.111765 127.440003 
L 428.325882 127.440002 
C 428.325882 128.844056 428.233954 130.246604 428.050688 131.638646 
C 427.867423 133.030688 427.593212 134.409238 427.229816 135.76545 
z
" style="fill: #8c564b; stroke: #ffffff; stroke-linejoin: miter"/>
   </g>
   <g id="patch_66">
    <path d="M 428.325882 127.44 
C 428.325882 123.215861 427.493819 119.032796 425.877311 115.1302 
C 424.260803 111.227604 421.891287 107.681372 418.904369 104.694455 
L 409.156278 114.442545 
C 410.863088 116.149356 412.217097 118.175773 413.140816 120.405828 
C 414.064535 122.635883 414.54 125.026206 414.54 127.44 
z
" style="fill: #1f77b4; stroke: #ffffff; stroke-linejoin: miter"/>
   </g>
   <g id="patch_67">
    <path d="M 418.904369 104.694455 
C 416.916616 102.706701 414.676843 100.988064 412.242353 99.58251 
C 409.807862 98.176956 407.199592 97.096575 404.48427 96.369007 
L 400.916222 109.685147 
C 402.467834 110.1009 403.958274 110.718261 405.349412 111.521434 
C 406.740549 112.324608 408.020419 113.306686 409.156278 114.442545 
z
" style="fill: #1f77b4; stroke: #ffffff; stroke-linejoin: miter"/>
   </g>
   <g id="patch_68">
    <path d="M 404.48427 96.369007 
C 403.128059 96.005611 401.749508 95.7314 400.357467 95.548135 
C 398.965425 95.364869 397.562876 95.272941 396.158823 95.272941 
L 396.158823 109.058824 
C 396.961139 109.058824 397.762596 109.111354 398.558048 109.216077 
C 399.353501 109.3208 400.141244 109.477492 400.916222 109.685147 
z
" style="fill: #1f77b4; stroke: #ffffff; stroke-linejoin: miter"/>
   </g>
   <g id="patch_69">
    <path d="M 396.158823 95.272941 
C 394.754769 95.272941 393.352221 95.364869 391.960179 95.548135 
C 390.568137 95.731401 389.189587 96.005612 387.833375 96.369007 
L 391.401424 109.685147 
C 392.176403 109.477492 392.964146 109.3208 393.759598 109.216077 
C 394.55505 109.111354 395.356507 109.058824 396.158823 109.058824 
z
" style="fill: #1f77b4; stroke: #ffffff; stroke-linejoin: miter"/>
   </g>
   <g id="patch_70">
    <path d="M 387.833375 96.369007 
C 383.75317 97.462295 379.927993 99.348664 376.576758 101.920157 
C 373.225523 104.49165 370.413403 107.698259 368.301333 111.356471 
L 380.240257 118.249412 
C 381.447154 116.159005 383.05408 114.326657 384.969072 112.857233 
C 386.884063 111.387808 389.069879 110.309883 391.401424 109.685147 
z
" style="fill: #ff7f0e; stroke: #ffffff; stroke-linejoin: miter"/>
   </g>
   <g id="patch_71">
    <path d="M 368.301333 111.356471 
C 367.599306 112.572418 366.977644 113.833024 366.440336 115.130201 
C 365.903028 116.427377 365.451226 117.758342 365.08783 119.114554 
L 378.40397 122.682602 
C 378.611625 121.907624 378.869797 121.147073 379.176831 120.405829 
C 379.483864 119.664585 379.839099 118.944239 380.240257 118.249412 
z
" style="fill: #ff7f0e; stroke: #ffffff; stroke-linejoin: miter"/>
   </g>
   <g id="patch_72">
    <path d="M 365.08783 119.114554 
C 364.724435 120.470765 364.450224 121.849316 364.266958 123.241358 
C 364.083692 124.633399 363.991765 126.035948 363.991765 127.440002 
L 377.777647 127.440001 
C 377.777647 126.637685 377.830177 125.836228 377.9349 125.040776 
C 378.039624 124.245323 378.196316 123.45758 378.40397 122.682602 
z
" style="fill: #ff7f0e; stroke: #ffffff; stroke-linejoin: miter"/>
   </g>
   <g id="patch_73">
    <path d="M 363.991765 127.440002 
C 363.991765 127.440002 363.991765 127.440002 363.991765 127.440002 
L 377.777647 127.440001 
C 377.777647 127.440001 377.777647 127.440001 377.777647 127.440001 
z
" style="fill: #ff7f0e; stroke: #ffffff; stroke-linejoin: miter"/>
   </g>
   <g id="patch_74">
    <path d="M 363.991765 127.440002 
C 363.991765 131.664141 364.823828 135.847206 366.440337 139.749802 
C 368.056845 143.652398 370.426361 147.198629 373.413279 150.185546 
L 383.16137 140.437455 
C 381.454559 138.730645 380.10055 136.704227 379.176831 134.474172 
C 378.253112 132.244118 377.777647 129.853795 377.777647 127.440001 
z
" style="fill: #2ca02c; stroke: #ffffff; stroke-linejoin: miter"/>
   </g>
   <g id="patch_75">
    <path d="M 373.413279 150.185546 
C 375.401033 152.1733 377.640805 153.891937 380.075296 155.297491 
C 382.509786 156.703045 385.118056 157.783425 387.833378 158.510993 
L 391.401426 145.194853 
C 389.849814 144.7791 388.359374 144.16174 386.968236 143.358566 
C 385.577099 142.555393 384.297229 141.573314 383.16137 140.437455 
z
" style="fill: #2ca02c; stroke: #ffffff; stroke-linejoin: miter"/>
   </g>
   <g id="patch_76">
    <path d="M 387.833378 158.510993 
C 389.18959 158.874389 390.56814 159.1486 391.960182 159.331865 
C 393.352224 159.515131 394.754772 159.607059 396.158826 159.607059 
L 396.158825 145.821176 
C 395.356508 145.821177 394.555052 145.768646 393.7596 145.663923 
C 392.964147 145.5592 392.176404 145.402508 391.401426 145.194853 
z
" style="fill: #2ca02c; stroke: #ffffff; stroke-linejoin: miter"/>
   </g>
   <g id="patch_77">
    <path d="M 396.158826 159.607059 
C 396.158826 159.607059 396.158826 159.607059 396.158826 159.607059 
L 396.158825 145.821176 
C 396.158825 145.821176 396.158825 145.821176 396.158825 145.821176 
z
" style="fill: #2ca02c; stroke: #ffffff; stroke-linejoin: miter"/>
   </g>
   <g id="patch_78">
    <path d="M 396.158826 159.607059 
C 397.562879 159.607059 398.965428 159.515131 400.35747 159.331865 
C 401.749511 159.148599 403.128062 158.874388 404.484273 158.510992 
L 400.916223 145.194853 
C 400.141245 145.402508 399.353502 145.559199 398.55805 145.663923 
C 397.762597 145.768646 396.961141 145.821176 396.158825 145.821176 
z
" style="fill: #d62728; stroke: #ffffff; stroke-linejoin: miter"/>
   </g>
   <g id="patch_79">
    <path d="M 404.484273 158.510992 
C 405.840485 158.147596 407.17145 157.695794 408.468626 157.158486 
C 409.765803 156.621178 411.026409 155.999516 412.242355 155.297489 
L 405.349413 143.358565 
C 404.654587 143.759723 403.93424 144.114959 403.192997 144.421992 
C 402.451753 144.729025 401.691202 144.987198 400.916223 145.194853 
z
" style="fill: #d62728; stroke: #ffffff; stroke-linejoin: miter"/>
   </g>
   <g id="patch_80">
    <path d="M 412.242355 155.297489 
C 412.242355 155.297489 412.242355 155.297489 412.242355 155.297489 
L 405.349413 143.358565 
C 405.349413 143.358565 405.349413 143.358565 405.349413 143.358565 
z
" style="fill: #d62728; stroke: #ffffff; stroke-linejoin: miter"/>
   </g>
   <g id="patch_81">
    <path d="M 412.242355 155.297489 
C 412.242355 155.297489 412.242355 155.297489 412.242355 155.297489 
L 405.349413 143.358565 
C 405.349413 143.358565 405.349413 143.358565 405.349413 143.358565 
z
" style="fill: #d62728; stroke: #ffffff; stroke-linejoin: miter"/>
   </g>
   <g id="patch_82">
    <path d="M 412.242355 155.297489 
C 413.458301 154.595462 414.62698 153.814576 415.740891 152.959842 
C 416.854801 152.105108 417.911555 151.178359 418.904371 150.185543 
L 409.156279 140.437453 
C 408.588956 141.004777 407.985096 141.534347 407.348576 142.022767 
C 406.712056 142.511186 406.044239 142.957407 405.349413 143.358565 
z
" style="fill: #9467bd; stroke: #ffffff; stroke-linejoin: miter"/>
   </g>
   <g id="patch_83">
    <path d="M 418.904371 150.185543 
C 419.897187 149.192727 420.823935 148.135973 421.678669 147.022062 
C 422.533403 145.908152 423.314289 144.739473 424.016315 143.523527 
L 412.07739 136.630587 
C 411.676232 137.325413 411.230012 137.993229 410.741592 138.62975 
C 410.253173 139.26627 409.723603 139.87013 409.156279 140.437453 
z
" style="fill: #9467bd; stroke: #ffffff; stroke-linejoin: miter"/>
   </g>
   <g id="patch_84">
    <path d="M 424.016315 143.523527 
C 424.718342 142.30758 425.340004 141.046974 425.877312 139.749797 
C 426.41462 138.452621 426.866422 137.121656 427.229817 135.765444 
L 413.913677 132.197397 
C 413.706022 132.972375 413.44785 133.732926 413.140817 134.47417 
C 412.833784 135.215414 412.478548 135.93576 412.07739 136.630587 
z
" style="fill: #9467bd; stroke: #ffffff; stroke-linejoin: miter"/>
   </g>
   <g id="patch_85">
    <path d="M 427.229817 135.765444 
C 427.229817 135.765444 427.229817 135.765444 427.229817 135.765444 
L 413.913677 132.197397 
C 413.913677 132.197397 413.913677 132.197397 413.913677 132.197397 
z
" style="fill: #9467bd; stroke: #ffffff; stroke-linejoin: miter"/>
   </g>
   <g id="patch_86">
    <path d="M 427.229817 135.765444 
C 427.593213 134.409232 427.867424 133.030682 428.050689 131.63864 
C 428.233955 130.246598 428.325883 128.84405 428.325882 127.439996 
L 414.54 127.439998 
C 414.54 128.242314 414.48747 129.04377 414.382747 129.839223 
C 414.278024 130.634675 414.121332 131.422419 413.913677 132.197397 
z
" style="fill: #8c564b; stroke: #ffffff; stroke-linejoin: miter"/>
   </g>
   <g id="patch_87">
    <path d="M 428.325882 127.439996 
C 428.325882 127.439996 428.325882 127.439996 428.325882 127.439996 
L 414.54 127.439998 
C 414.54 127.439998 414.54 127.439998 414.54 127.439998 
z
" style="fill: #8c564b; stroke: #ffffff; stroke-linejoin: miter"/>
   </g>
   <g id="patch_88">
    <path d="M 428.325882 127.439996 
C 428.325882 127.439996 428.325882 127.439996 428.325882 127.439996 
L 414.54 127.439998 
C 414.54 127.439998 414.54 127.439998 414.54 127.439998 
z
" style="fill: #8c564b; stroke: #ffffff; stroke-linejoin: miter"/>
   </g>
   <g id="patch_89">
    <path d="M 428.325882 127.439996 
C 428.325882 127.439996 428.325882 127.439996 428.325882 127.439996 
L 414.54 127.439998 
C 414.54 127.439998 414.54 127.439998 414.54 127.439998 
z
" style="fill: #8c564b; stroke: #ffffff; stroke-linejoin: miter"/>
   </g>
   <g id="matplotlib.axis_5"/>
   <g id="matplotlib.axis_6"/>
   <g id="text_15">
    <!-- 1 -->
    <g transform="translate(426.930641 90.096765) scale(0.1 -0.1)">
     <use xlink:href="#DejaVuSans-31"/>
    </g>
   </g>
   <g id="text_16">
    <!-- 2 -->
    <g transform="translate(349.693715 99.427556) scale(0.1 -0.1)">
     <use xlink:href="#DejaVuSans-32"/>
    </g>
   </g>
   <g id="text_17">
    <!-- 3 -->
    <g transform="translate(354.05332 165.942372) scale(0.1 -0.1)">
     <use xlink:href="#DejaVuSans-33"/>
    </g>
   </g>
   <g id="text_18">
    <!-- 4 -->
    <g transform="translate(409.241665 179.025222) scale(0.1 -0.1)">
     <use xlink:href="#DejaVuSans-34"/>
    </g>
   </g>
   <g id="text_19">
    <!-- 5 -->
    <g transform="translate(436.261432 160.971194) scale(0.1 -0.1)">
     <use xlink:href="#DejaVuSans-35"/>
    </g>
   </g>
   <g id="text_20">
    <!-- 6 -->
    <g transform="translate(446.274611 136.797247) scale(0.1 -0.1)">
     <use xlink:href="#DejaVuSans-36"/>
    </g>
   </g>
   <g id="text_21">
    <!-- Test ECs -->
    <g transform="translate(371.331011 63.998824) scale(0.12 -0.12)">
     <defs>
      <path id="DejaVuSans-74" d="M 1172 4494 
L 1172 3500 
L 2356 3500 
L 2356 3053 
L 1172 3053 
L 1172 1153 
Q 1172 725 1289 603 
Q 1406 481 1766 481 
L 2356 481 
L 2356 0 
L 1766 0 
Q 1100 0 847 248 
Q 594 497 594 1153 
L 594 3053 
L 172 3053 
L 172 3500 
L 594 3500 
L 594 4494 
L 1172 4494 
z
" transform="scale(0.015625)"/>
     </defs>
     <use xlink:href="#DejaVuSans-54"/>
     <use xlink:href="#DejaVuSans-65" x="44.083984"/>
     <use xlink:href="#DejaVuSans-73" x="105.607422"/>
     <use xlink:href="#DejaVuSans-74" x="157.707031"/>
     <use xlink:href="#DejaVuSans-20" x="196.916016"/>
     <use xlink:href="#DejaVuSans-45" x="228.703125"/>
     <use xlink:href="#DejaVuSans-43" x="291.886719"/>
     <use xlink:href="#DejaVuSans-73" x="361.710938"/>
    </g>
   </g>
  </g>
  <g id="axes_4">
   <g id="patch_90">
    <path d="M 63 384.48 
L 177.882353 384.48 
L 177.882353 233.28 
L 63 233.28 
z
" style="fill: #ffffff"/>
   </g>
   <g id="matplotlib.axis_7">
    <g id="xtick_1">
     <g id="line2d_1">
      <defs>
       <path id="me5ec963c86" d="M 0 0 
L 0 3.5 
" style="stroke: #000000; stroke-width: 0.8"/>
      </defs>
      <g>
       <use xlink:href="#me5ec963c86" x="63" y="384.48" style="stroke: #000000; stroke-width: 0.8"/>
      </g>
     </g>
     <g id="text_22">
      <!-- 0.0 -->
      <g transform="translate(55.048437 399.078438) scale(0.1 -0.1)">
       <defs>
        <path id="DejaVuSans-30" d="M 2034 4250 
Q 1547 4250 1301 3770 
Q 1056 3291 1056 2328 
Q 1056 1369 1301 889 
Q 1547 409 2034 409 
Q 2525 409 2770 889 
Q 3016 1369 3016 2328 
Q 3016 3291 2770 3770 
Q 2525 4250 2034 4250 
z
M 2034 4750 
Q 2819 4750 3233 4129 
Q 3647 3509 3647 2328 
Q 3647 1150 3233 529 
Q 2819 -91 2034 -91 
Q 1250 -91 836 529 
Q 422 1150 422 2328 
Q 422 3509 836 4129 
Q 1250 4750 2034 4750 
z
" transform="scale(0.015625)"/>
        <path id="DejaVuSans-2e" d="M 684 794 
L 1344 794 
L 1344 0 
L 684 0 
L 684 794 
z
" transform="scale(0.015625)"/>
       </defs>
       <use xlink:href="#DejaVuSans-30"/>
       <use xlink:href="#DejaVuSans-2e" x="63.623047"/>
       <use xlink:href="#DejaVuSans-30" x="95.410156"/>
      </g>
     </g>
    </g>
    <g id="xtick_2">
     <g id="line2d_2">
      <g>
       <use xlink:href="#me5ec963c86" x="120.441176" y="384.48" style="stroke: #000000; stroke-width: 0.8"/>
      </g>
     </g>
     <g id="text_23">
      <!-- 0.5 -->
      <g transform="translate(112.489614 399.078438) scale(0.1 -0.1)">
       <use xlink:href="#DejaVuSans-30"/>
       <use xlink:href="#DejaVuSans-2e" x="63.623047"/>
       <use xlink:href="#DejaVuSans-35" x="95.410156"/>
      </g>
     </g>
    </g>
    <g id="xtick_3">
     <g id="line2d_3">
      <g>
       <use xlink:href="#me5ec963c86" x="177.882353" y="384.48" style="stroke: #000000; stroke-width: 0.8"/>
      </g>
     </g>
     <g id="text_24">
      <!-- 1.0 -->
      <g transform="translate(169.93079 399.078438) scale(0.1 -0.1)">
       <use xlink:href="#DejaVuSans-31"/>
       <use xlink:href="#DejaVuSans-2e" x="63.623047"/>
       <use xlink:href="#DejaVuSans-30" x="95.410156"/>
      </g>
     </g>
    </g>
   </g>
   <g id="matplotlib.axis_8">
    <g id="ytick_1">
     <g id="line2d_4">
      <defs>
       <path id="m87fd0d841d" d="M 0 0 
L -3.5 0 
" style="stroke: #000000; stroke-width: 0.8"/>
      </defs>
      <g>
       <use xlink:href="#m87fd0d841d" x="63" y="384.48" style="stroke: #000000; stroke-width: 0.8"/>
      </g>
     </g>
     <g id="text_25">
      <!-- 0.0 -->
      <g transform="translate(40.096875 388.279219) scale(0.1 -0.1)">
       <use xlink:href="#DejaVuSans-30"/>
       <use xlink:href="#DejaVuSans-2e" x="63.623047"/>
       <use xlink:href="#DejaVuSans-30" x="95.410156"/>
      </g>
     </g>
    </g>
    <g id="ytick_2">
     <g id="line2d_5">
      <g>
       <use xlink:href="#m87fd0d841d" x="63" y="354.24" style="stroke: #000000; stroke-width: 0.8"/>
      </g>
     </g>
     <g id="text_26">
      <!-- 0.2 -->
      <g transform="translate(40.096875 358.039219) scale(0.1 -0.1)">
       <use xlink:href="#DejaVuSans-30"/>
       <use xlink:href="#DejaVuSans-2e" x="63.623047"/>
       <use xlink:href="#DejaVuSans-32" x="95.410156"/>
      </g>
     </g>
    </g>
    <g id="ytick_3">
     <g id="line2d_6">
      <g>
       <use xlink:href="#m87fd0d841d" x="63" y="324" style="stroke: #000000; stroke-width: 0.8"/>
      </g>
     </g>
     <g id="text_27">
      <!-- 0.4 -->
      <g transform="translate(40.096875 327.799219) scale(0.1 -0.1)">
       <use xlink:href="#DejaVuSans-30"/>
       <use xlink:href="#DejaVuSans-2e" x="63.623047"/>
       <use xlink:href="#DejaVuSans-34" x="95.410156"/>
      </g>
     </g>
    </g>
    <g id="ytick_4">
     <g id="line2d_7">
      <g>
       <use xlink:href="#m87fd0d841d" x="63" y="293.76" style="stroke: #000000; stroke-width: 0.8"/>
      </g>
     </g>
     <g id="text_28">
      <!-- 0.6 -->
      <g transform="translate(40.096875 297.559219) scale(0.1 -0.1)">
       <use xlink:href="#DejaVuSans-30"/>
       <use xlink:href="#DejaVuSans-2e" x="63.623047"/>
       <use xlink:href="#DejaVuSans-36" x="95.410156"/>
      </g>
     </g>
    </g>
    <g id="ytick_5">
     <g id="line2d_8">
      <g>
       <use xlink:href="#m87fd0d841d" x="63" y="263.52" style="stroke: #000000; stroke-width: 0.8"/>
      </g>
     </g>
     <g id="text_29">
      <!-- 0.8 -->
      <g transform="translate(40.096875 267.319219) scale(0.1 -0.1)">
       <defs>
        <path id="DejaVuSans-38" d="M 2034 2216 
Q 1584 2216 1326 1975 
Q 1069 1734 1069 1313 
Q 1069 891 1326 650 
Q 1584 409 2034 409 
Q 2484 409 2743 651 
Q 3003 894 3003 1313 
Q 3003 1734 2745 1975 
Q 2488 2216 2034 2216 
z
M 1403 2484 
Q 997 2584 770 2862 
Q 544 3141 544 3541 
Q 544 4100 942 4425 
Q 1341 4750 2034 4750 
Q 2731 4750 3128 4425 
Q 3525 4100 3525 3541 
Q 3525 3141 3298 2862 
Q 3072 2584 2669 2484 
Q 3125 2378 3379 2068 
Q 3634 1759 3634 1313 
Q 3634 634 3220 271 
Q 2806 -91 2034 -91 
Q 1263 -91 848 271 
Q 434 634 434 1313 
Q 434 1759 690 2068 
Q 947 2378 1403 2484 
z
M 1172 3481 
Q 1172 3119 1398 2916 
Q 1625 2713 2034 2713 
Q 2441 2713 2670 2916 
Q 2900 3119 2900 3481 
Q 2900 3844 2670 4047 
Q 2441 4250 2034 4250 
Q 1625 4250 1398 4047 
Q 1172 3844 1172 3481 
z
" transform="scale(0.015625)"/>
       </defs>
       <use xlink:href="#DejaVuSans-30"/>
       <use xlink:href="#DejaVuSans-2e" x="63.623047"/>
       <use xlink:href="#DejaVuSans-38" x="95.410156"/>
      </g>
     </g>
    </g>
    <g id="ytick_6">
     <g id="line2d_9">
      <g>
       <use xlink:href="#m87fd0d841d" x="63" y="233.28" style="stroke: #000000; stroke-width: 0.8"/>
      </g>
     </g>
     <g id="text_30">
      <!-- 1.0 -->
      <g transform="translate(40.096875 237.079219) scale(0.1 -0.1)">
       <use xlink:href="#DejaVuSans-31"/>
       <use xlink:href="#DejaVuSans-2e" x="63.623047"/>
       <use xlink:href="#DejaVuSans-30" x="95.410156"/>
      </g>
     </g>
    </g>
   </g>
   <g id="patch_91">
    <path d="M 63 384.48 
L 63 233.28 
" style="fill: none; stroke: #000000; stroke-width: 0.8; stroke-linejoin: miter; stroke-linecap: square"/>
   </g>
   <g id="patch_92">
    <path d="M 177.882353 384.48 
L 177.882353 233.28 
" style="fill: none; stroke: #000000; stroke-width: 0.8; stroke-linejoin: miter; stroke-linecap: square"/>
   </g>
   <g id="patch_93">
    <path d="M 63 384.48 
L 177.882353 384.48 
" style="fill: none; stroke: #000000; stroke-width: 0.8; stroke-linejoin: miter; stroke-linecap: square"/>
   </g>
   <g id="patch_94">
    <path d="M 63 233.28 
L 177.882353 233.28 
" style="fill: none; stroke: #000000; stroke-width: 0.8; stroke-linejoin: miter; stroke-linecap: square"/>
   </g>
  </g>
  <g id="axes_5">
   <g id="patch_95">
    <path d="M 200.858824 384.48 
L 315.741176 384.48 
L 315.741176 233.28 
L 200.858824 233.28 
z
" style="fill: #ffffff"/>
   </g>
   <g id="matplotlib.axis_9">
    <g id="xtick_4">
     <g id="line2d_10">
      <g>
       <use xlink:href="#me5ec963c86" x="200.858824" y="384.48" style="stroke: #000000; stroke-width: 0.8"/>
      </g>
     </g>
     <g id="text_31">
      <!-- 0.0 -->
      <g transform="translate(192.907261 399.078438) scale(0.1 -0.1)">
       <use xlink:href="#DejaVuSans-30"/>
       <use xlink:href="#DejaVuSans-2e" x="63.623047"/>
       <use xlink:href="#DejaVuSans-30" x="95.410156"/>
      </g>
     </g>
    </g>
    <g id="xtick_5">
     <g id="line2d_11">
      <g>
       <use xlink:href="#me5ec963c86" x="258.3" y="384.48" style="stroke: #000000; stroke-width: 0.8"/>
      </g>
     </g>
     <g id="text_32">
      <!-- 0.5 -->
      <g transform="translate(250.348438 399.078438) scale(0.1 -0.1)">
       <use xlink:href="#DejaVuSans-30"/>
       <use xlink:href="#DejaVuSans-2e" x="63.623047"/>
       <use xlink:href="#DejaVuSans-35" x="95.410156"/>
      </g>
     </g>
    </g>
    <g id="xtick_6">
     <g id="line2d_12">
      <g>
       <use xlink:href="#me5ec963c86" x="315.741176" y="384.48" style="stroke: #000000; stroke-width: 0.8"/>
      </g>
     </g>
     <g id="text_33">
      <!-- 1.0 -->
      <g transform="translate(307.789614 399.078438) scale(0.1 -0.1)">
       <use xlink:href="#DejaVuSans-31"/>
       <use xlink:href="#DejaVuSans-2e" x="63.623047"/>
       <use xlink:href="#DejaVuSans-30" x="95.410156"/>
      </g>
     </g>
    </g>
   </g>
   <g id="matplotlib.axis_10">
    <g id="ytick_7">
     <g id="line2d_13">
      <g>
       <use xlink:href="#m87fd0d841d" x="200.858824" y="384.48" style="stroke: #000000; stroke-width: 0.8"/>
      </g>
     </g>
     <g id="text_34">
      <!-- 0.0 -->
      <g transform="translate(177.955699 388.279219) scale(0.1 -0.1)">
       <use xlink:href="#DejaVuSans-30"/>
       <use xlink:href="#DejaVuSans-2e" x="63.623047"/>
       <use xlink:href="#DejaVuSans-30" x="95.410156"/>
      </g>
     </g>
    </g>
    <g id="ytick_8">
     <g id="line2d_14">
      <g>
       <use xlink:href="#m87fd0d841d" x="200.858824" y="354.24" style="stroke: #000000; stroke-width: 0.8"/>
      </g>
     </g>
     <g id="text_35">
      <!-- 0.2 -->
      <g transform="translate(177.955699 358.039219) scale(0.1 -0.1)">
       <use xlink:href="#DejaVuSans-30"/>
       <use xlink:href="#DejaVuSans-2e" x="63.623047"/>
       <use xlink:href="#DejaVuSans-32" x="95.410156"/>
      </g>
     </g>
    </g>
    <g id="ytick_9">
     <g id="line2d_15">
      <g>
       <use xlink:href="#m87fd0d841d" x="200.858824" y="324" style="stroke: #000000; stroke-width: 0.8"/>
      </g>
     </g>
     <g id="text_36">
      <!-- 0.4 -->
      <g transform="translate(177.955699 327.799219) scale(0.1 -0.1)">
       <use xlink:href="#DejaVuSans-30"/>
       <use xlink:href="#DejaVuSans-2e" x="63.623047"/>
       <use xlink:href="#DejaVuSans-34" x="95.410156"/>
      </g>
     </g>
    </g>
    <g id="ytick_10">
     <g id="line2d_16">
      <g>
       <use xlink:href="#m87fd0d841d" x="200.858824" y="293.76" style="stroke: #000000; stroke-width: 0.8"/>
      </g>
     </g>
     <g id="text_37">
      <!-- 0.6 -->
      <g transform="translate(177.955699 297.559219) scale(0.1 -0.1)">
       <use xlink:href="#DejaVuSans-30"/>
       <use xlink:href="#DejaVuSans-2e" x="63.623047"/>
       <use xlink:href="#DejaVuSans-36" x="95.410156"/>
      </g>
     </g>
    </g>
    <g id="ytick_11">
     <g id="line2d_17">
      <g>
       <use xlink:href="#m87fd0d841d" x="200.858824" y="263.52" style="stroke: #000000; stroke-width: 0.8"/>
      </g>
     </g>
     <g id="text_38">
      <!-- 0.8 -->
      <g transform="translate(177.955699 267.319219) scale(0.1 -0.1)">
       <use xlink:href="#DejaVuSans-30"/>
       <use xlink:href="#DejaVuSans-2e" x="63.623047"/>
       <use xlink:href="#DejaVuSans-38" x="95.410156"/>
      </g>
     </g>
    </g>
    <g id="ytick_12">
     <g id="line2d_18">
      <g>
       <use xlink:href="#m87fd0d841d" x="200.858824" y="233.28" style="stroke: #000000; stroke-width: 0.8"/>
      </g>
     </g>
     <g id="text_39">
      <!-- 1.0 -->
      <g transform="translate(177.955699 237.079219) scale(0.1 -0.1)">
       <use xlink:href="#DejaVuSans-31"/>
       <use xlink:href="#DejaVuSans-2e" x="63.623047"/>
       <use xlink:href="#DejaVuSans-30" x="95.410156"/>
      </g>
     </g>
    </g>
   </g>
   <g id="patch_96">
    <path d="M 200.858824 384.48 
L 200.858824 233.28 
" style="fill: none; stroke: #000000; stroke-width: 0.8; stroke-linejoin: miter; stroke-linecap: square"/>
   </g>
   <g id="patch_97">
    <path d="M 315.741176 384.48 
L 315.741176 233.28 
" style="fill: none; stroke: #000000; stroke-width: 0.8; stroke-linejoin: miter; stroke-linecap: square"/>
   </g>
   <g id="patch_98">
    <path d="M 200.858824 384.48 
L 315.741176 384.48 
" style="fill: none; stroke: #000000; stroke-width: 0.8; stroke-linejoin: miter; stroke-linecap: square"/>
   </g>
   <g id="patch_99">
    <path d="M 200.858824 233.28 
L 315.741176 233.28 
" style="fill: none; stroke: #000000; stroke-width: 0.8; stroke-linejoin: miter; stroke-linecap: square"/>
   </g>
  </g>
  <g id="axes_6">
   <g id="patch_100">
    <path d="M 338.717647 384.48 
L 453.6 384.48 
L 453.6 233.28 
L 338.717647 233.28 
z
" style="fill: #ffffff"/>
   </g>
   <g id="matplotlib.axis_11">
    <g id="xtick_7">
     <g id="line2d_19">
      <g>
       <use xlink:href="#me5ec963c86" x="338.717647" y="384.48" style="stroke: #000000; stroke-width: 0.8"/>
      </g>
     </g>
     <g id="text_40">
      <!-- 0.0 -->
      <g transform="translate(330.766085 399.078438) scale(0.1 -0.1)">
       <use xlink:href="#DejaVuSans-30"/>
       <use xlink:href="#DejaVuSans-2e" x="63.623047"/>
       <use xlink:href="#DejaVuSans-30" x="95.410156"/>
      </g>
     </g>
    </g>
    <g id="xtick_8">
     <g id="line2d_20">
      <g>
       <use xlink:href="#me5ec963c86" x="396.158824" y="384.48" style="stroke: #000000; stroke-width: 0.8"/>
      </g>
     </g>
     <g id="text_41">
      <!-- 0.5 -->
      <g transform="translate(388.207261 399.078438) scale(0.1 -0.1)">
       <use xlink:href="#DejaVuSans-30"/>
       <use xlink:href="#DejaVuSans-2e" x="63.623047"/>
       <use xlink:href="#DejaVuSans-35" x="95.410156"/>
      </g>
     </g>
    </g>
    <g id="xtick_9">
     <g id="line2d_21">
      <g>
       <use xlink:href="#me5ec963c86" x="453.6" y="384.48" style="stroke: #000000; stroke-width: 0.8"/>
      </g>
     </g>
     <g id="text_42">
      <!-- 1.0 -->
      <g transform="translate(445.648438 399.078438) scale(0.1 -0.1)">
       <use xlink:href="#DejaVuSans-31"/>
       <use xlink:href="#DejaVuSans-2e" x="63.623047"/>
       <use xlink:href="#DejaVuSans-30" x="95.410156"/>
      </g>
     </g>
    </g>
   </g>
   <g id="matplotlib.axis_12">
    <g id="ytick_13">
     <g id="line2d_22">
      <g>
       <use xlink:href="#m87fd0d841d" x="338.717647" y="384.48" style="stroke: #000000; stroke-width: 0.8"/>
      </g>
     </g>
     <g id="text_43">
      <!-- 0.0 -->
      <g transform="translate(315.814522 388.279219) scale(0.1 -0.1)">
       <use xlink:href="#DejaVuSans-30"/>
       <use xlink:href="#DejaVuSans-2e" x="63.623047"/>
       <use xlink:href="#DejaVuSans-30" x="95.410156"/>
      </g>
     </g>
    </g>
    <g id="ytick_14">
     <g id="line2d_23">
      <g>
       <use xlink:href="#m87fd0d841d" x="338.717647" y="354.24" style="stroke: #000000; stroke-width: 0.8"/>
      </g>
     </g>
     <g id="text_44">
      <!-- 0.2 -->
      <g transform="translate(315.814522 358.039219) scale(0.1 -0.1)">
       <use xlink:href="#DejaVuSans-30"/>
       <use xlink:href="#DejaVuSans-2e" x="63.623047"/>
       <use xlink:href="#DejaVuSans-32" x="95.410156"/>
      </g>
     </g>
    </g>
    <g id="ytick_15">
     <g id="line2d_24">
      <g>
       <use xlink:href="#m87fd0d841d" x="338.717647" y="324" style="stroke: #000000; stroke-width: 0.8"/>
      </g>
     </g>
     <g id="text_45">
      <!-- 0.4 -->
      <g transform="translate(315.814522 327.799219) scale(0.1 -0.1)">
       <use xlink:href="#DejaVuSans-30"/>
       <use xlink:href="#DejaVuSans-2e" x="63.623047"/>
       <use xlink:href="#DejaVuSans-34" x="95.410156"/>
      </g>
     </g>
    </g>
    <g id="ytick_16">
     <g id="line2d_25">
      <g>
       <use xlink:href="#m87fd0d841d" x="338.717647" y="293.76" style="stroke: #000000; stroke-width: 0.8"/>
      </g>
     </g>
     <g id="text_46">
      <!-- 0.6 -->
      <g transform="translate(315.814522 297.559219) scale(0.1 -0.1)">
       <use xlink:href="#DejaVuSans-30"/>
       <use xlink:href="#DejaVuSans-2e" x="63.623047"/>
       <use xlink:href="#DejaVuSans-36" x="95.410156"/>
      </g>
     </g>
    </g>
    <g id="ytick_17">
     <g id="line2d_26">
      <g>
       <use xlink:href="#m87fd0d841d" x="338.717647" y="263.52" style="stroke: #000000; stroke-width: 0.8"/>
      </g>
     </g>
     <g id="text_47">
      <!-- 0.8 -->
      <g transform="translate(315.814522 267.319219) scale(0.1 -0.1)">
       <use xlink:href="#DejaVuSans-30"/>
       <use xlink:href="#DejaVuSans-2e" x="63.623047"/>
       <use xlink:href="#DejaVuSans-38" x="95.410156"/>
      </g>
     </g>
    </g>
    <g id="ytick_18">
     <g id="line2d_27">
      <g>
       <use xlink:href="#m87fd0d841d" x="338.717647" y="233.28" style="stroke: #000000; stroke-width: 0.8"/>
      </g>
     </g>
     <g id="text_48">
      <!-- 1.0 -->
      <g transform="translate(315.814522 237.079219) scale(0.1 -0.1)">
       <use xlink:href="#DejaVuSans-31"/>
       <use xlink:href="#DejaVuSans-2e" x="63.623047"/>
       <use xlink:href="#DejaVuSans-30" x="95.410156"/>
      </g>
     </g>
    </g>
   </g>
   <g id="patch_101">
    <path d="M 338.717647 384.48 
L 338.717647 233.28 
" style="fill: none; stroke: #000000; stroke-width: 0.8; stroke-linejoin: miter; stroke-linecap: square"/>
   </g>
   <g id="patch_102">
    <path d="M 453.6 384.48 
L 453.6 233.28 
" style="fill: none; stroke: #000000; stroke-width: 0.8; stroke-linejoin: miter; stroke-linecap: square"/>
   </g>
   <g id="patch_103">
    <path d="M 338.717647 384.48 
L 453.6 384.48 
" style="fill: none; stroke: #000000; stroke-width: 0.8; stroke-linejoin: miter; stroke-linecap: square"/>
   </g>
   <g id="patch_104">
    <path d="M 338.717647 233.28 
L 453.6 233.28 
" style="fill: none; stroke: #000000; stroke-width: 0.8; stroke-linejoin: miter; stroke-linecap: square"/>
   </g>
  </g>
 </g>
</svg>
