<?xml version="1.0" encoding="utf-8" standalone="no"?>
<!DOCTYPE svg PUBLIC "-//W3C//DTD SVG 1.1//EN"
  "http://www.w3.org/Graphics/SVG/1.1/DTD/svg11.dtd">
<svg xmlns:xlink="http://www.w3.org/1999/xlink" width="842.775pt" height="265.28875pt" viewBox="0 0 842.775 265.28875" xmlns="http://www.w3.org/2000/svg" version="1.1">
 <metadata>
  <rdf:RDF xmlns:dc="http://purl.org/dc/elements/1.1/" xmlns:cc="http://creativecommons.org/ns#" xmlns:rdf="http://www.w3.org/1999/02/22-rdf-syntax-ns#">
   <cc:Work>
    <dc:type rdf:resource="http://purl.org/dc/dcmitype/StillImage"/>
    <dc:date>2024-08-26T21:36:18.409748</dc:date>
    <dc:format>image/svg+xml</dc:format>
    <dc:creator>
     <cc:Agent>
      <dc:title>Matplotlib v3.8.4, https://matplotlib.org/</dc:title>
     </cc:Agent>
    </dc:creator>
   </cc:Work>
  </rdf:RDF>
 </metadata>
 <defs>
  <style type="text/css">*{stroke-linejoin: round; stroke-linecap: butt}</style>
 </defs>
 <g id="figure_1">
  <g id="patch_1">
   <path d="M 0 265.28875 
L 842.775 265.28875 
L 842.775 0 
L 0 0 
z
" style="fill: #ffffff"/>
  </g>
  <g id="axes_1">
   <g id="patch_2">
    <path d="M 43.865 216.11875 
L 404.61 216.11875 
L 404.61 13.27875 
L 43.865 13.27875 
z
" style="fill: #ffffff"/>
   </g>
   <g id="PolyCollection_1"/>
   <g id="PolyCollection_2"/>
   <g id="PolyCollection_3"/>
   <g id="PolyCollection_4"/>
   <g id="PolyCollection_5"/>
   <g id="PolyCollection_6"/>
   <g id="PolyCollection_7"/>
   <g id="PolyCollection_8"/>
   <g id="matplotlib.axis_1">
    <g id="xtick_1">
     <g id="line2d_1">
      <path d="M 43.865 216.11875 
L 43.865 13.27875 
" clip-path="url(#p9c29537a80)" style="fill: none; stroke: #b0b0b0; stroke-width: 0.8; stroke-linecap: square"/>
     </g>
     <g id="line2d_2">
      <defs>
       <path id="m80c4303965" d="M 0 0 
L 0 3.5 
" style="stroke: #000000; stroke-width: 2"/>
      </defs>
      <g>
       <use xlink:href="#m80c4303965" x="43.865" y="216.11875" style="stroke: #000000; stroke-width: 2"/>
      </g>
     </g>
     <g id="text_1">
      <!-- 0 -->
      <g transform="translate(38.775 235.27625) scale(0.16 -0.16)">
       <defs>
        <path id="DejaVuSans-30" d="M 2034 4250 
Q 1547 4250 1301 3770 
Q 1056 3291 1056 2328 
Q 1056 1369 1301 889 
Q 1547 409 2034 409 
Q 2525 409 2770 889 
Q 3016 1369 3016 2328 
Q 3016 3291 2770 3770 
Q 2525 4250 2034 4250 
z
M 2034 4750 
Q 2819 4750 3233 4129 
Q 3647 3509 3647 2328 
Q 3647 1150 3233 529 
Q 2819 -91 2034 -91 
Q 1250 -91 836 529 
Q 422 1150 422 2328 
Q 422 3509 836 4129 
Q 1250 4750 2034 4750 
z
" transform="scale(0.015625)"/>
       </defs>
       <use xlink:href="#DejaVuSans-30"/>
      </g>
     </g>
    </g>
    <g id="xtick_2">
     <g id="line2d_3">
      <path d="M 124.030556 216.11875 
L 124.030556 13.27875 
" clip-path="url(#p9c29537a80)" style="fill: none; stroke: #b0b0b0; stroke-width: 0.8; stroke-linecap: square"/>
     </g>
     <g id="line2d_4">
      <g>
       <use xlink:href="#m80c4303965" x="124.030556" y="216.11875" style="stroke: #000000; stroke-width: 2"/>
      </g>
     </g>
     <g id="text_2">
      <!-- 2 -->
      <g transform="translate(118.940556 235.27625) scale(0.16 -0.16)">
       <defs>
        <path id="DejaVuSans-32" d="M 1228 531 
L 3431 531 
L 3431 0 
L 469 0 
L 469 531 
Q 828 903 1448 1529 
Q 2069 2156 2228 2338 
Q 2531 2678 2651 2914 
Q 2772 3150 2772 3378 
Q 2772 3750 2511 3984 
Q 2250 4219 1831 4219 
Q 1534 4219 1204 4116 
Q 875 4013 500 3803 
L 500 4441 
Q 881 4594 1212 4672 
Q 1544 4750 1819 4750 
Q 2544 4750 2975 4387 
Q 3406 4025 3406 3419 
Q 3406 3131 3298 2873 
Q 3191 2616 2906 2266 
Q 2828 2175 2409 1742 
Q 1991 1309 1228 531 
z
" transform="scale(0.015625)"/>
       </defs>
       <use xlink:href="#DejaVuSans-32"/>
      </g>
     </g>
    </g>
    <g id="xtick_3">
     <g id="line2d_5">
      <path d="M 204.196111 216.11875 
L 204.196111 13.27875 
" clip-path="url(#p9c29537a80)" style="fill: none; stroke: #b0b0b0; stroke-width: 0.8; stroke-linecap: square"/>
     </g>
     <g id="line2d_6">
      <g>
       <use xlink:href="#m80c4303965" x="204.196111" y="216.11875" style="stroke: #000000; stroke-width: 2"/>
      </g>
     </g>
     <g id="text_3">
      <!-- 4 -->
      <g transform="translate(199.106111 235.27625) scale(0.16 -0.16)">
       <defs>
        <path id="DejaVuSans-34" d="M 2419 4116 
L 825 1625 
L 2419 1625 
L 2419 4116 
z
M 2253 4666 
L 3047 4666 
L 3047 1625 
L 3713 1625 
L 3713 1100 
L 3047 1100 
L 3047 0 
L 2419 0 
L 2419 1100 
L 313 1100 
L 313 1709 
L 2253 4666 
z
" transform="scale(0.015625)"/>
       </defs>
       <use xlink:href="#DejaVuSans-34"/>
      </g>
     </g>
    </g>
    <g id="xtick_4">
     <g id="line2d_7">
      <path d="M 284.361667 216.11875 
L 284.361667 13.27875 
" clip-path="url(#p9c29537a80)" style="fill: none; stroke: #b0b0b0; stroke-width: 0.8; stroke-linecap: square"/>
     </g>
     <g id="line2d_8">
      <g>
       <use xlink:href="#m80c4303965" x="284.361667" y="216.11875" style="stroke: #000000; stroke-width: 2"/>
      </g>
     </g>
     <g id="text_4">
      <!-- 6 -->
      <g transform="translate(279.271667 235.27625) scale(0.16 -0.16)">
       <defs>
        <path id="DejaVuSans-36" d="M 2113 2584 
Q 1688 2584 1439 2293 
Q 1191 2003 1191 1497 
Q 1191 994 1439 701 
Q 1688 409 2113 409 
Q 2538 409 2786 701 
Q 3034 994 3034 1497 
Q 3034 2003 2786 2293 
Q 2538 2584 2113 2584 
z
M 3366 4563 
L 3366 3988 
Q 3128 4100 2886 4159 
Q 2644 4219 2406 4219 
Q 1781 4219 1451 3797 
Q 1122 3375 1075 2522 
Q 1259 2794 1537 2939 
Q 1816 3084 2150 3084 
Q 2853 3084 3261 2657 
Q 3669 2231 3669 1497 
Q 3669 778 3244 343 
Q 2819 -91 2113 -91 
Q 1303 -91 875 529 
Q 447 1150 447 2328 
Q 447 3434 972 4092 
Q 1497 4750 2381 4750 
Q 2619 4750 2861 4703 
Q 3103 4656 3366 4563 
z
" transform="scale(0.015625)"/>
       </defs>
       <use xlink:href="#DejaVuSans-36"/>
      </g>
     </g>
    </g>
    <g id="xtick_5">
     <g id="line2d_9">
      <path d="M 364.527222 216.11875 
L 364.527222 13.27875 
" clip-path="url(#p9c29537a80)" style="fill: none; stroke: #b0b0b0; stroke-width: 0.8; stroke-linecap: square"/>
     </g>
     <g id="line2d_10">
      <g>
       <use xlink:href="#m80c4303965" x="364.527222" y="216.11875" style="stroke: #000000; stroke-width: 2"/>
      </g>
     </g>
     <g id="text_5">
      <!-- 8 -->
      <g transform="translate(359.437222 235.27625) scale(0.16 -0.16)">
       <defs>
        <path id="DejaVuSans-38" d="M 2034 2216 
Q 1584 2216 1326 1975 
Q 1069 1734 1069 1313 
Q 1069 891 1326 650 
Q 1584 409 2034 409 
Q 2484 409 2743 651 
Q 3003 894 3003 1313 
Q 3003 1734 2745 1975 
Q 2488 2216 2034 2216 
z
M 1403 2484 
Q 997 2584 770 2862 
Q 544 3141 544 3541 
Q 544 4100 942 4425 
Q 1341 4750 2034 4750 
Q 2731 4750 3128 4425 
Q 3525 4100 3525 3541 
Q 3525 3141 3298 2862 
Q 3072 2584 2669 2484 
Q 3125 2378 3379 2068 
Q 3634 1759 3634 1313 
Q 3634 634 3220 271 
Q 2806 -91 2034 -91 
Q 1263 -91 848 271 
Q 434 634 434 1313 
Q 434 1759 690 2068 
Q 947 2378 1403 2484 
z
M 1172 3481 
Q 1172 3119 1398 2916 
Q 1625 2713 2034 2713 
Q 2441 2713 2670 2916 
Q 2900 3119 2900 3481 
Q 2900 3844 2670 4047 
Q 2441 4250 2034 4250 
Q 1625 4250 1398 4047 
Q 1172 3844 1172 3481 
z
" transform="scale(0.015625)"/>
       </defs>
       <use xlink:href="#DejaVuSans-38"/>
      </g>
     </g>
    </g>
    <g id="text_6">
     <!-- Tokens -->
     <g transform="translate(197.31375 254.76125) scale(0.16 -0.16)">
      <defs>
       <path id="DejaVuSans-54" d="M -19 4666 
L 3928 4666 
L 3928 4134 
L 2272 4134 
L 2272 0 
L 1638 0 
L 1638 4134 
L -19 4134 
L -19 4666 
z
" transform="scale(0.015625)"/>
       <path id="DejaVuSans-6f" d="M 1959 3097 
Q 1497 3097 1228 2736 
Q 959 2375 959 1747 
Q 959 1119 1226 758 
Q 1494 397 1959 397 
Q 2419 397 2687 759 
Q 2956 1122 2956 1747 
Q 2956 2369 2687 2733 
Q 2419 3097 1959 3097 
z
M 1959 3584 
Q 2709 3584 3137 3096 
Q 3566 2609 3566 1747 
Q 3566 888 3137 398 
Q 2709 -91 1959 -91 
Q 1206 -91 779 398 
Q 353 888 353 1747 
Q 353 2609 779 3096 
Q 1206 3584 1959 3584 
z
" transform="scale(0.015625)"/>
       <path id="DejaVuSans-6b" d="M 581 4863 
L 1159 4863 
L 1159 1991 
L 2875 3500 
L 3609 3500 
L 1753 1863 
L 3688 0 
L 2938 0 
L 1159 1709 
L 1159 0 
L 581 0 
L 581 4863 
z
" transform="scale(0.015625)"/>
       <path id="DejaVuSans-65" d="M 3597 1894 
L 3597 1613 
L 953 1613 
Q 991 1019 1311 708 
Q 1631 397 2203 397 
Q 2534 397 2845 478 
Q 3156 559 3463 722 
L 3463 178 
Q 3153 47 2828 -22 
Q 2503 -91 2169 -91 
Q 1331 -91 842 396 
Q 353 884 353 1716 
Q 353 2575 817 3079 
Q 1281 3584 2069 3584 
Q 2775 3584 3186 3129 
Q 3597 2675 3597 1894 
z
M 3022 2063 
Q 3016 2534 2758 2815 
Q 2500 3097 2075 3097 
Q 1594 3097 1305 2825 
Q 1016 2553 972 2059 
L 3022 2063 
z
" transform="scale(0.015625)"/>
       <path id="DejaVuSans-6e" d="M 3513 2113 
L 3513 0 
L 2938 0 
L 2938 2094 
Q 2938 2591 2744 2837 
Q 2550 3084 2163 3084 
Q 1697 3084 1428 2787 
Q 1159 2491 1159 1978 
L 1159 0 
L 581 0 
L 581 3500 
L 1159 3500 
L 1159 2956 
Q 1366 3272 1645 3428 
Q 1925 3584 2291 3584 
Q 2894 3584 3203 3211 
Q 3513 2838 3513 2113 
z
" transform="scale(0.015625)"/>
       <path id="DejaVuSans-73" d="M 2834 3397 
L 2834 2853 
Q 2591 2978 2328 3040 
Q 2066 3103 1784 3103 
Q 1356 3103 1142 2972 
Q 928 2841 928 2578 
Q 928 2378 1081 2264 
Q 1234 2150 1697 2047 
L 1894 2003 
Q 2506 1872 2764 1633 
Q 3022 1394 3022 966 
Q 3022 478 2636 193 
Q 2250 -91 1575 -91 
Q 1294 -91 989 -36 
Q 684 19 347 128 
L 347 722 
Q 666 556 975 473 
Q 1284 391 1588 391 
Q 1994 391 2212 530 
Q 2431 669 2431 922 
Q 2431 1156 2273 1281 
Q 2116 1406 1581 1522 
L 1381 1569 
Q 847 1681 609 1914 
Q 372 2147 372 2553 
Q 372 3047 722 3315 
Q 1072 3584 1716 3584 
Q 2034 3584 2315 3537 
Q 2597 3491 2834 3397 
z
" transform="scale(0.015625)"/>
      </defs>
      <use xlink:href="#DejaVuSans-54"/>
      <use xlink:href="#DejaVuSans-6f" x="44.083984"/>
      <use xlink:href="#DejaVuSans-6b" x="105.265625"/>
      <use xlink:href="#DejaVuSans-65" x="159.550781"/>
      <use xlink:href="#DejaVuSans-6e" x="221.074219"/>
      <use xlink:href="#DejaVuSans-73" x="284.453125"/>
     </g>
    </g>
    <g id="text_7">
     <!-- 1e9 -->
     <g transform="translate(374.405 253.76125) scale(0.16 -0.16)">
      <defs>
       <path id="DejaVuSans-31" d="M 794 531 
L 1825 531 
L 1825 4091 
L 703 3866 
L 703 4441 
L 1819 4666 
L 2450 4666 
L 2450 531 
L 3481 531 
L 3481 0 
L 794 0 
L 794 531 
z
" transform="scale(0.015625)"/>
       <path id="DejaVuSans-39" d="M 703 97 
L 703 672 
Q 941 559 1184 500 
Q 1428 441 1663 441 
Q 2288 441 2617 861 
Q 2947 1281 2994 2138 
Q 2813 1869 2534 1725 
Q 2256 1581 1919 1581 
Q 1219 1581 811 2004 
Q 403 2428 403 3163 
Q 403 3881 828 4315 
Q 1253 4750 1959 4750 
Q 2769 4750 3195 4129 
Q 3622 3509 3622 2328 
Q 3622 1225 3098 567 
Q 2575 -91 1691 -91 
Q 1453 -91 1209 -44 
Q 966 3 703 97 
z
M 1959 2075 
Q 2384 2075 2632 2365 
Q 2881 2656 2881 3163 
Q 2881 3666 2632 3958 
Q 2384 4250 1959 4250 
Q 1534 4250 1286 3958 
Q 1038 3666 1038 3163 
Q 1038 2656 1286 2365 
Q 1534 2075 1959 2075 
z
" transform="scale(0.015625)"/>
      </defs>
      <use xlink:href="#DejaVuSans-31"/>
      <use xlink:href="#DejaVuSans-65" x="63.623047"/>
      <use xlink:href="#DejaVuSans-39" x="125.146484"/>
     </g>
    </g>
   </g>
   <g id="matplotlib.axis_2">
    <g id="ytick_1">
     <g id="line2d_11">
      <path d="M 43.865 207.345021 
L 404.61 207.345021 
" clip-path="url(#p9c29537a80)" style="fill: none; stroke: #b0b0b0; stroke-width: 0.8; stroke-linecap: square"/>
     </g>
     <g id="line2d_12">
      <defs>
       <path id="mcd066f0821" d="M 0 0 
L -3.5 0 
" style="stroke: #000000; stroke-width: 2"/>
      </defs>
      <g>
       <use xlink:href="#mcd066f0821" x="43.865" y="207.345021" style="stroke: #000000; stroke-width: 2"/>
      </g>
     </g>
     <g id="text_8">
      <!-- 0 -->
      <g transform="translate(26.685 213.423771) scale(0.16 -0.16)">
       <use xlink:href="#DejaVuSans-30"/>
      </g>
     </g>
    </g>
    <g id="ytick_2">
     <g id="line2d_13">
      <path d="M 43.865 167.095854 
L 404.61 167.095854 
" clip-path="url(#p9c29537a80)" style="fill: none; stroke: #b0b0b0; stroke-width: 0.8; stroke-linecap: square"/>
     </g>
     <g id="line2d_14">
      <g>
       <use xlink:href="#mcd066f0821" x="43.865" y="167.095854" style="stroke: #000000; stroke-width: 2"/>
      </g>
     </g>
     <g id="text_9">
      <!-- 2 -->
      <g transform="translate(26.685 173.174604) scale(0.16 -0.16)">
       <use xlink:href="#DejaVuSans-32"/>
      </g>
     </g>
    </g>
    <g id="ytick_3">
     <g id="line2d_15">
      <path d="M 43.865 126.846686 
L 404.61 126.846686 
" clip-path="url(#p9c29537a80)" style="fill: none; stroke: #b0b0b0; stroke-width: 0.8; stroke-linecap: square"/>
     </g>
     <g id="line2d_16">
      <g>
       <use xlink:href="#mcd066f0821" x="43.865" y="126.846686" style="stroke: #000000; stroke-width: 2"/>
      </g>
     </g>
     <g id="text_10">
      <!-- 4 -->
      <g transform="translate(26.685 132.925436) scale(0.16 -0.16)">
       <use xlink:href="#DejaVuSans-34"/>
      </g>
     </g>
    </g>
    <g id="ytick_4">
     <g id="line2d_17">
      <path d="M 43.865 86.597519 
L 404.61 86.597519 
" clip-path="url(#p9c29537a80)" style="fill: none; stroke: #b0b0b0; stroke-width: 0.8; stroke-linecap: square"/>
     </g>
     <g id="line2d_18">
      <g>
       <use xlink:href="#mcd066f0821" x="43.865" y="86.597519" style="stroke: #000000; stroke-width: 2"/>
      </g>
     </g>
     <g id="text_11">
      <!-- 6 -->
      <g transform="translate(26.685 92.676269) scale(0.16 -0.16)">
       <use xlink:href="#DejaVuSans-36"/>
      </g>
     </g>
    </g>
    <g id="ytick_5">
     <g id="line2d_19">
      <path d="M 43.865 46.348352 
L 404.61 46.348352 
" clip-path="url(#p9c29537a80)" style="fill: none; stroke: #b0b0b0; stroke-width: 0.8; stroke-linecap: square"/>
     </g>
     <g id="line2d_20">
      <g>
       <use xlink:href="#mcd066f0821" x="43.865" y="46.348352" style="stroke: #000000; stroke-width: 2"/>
      </g>
     </g>
     <g id="text_12">
      <!-- 8 -->
      <g transform="translate(26.685 52.427102) scale(0.16 -0.16)">
       <use xlink:href="#DejaVuSans-38"/>
      </g>
     </g>
    </g>
    <g id="text_13">
     <!-- Loss -->
     <g transform="translate(19.3575 132.24625) rotate(-90) scale(0.16 -0.16)">
      <defs>
       <path id="DejaVuSans-4c" d="M 628 4666 
L 1259 4666 
L 1259 531 
L 3531 531 
L 3531 0 
L 628 0 
L 628 4666 
z
" transform="scale(0.015625)"/>
      </defs>
      <use xlink:href="#DejaVuSans-4c"/>
      <use xlink:href="#DejaVuSans-6f" x="53.962891"/>
      <use xlink:href="#DejaVuSans-73" x="115.144531"/>
      <use xlink:href="#DejaVuSans-73" x="167.244141"/>
     </g>
    </g>
   </g>
   <g id="line2d_21">
    <path d="M 43.865 178.483696 
L 44.442192 178.80374 
L 45.019384 178.903576 
L 45.596576 178.808447 
L 47.328152 179.091047 
L 47.905344 178.998344 
L 48.482536 179.262796 
L 49.63692 179.456037 
L 50.214112 179.480145 
L 50.791304 179.633323 
L 51.368496 179.930999 
L 51.945688 179.835051 
L 52.52288 179.903793 
L 53.100072 180.226459 
L 53.677264 180.193083 
L 54.254456 180.334132 
L 54.831648 180.233517 
L 55.40884 180.522963 
L 56.563224 180.489297 
L 57.717608 180.872929 
L 59.449184 180.891708 
L 60.026376 181.162535 
L 60.603568 181.066678 
L 61.757952 181.061609 
L 62.335144 181.369648 
L 62.912336 181.274194 
L 63.489528 181.462327 
L 64.06672 181.29094 
L 64.643912 181.639315 
L 65.221104 181.487492 
L 65.798296 181.647244 
L 66.375488 181.422833 
L 66.95268 181.827465 
L 67.529872 181.671239 
L 68.684256 181.737711 
L 69.261448 182.080742 
L 69.83864 181.772555 
L 71.570216 182.184175 
L 72.147408 182.048453 
L 73.301792 182.159801 
L 73.878984 182.283042 
L 76.187752 182.348875 
L 81.38248 182.778513 
L 81.959672 182.585622 
L 83.114056 182.904398 
L 83.691248 182.696183 
L 84.26844 182.961716 
L 84.845632 182.687184 
L 85.422824 183.001923 
L 87.1544 182.992489 
L 87.731592 183.222105 
L 88.308784 183.027604 
L 91.194744 183.287682 
L 91.771936 183.148189 
L 92.349128 183.367587 
L 92.92632 183.400222 
L 93.503512 183.2435 
L 97.543856 183.53347 
L 98.121048 183.485401 
L 98.69824 183.595198 
L 99.852624 183.529656 
L 100.429816 183.717499 
L 101.007008 183.542413 
L 101.5842 183.811477 
L 102.738584 183.666365 
L 103.892968 183.989734 
L 104.47016 183.634947 
L 105.047352 183.833892 
L 105.624544 183.748859 
L 106.201736 184.02429 
L 106.778928 183.807077 
L 107.35612 183.784948 
L 108.510504 184.003893 
L 109.664888 183.93571 
L 110.24208 184.015682 
L 110.819272 183.918881 
L 111.396464 184.18569 
L 111.973656 183.964977 
L 112.550848 184.148747 
L 113.12804 184.211981 
L 113.705232 184.079731 
L 116.591192 184.215178 
L 117.168384 184.140346 
L 117.745576 184.374469 
L 118.322768 184.202661 
L 118.89996 184.326804 
L 119.477152 184.289822 
L 120.054344 184.387457 
L 121.208728 184.234256 
L 122.363112 184.446137 
L 124.094688 184.457305 
L 125.249072 184.496734 
L 125.826264 184.440646 
L 126.980648 184.592381 
L 128.135032 184.483735 
L 128.712224 184.61332 
L 131.020992 184.649059 
L 131.598184 184.736379 
L 132.175376 184.637901 
L 133.32976 184.64445 
L 133.906952 184.864063 
L 134.484144 184.678241 
L 135.061336 184.632981 
L 135.638528 184.823956 
L 136.792912 184.822899 
L 137.370104 184.720386 
L 137.947296 184.796981 
L 138.524488 185.008738 
L 139.10168 184.7338 
L 139.678872 184.78393 
L 140.256064 184.965299 
L 140.833256 184.964256 
L 141.410448 184.816189 
L 143.142024 184.983331 
L 144.296408 184.896658 
L 144.8736 185.057015 
L 146.027984 185.089738 
L 146.605176 184.924576 
L 147.182368 185.10816 
L 147.75956 185.150062 
L 148.336752 185.027858 
L 151.799904 185.131955 
L 152.377096 185.255468 
L 152.954288 185.123843 
L 155.263056 185.213157 
L 155.840248 185.152235 
L 156.41744 185.235507 
L 156.994632 185.437195 
L 158.149016 185.178982 
L 158.726208 185.367128 
L 159.3034 185.390612 
L 160.457784 185.189887 
L 161.034976 185.474487 
L 161.612168 185.272398 
L 164.498128 185.482799 
L 165.07532 185.348981 
L 165.652512 185.577923 
L 166.229704 185.405357 
L 166.806896 185.504487 
L 167.384088 185.403659 
L 168.538472 185.590354 
L 170.270048 185.487135 
L 171.424432 185.580834 
L 172.001624 185.63532 
L 172.578816 185.531341 
L 173.156008 185.684939 
L 173.7332 185.502824 
L 174.310392 185.682748 
L 174.887584 185.555073 
L 175.464776 185.746155 
L 176.041968 185.574257 
L 176.61916 185.690825 
L 177.773544 185.638214 
L 178.350736 185.714627 
L 178.927928 185.674383 
L 179.50512 185.827615 
L 180.659504 185.669326 
L 181.236696 185.586215 
L 181.813888 185.817849 
L 183.545464 185.690559 
L 184.122656 185.964756 
L 185.854232 185.683667 
L 186.431424 185.852645 
L 187.585808 185.936118 
L 188.163 185.734382 
L 189.317384 185.98283 
L 189.894576 185.781116 
L 190.471768 185.883769 
L 191.04896 186.108118 
L 192.203344 185.790729 
L 192.780536 185.831933 
L 193.357728 186.064351 
L 193.93492 185.897592 
L 194.512112 185.984642 
L 195.089304 185.905101 
L 196.82088 185.973266 
L 197.398072 185.955667 
L 197.975264 186.140465 
L 198.552456 186.165516 
L 199.129648 185.909387 
L 199.70684 185.933274 
L 200.284032 186.121392 
L 202.015608 185.956499 
L 202.5928 186.14927 
L 203.747184 186.105833 
L 204.324376 185.956438 
L 204.901568 186.258326 
L 207.210336 186.204172 
L 210.096296 186.210015 
L 210.673488 186.281934 
L 211.25068 186.107527 
L 211.827872 186.248428 
L 214.713832 186.268027 
L 215.291024 186.343369 
L 215.868216 186.226061 
L 216.445408 186.363004 
L 217.599792 186.306703 
L 218.754176 186.339247 
L 219.331368 186.411888 
L 220.485752 186.322104 
L 221.062944 186.507184 
L 222.79452 186.324653 
L 223.371712 186.497728 
L 224.526096 186.411922 
L 225.103288 186.268755 
L 225.68048 186.540982 
L 226.257672 186.37678 
L 226.834864 186.475758 
L 227.412056 186.295508 
L 227.989248 186.603698 
L 229.143632 186.411126 
L 230.875208 186.554584 
L 232.029592 186.440033 
L 232.606784 186.636833 
L 233.183976 186.653409 
L 234.33836 186.390343 
L 234.915552 186.75436 
L 235.492744 186.472077 
L 236.069936 186.580548 
L 236.647128 186.507851 
L 237.22432 186.635943 
L 238.378704 186.632327 
L 238.955896 186.531144 
L 239.533088 186.784561 
L 240.11028 186.599261 
L 241.264664 186.603526 
L 241.841856 186.76231 
L 242.419048 186.763261 
L 243.573432 186.502777 
L 244.150624 186.722758 
L 245.305008 186.730135 
L 245.8822 186.623447 
L 246.459392 186.781605 
L 247.036584 186.680225 
L 248.190968 186.777998 
L 249.922544 186.757053 
L 251.076928 186.843867 
L 251.65412 186.715226 
L 253.962888 186.844272 
L 254.54008 186.729716 
L 255.694464 186.967442 
L 256.271656 186.79445 
L 257.42604 186.823866 
L 258.003232 187.000733 
L 258.580424 186.819687 
L 263.775152 186.939676 
L 264.352344 186.884927 
L 264.929536 187.091716 
L 265.506728 187.063818 
L 266.08392 186.86907 
L 267.815496 187.068161 
L 268.392688 186.920272 
L 271.85584 187.061356 
L 272.433032 187.013251 
L 274.164608 187.243708 
L 275.896184 186.871828 
L 276.473376 187.138866 
L 277.050568 187.139647 
L 277.62776 186.945293 
L 278.204952 186.989394 
L 278.782144 187.296969 
L 279.936528 187.078258 
L 282.245296 187.165841 
L 282.822488 187.043469 
L 283.39968 187.308363 
L 283.976872 187.105982 
L 285.131256 187.204544 
L 286.28564 187.313596 
L 286.862832 187.117682 
L 288.594408 187.206404 
L 289.748792 187.192171 
L 290.325984 187.357765 
L 291.480368 187.119419 
L 292.05756 187.360471 
L 292.634752 187.384704 
L 293.211944 187.235491 
L 293.789136 187.363712 
L 294.366328 187.27609 
L 294.94352 187.373151 
L 296.097904 187.201737 
L 296.675096 187.424957 
L 301.292632 187.334991 
L 301.869824 187.534368 
L 302.447016 187.297648 
L 304.178592 187.530966 
L 305.910168 187.366694 
L 306.48736 187.499234 
L 309.37332 187.443865 
L 309.950512 187.376313 
L 310.527704 187.51951 
L 312.836472 187.442392 
L 313.413664 187.612734 
L 314.568048 187.445624 
L 315.722432 187.636489 
L 319.762776 187.529202 
L 320.339968 187.655454 
L 320.91716 187.564844 
L 322.648736 187.632085 
L 323.80312 187.586275 
L 324.380312 187.737903 
L 329.57504 187.542525 
L 330.729424 187.73987 
L 331.306616 187.763597 
L 331.883808 187.673121 
L 332.461 187.71692 
L 333.038192 187.645602 
L 334.769768 187.722427 
L 335.34696 187.627861 
L 337.078536 187.740115 
L 337.655728 187.684 
L 338.810112 187.790097 
L 340.541688 187.766642 
L 341.696072 187.796478 
L 342.273264 187.688556 
L 343.427648 187.819965 
L 344.00484 187.850792 
L 344.582032 187.745319 
L 345.159224 187.759679 
L 345.736416 187.934405 
L 346.313608 187.768936 
L 348.622376 187.83915 
L 349.199568 187.730702 
L 350.353952 187.922719 
L 350.931144 187.919634 
L 351.508336 187.763331 
L 352.66272 187.989792 
L 353.817104 187.836408 
L 354.394296 187.968314 
L 354.971488 187.842572 
L 355.54868 187.984754 
L 356.125872 187.83827 
L 357.280256 187.99627 
L 357.857448 187.856245 
L 359.011832 187.988221 
L 360.166216 188.015476 
L 360.743408 187.853748 
L 361.3206 188.009863 
L 362.474984 188.005599 
L 363.052176 187.928876 
L 363.629368 187.971456 
L 364.20656 188.179861 
L 364.783752 188.0004 
L 365.360944 188.000829 
L 365.938136 188.15139 
L 366.515328 188.014585 
L 368.824096 188.105632 
L 369.97848 187.931303 
L 370.555672 188.169898 
L 372.287248 188.056895 
L 372.86444 188.19756 
L 374.596016 188.047289 
L 375.173208 188.244264 
L 375.7504 188.25336 
L 376.327592 188.096012 
L 377.481976 188.118941 
L 378.059168 188.315566 
L 379.213552 188.071107 
L 379.790744 188.241671 
L 384.40828 188.169233 
L 384.985472 188.390953 
L 385.562664 188.168816 
L 392.488968 188.402228 
L 393.06616 188.21467 
L 394.220544 188.338339 
L 394.797736 188.238607 
L 395.374928 188.450144 
L 395.95212 188.374779 
L 396.529312 188.426721 
L 397.106504 188.29353 
L 399.992464 188.383318 
L 400.569656 188.442896 
L 402.301232 188.369953 
L 403.455616 188.449921 
L 404.61 188.324759 
L 405.764384 188.47591 
L 406.341576 188.485786 
L 406.918768 188.297326 
L 407.49596 188.519968 
L 408.073152 188.559113 
L 408.650344 188.340316 
L 409.227536 188.418596 
L 409.804728 188.349672 
L 410.38192 188.580742 
L 410.959112 188.395805 
L 413.26788 188.4382 
L 413.845072 188.398228 
L 414.422264 188.511092 
L 414.999456 188.498588 
L 415.576648 188.607759 
L 416.15384 188.435683 
L 416.731032 188.579311 
L 417.308224 188.488545 
L 420.194184 188.529796 
L 421.92576 188.578013 
L 422.502952 188.602333 
L 423.080144 188.498912 
L 425.388912 188.682503 
L 426.543296 188.618939 
L 428.274872 188.536223 
L 428.852064 188.677082 
L 430.006448 188.568227 
L 430.58364 188.666174 
L 430.58364 188.666174 
" clip-path="url(#p9c29537a80)" style="fill: none; stroke: #1f77b4; stroke-width: 2; stroke-linecap: square"/>
   </g>
   <g id="line2d_22">
    <path d="M 43.865 178.779592 
L 45.019384 180.271085 
L 45.596576 180.642736 
L 46.173768 182.168132 
L 47.328152 182.728105 
L 47.905344 182.878856 
L 48.482536 184.846695 
L 49.059728 184.718034 
L 49.63692 184.964027 
L 50.214112 185.553012 
L 50.791304 187.907531 
L 51.368496 188.408042 
L 51.945688 188.716659 
L 52.52288 189.388949 
L 53.100072 191.756085 
L 53.677264 191.788515 
L 54.831648 192.354906 
L 55.40884 194.391989 
L 56.563224 194.523012 
L 57.140416 194.805586 
L 57.717608 196.429397 
L 58.871992 196.362174 
L 59.449184 196.445893 
L 60.026376 198.099153 
L 60.603568 197.724887 
L 61.18076 197.650406 
L 61.757952 197.84613 
L 62.335144 199.13986 
L 63.489528 198.731497 
L 64.06672 198.770825 
L 64.643912 200.155085 
L 65.221104 199.653587 
L 66.375488 199.634857 
L 66.95268 200.667291 
L 68.107064 200.262263 
L 68.684256 200.362487 
L 69.261448 201.272149 
L 70.415832 200.765933 
L 70.993024 200.863377 
L 71.570216 201.795001 
L 72.147408 201.419049 
L 72.7246 201.259932 
L 73.301792 201.387785 
L 73.878984 202.148116 
L 74.456176 201.792149 
L 75.033368 201.693258 
L 75.61056 201.786085 
L 76.187752 202.410308 
L 77.342136 202.016886 
L 77.919328 202.098554 
L 78.49652 202.755009 
L 79.073712 202.431418 
L 79.650904 202.342678 
L 80.228096 202.391184 
L 80.805288 202.999859 
L 81.959672 202.549488 
L 82.536864 202.675496 
L 83.114056 203.243349 
L 83.691248 202.981372 
L 84.26844 202.849783 
L 84.845632 202.874333 
L 85.422824 203.443813 
L 86.577208 203.046629 
L 87.1544 203.091322 
L 87.731592 203.593117 
L 88.885976 203.190544 
L 89.463168 203.345433 
L 90.04036 203.73131 
L 91.194744 203.3941 
L 91.771936 203.512417 
L 92.349128 203.918217 
L 93.503512 203.551012 
L 94.080704 203.70359 
L 94.657896 204.040369 
L 95.235088 203.804567 
L 95.81228 203.711734 
L 96.389472 203.843164 
L 96.966664 204.119585 
L 98.121048 203.804738 
L 98.69824 203.947658 
L 99.275432 204.232047 
L 100.429816 203.932985 
L 101.5842 204.311743 
L 102.738584 204.073961 
L 103.892968 204.399366 
L 105.047352 204.15192 
L 106.201736 204.553256 
L 106.778928 204.316046 
L 107.35612 204.259824 
L 108.510504 204.581794 
L 109.664888 204.35343 
L 110.819272 204.653267 
L 111.973656 204.446272 
L 113.12804 204.744498 
L 114.282424 204.515037 
L 115.436808 204.800566 
L 116.591192 204.606137 
L 117.745576 204.871109 
L 118.89996 204.651811 
L 120.054344 204.918493 
L 121.208728 204.728428 
L 122.363112 204.952387 
L 123.517496 204.783289 
L 124.67188 205.009486 
L 125.826264 204.833943 
L 126.980648 205.075178 
L 128.135032 204.878881 
L 129.289416 205.137858 
L 130.4438 204.954039 
L 131.598184 205.148689 
L 132.752568 204.993802 
L 133.32976 205.165757 
L 133.906952 205.201607 
L 135.061336 205.034878 
L 136.21572 205.261653 
L 137.370104 205.089626 
L 137.947296 205.246757 
L 138.524488 205.279504 
L 139.678872 205.141494 
L 140.833256 205.32909 
L 141.98764 205.16628 
L 142.564832 205.332018 
L 143.142024 205.371456 
L 144.296408 205.229694 
L 144.8736 205.365622 
L 146.027984 205.314494 
L 146.605176 205.242692 
L 147.182368 205.417752 
L 148.336752 205.360268 
L 148.913944 205.281232 
L 149.491136 205.440936 
L 150.64552 205.381589 
L 151.222712 205.330213 
L 151.799904 205.477891 
L 152.377096 205.499633 
L 153.53148 205.374409 
L 154.108672 205.525125 
L 158.149016 205.447988 
L 158.726208 205.586272 
L 159.880592 205.482741 
L 160.457784 205.464102 
L 161.034976 205.612705 
L 165.07532 205.503825 
L 165.652512 205.675333 
L 167.384088 205.549374 
L 167.96128 205.711845 
L 169.692856 205.554065 
L 170.270048 205.745355 
L 172.001624 205.603394 
L 172.578816 205.762357 
L 174.310392 205.63309 
L 174.887584 205.78729 
L 176.61916 205.651214 
L 177.196352 205.829481 
L 178.927928 205.662293 
L 179.50512 205.838898 
L 181.236696 205.709356 
L 181.813888 205.853917 
L 185.854232 205.74174 
L 186.431424 205.925251 
L 188.163 205.773129 
L 188.740192 205.941777 
L 190.471768 205.78838 
L 191.04896 205.952169 
L 192.780536 205.825446 
L 193.357728 205.963551 
L 195.089304 205.834279 
L 195.666496 206.001908 
L 197.398072 205.844493 
L 197.975264 206.020457 
L 199.70684 205.872988 
L 200.284032 206.036871 
L 202.015608 205.900631 
L 202.5928 206.071593 
L 203.747184 205.935147 
L 204.324376 205.916125 
L 204.901568 206.079173 
L 206.633144 205.93826 
L 207.210336 206.089604 
L 208.941912 205.956935 
L 209.519104 206.09965 
L 211.25068 205.994207 
L 211.827872 206.11228 
L 213.559448 205.998061 
L 214.13664 206.12259 
L 215.868216 206.01702 
L 216.445408 206.156564 
L 217.599792 206.044414 
L 235.492744 206.205347 
L 236.647128 206.177301 
L 237.22432 206.270461 
L 238.955896 206.193991 
L 239.533088 206.283575 
L 240.687472 206.203662 
L 251.65412 206.290104 
L 255.117272 206.300772 
L 256.271656 206.32052 
L 257.42604 206.31573 
L 258.580424 206.325806 
L 260.889192 206.341839 
L 266.661112 206.373402 
L 267.815496 206.379626 
L 268.96988 206.373509 
L 270.124264 206.385333 
L 271.278648 206.381329 
L 272.433032 206.397896 
L 273.587416 206.406433 
L 274.7418 206.422015 
L 275.896184 206.413128 
L 277.050568 206.422406 
L 278.204952 206.425751 
L 279.359336 206.424326 
L 287.440024 206.474643 
L 290.325984 206.508216 
L 292.05756 206.495033 
L 294.94352 206.5213 
L 298.406672 206.486776 
L 300.138248 206.524561 
L 303.024208 206.511676 
L 304.755784 206.543368 
L 307.641744 206.526669 
L 309.37332 206.558696 
L 312.25928 206.549734 
L 313.990856 206.57264 
L 316.876816 206.570389 
L 319.762776 206.623238 
L 323.80312 206.596306 
L 325.534696 206.6142 
L 328.420656 206.620354 
L 331.883808 206.659821 
L 335.34696 206.626806 
L 337.078536 206.654454 
L 339.964496 206.639469 
L 341.11888 206.678306 
L 349.199568 206.679685 
L 350.931144 206.694509 
L 430.58364 206.894707 
L 430.58364 206.894707 
" clip-path="url(#p9c29537a80)" style="fill: none; stroke-dasharray: 8,3; stroke-dashoffset: 0; stroke: #1f77b4; stroke-width: 2"/>
   </g>
   <g id="line2d_23">
    <path d="M 46.75096 179.566794 
L 52.52288 179.716247 
L 139.10168 179.342775 
L 144.8736 179.328312 
L 147.75956 179.186959 
L 153.53148 179.385641 
L 159.3034 179.268178 
L 167.96128 179.228711 
L 173.7332 179.101751 
L 179.50512 179.309415 
L 182.39108 179.192211 
L 191.04896 179.190074 
L 193.93492 179.142742 
L 199.70684 179.275744 
L 205.47876 179.187327 
L 208.36472 179.294695 
L 234.33836 179.246292 
L 260.312 179.097032 
L 263.19796 179.020042 
L 266.08392 179.207159 
L 274.7418 179.114914 
L 289.1716 179.117957 
L 292.05756 179.142461 
L 294.94352 178.95183 
L 297.82948 179.105694 
L 306.48736 179.104355 
L 309.37332 179.054019 
L 312.25928 179.145465 
L 318.0312 179.10288 
L 430.58364 178.999559 
L 430.58364 178.999559 
" clip-path="url(#p9c29537a80)" style="fill: none; stroke: #ff7f0e; stroke-width: 2; stroke-linecap: square"/>
   </g>
   <g id="line2d_24">
    <path d="M 46.75096 178.01017 
L 49.63692 176.331811 
L 52.52288 176.18536 
L 55.40884 174.602057 
L 58.2948 174.205526 
L 61.18076 173.488218 
L 64.06672 172.462794 
L 66.95268 171.167371 
L 69.83864 170.881883 
L 72.7246 169.143699 
L 75.61056 169.901192 
L 78.49652 166.284447 
L 81.38248 166.133014 
L 84.26844 165.699177 
L 87.1544 165.62085 
L 90.04036 162.362231 
L 92.92632 161.649501 
L 95.81228 160.651919 
L 98.69824 160.751111 
L 101.5842 159.28965 
L 104.47016 157.226151 
L 110.24208 157.140799 
L 113.12804 155.085884 
L 116.014 154.695527 
L 118.89996 154.679171 
L 121.78592 154.915875 
L 124.67188 151.429054 
L 127.55784 152.751059 
L 130.4438 153.265696 
L 133.32976 151.679516 
L 141.98764 148.928994 
L 144.8736 150.058203 
L 147.75956 148.605387 
L 150.64552 147.963076 
L 153.53148 149.119124 
L 156.41744 149.568295 
L 159.3034 145.966035 
L 162.18936 146.197101 
L 165.07532 147.369459 
L 167.96128 147.595125 
L 170.84724 143.91707 
L 173.7332 144.870271 
L 176.61916 144.335878 
L 179.50512 144.498156 
L 185.27704 143.147974 
L 188.163 142.234999 
L 191.04896 142.897983 
L 193.93492 140.44881 
L 196.82088 141.435016 
L 199.70684 141.549478 
L 202.5928 140.922155 
L 205.47876 139.645053 
L 211.25068 140.678402 
L 214.13664 137.840956 
L 217.0226 136.682817 
L 219.90856 137.352518 
L 222.79452 139.05793 
L 225.68048 136.121173 
L 228.56644 136.704762 
L 231.4524 135.601114 
L 234.33836 137.212595 
L 237.22432 134.834205 
L 240.11028 134.957937 
L 245.8822 135.69936 
L 248.76816 132.394974 
L 251.65412 133.153526 
L 254.54008 133.763059 
L 257.42604 133.418494 
L 260.312 129.753768 
L 263.19796 131.170655 
L 266.08392 131.568629 
L 268.96988 131.841625 
L 271.85584 129.234598 
L 274.7418 129.971336 
L 277.62776 130.567071 
L 280.51372 130.521114 
L 283.39968 127.534233 
L 286.28564 127.820586 
L 289.1716 127.813651 
L 292.05756 129.196779 
L 294.94352 125.896571 
L 297.82948 127.020626 
L 300.71544 127.269056 
L 303.6014 126.34043 
L 306.48736 124.183679 
L 309.37332 124.559454 
L 312.25928 125.1106 
L 315.14524 125.015205 
L 318.0312 122.674164 
L 320.91716 122.683485 
L 323.80312 122.315884 
L 326.68908 123.726777 
L 329.57504 120.401203 
L 332.461 121.63594 
L 335.34696 121.994785 
L 338.23292 121.9282 
L 341.11888 119.415648 
L 344.00484 120.723171 
L 346.8908 118.97321 
L 349.77676 119.757098 
L 352.66272 118.102857 
L 355.54868 118.228115 
L 358.43464 117.315186 
L 361.3206 117.759113 
L 364.20656 115.410879 
L 367.09252 115.970488 
L 369.97848 114.81489 
L 372.86444 115.186079 
L 375.7504 113.563735 
L 378.63636 113.624603 
L 381.52232 114.39051 
L 384.40828 113.902065 
L 387.29424 111.58592 
L 390.1802 110.325706 
L 393.06616 111.295963 
L 395.95212 111.651289 
L 398.83808 109.688501 
L 401.72404 109.341573 
L 404.61 109.995714 
L 407.49596 110.410218 
L 410.38192 107.92449 
L 413.26788 106.771848 
L 416.15384 107.628738 
L 419.0398 107.333925 
L 421.92576 105.719324 
L 424.81172 104.872532 
L 427.69768 105.725705 
L 430.58364 103.105752 
L 430.58364 103.105752 
" clip-path="url(#p9c29537a80)" style="fill: none; stroke-dasharray: 8,3; stroke-dashoffset: 0; stroke: #ff7f0e; stroke-width: 2"/>
   </g>
   <g id="line2d_25">
    <path d="M 46.75096 178.4111 
L 52.52288 178.29721 
L 58.2948 178.054316 
L 61.18076 177.995426 
L 64.06672 177.820102 
L 87.1544 177.436796 
L 92.92632 177.283909 
L 95.81228 177.362633 
L 118.89996 176.98854 
L 121.78592 177.034596 
L 127.55784 176.867176 
L 144.8736 176.851139 
L 147.75956 176.71456 
L 150.64552 176.754702 
L 153.53148 176.911159 
L 159.3034 176.751254 
L 167.96128 176.680426 
L 173.7332 176.563665 
L 179.50512 176.718073 
L 182.39108 176.599611 
L 185.27704 176.671602 
L 193.93492 176.538603 
L 199.70684 176.627318 
L 205.47876 176.531213 
L 211.25068 176.639326 
L 214.13664 176.489319 
L 217.0226 176.622704 
L 222.79452 176.543857 
L 231.4524 176.398969 
L 234.33836 176.575295 
L 237.22432 176.546991 
L 240.11028 176.372369 
L 245.8822 176.503887 
L 251.65412 176.373918 
L 254.54008 176.492504 
L 257.42604 176.309397 
L 260.312 176.329503 
L 263.19796 176.200011 
L 266.08392 176.44355 
L 268.96988 176.417217 
L 271.85584 176.239543 
L 274.7418 176.395264 
L 280.51372 176.389909 
L 292.05756 176.332954 
L 294.94352 176.135562 
L 297.82948 176.344048 
L 303.6014 176.365065 
L 309.37332 176.257867 
L 312.25928 176.363786 
L 320.91716 176.290036 
L 323.80312 176.273723 
L 326.68908 176.371733 
L 329.57504 176.167125 
L 332.461 176.279395 
L 344.00484 176.16824 
L 352.66272 176.247073 
L 358.43464 176.13395 
L 367.09252 176.183358 
L 378.63636 176.112448 
L 384.40828 176.110168 
L 393.06616 176.188789 
L 398.83808 176.048668 
L 401.72404 176.134402 
L 407.49596 176.07523 
L 413.26788 176.100392 
L 424.81172 176.021873 
L 430.58364 176.033993 
L 430.58364 176.033993 
" clip-path="url(#p9c29537a80)" style="fill: none; stroke: #2ca02c; stroke-width: 2; stroke-linecap: square"/>
   </g>
   <g id="line2d_26">
    <path d="M 46.75096 175.807236 
L 49.63692 172.85843 
L 52.52288 171.945978 
L 55.40884 169.380563 
L 58.2948 168.64699 
L 61.18076 167.510145 
L 64.06672 166.082404 
L 66.95268 164.20947 
L 69.83864 163.821667 
L 72.7246 161.650831 
L 75.61056 162.255499 
L 78.49652 157.932515 
L 84.26844 156.900746 
L 87.1544 156.605333 
L 90.04036 152.585429 
L 92.92632 151.274913 
L 95.81228 150.171683 
L 98.69824 150.224953 
L 101.5842 148.313206 
L 104.47016 145.636037 
L 110.24208 145.386073 
L 113.12804 142.694847 
L 116.014 142.160087 
L 118.89996 141.969354 
L 121.78592 142.451954 
L 124.67188 137.759188 
L 127.55784 139.389828 
L 130.4438 140.122542 
L 133.32976 138.029626 
L 139.10168 135.525478 
L 141.98764 134.617877 
L 144.8736 135.856545 
L 147.75956 134.044025 
L 150.64552 133.27574 
L 153.53148 134.580746 
L 156.41744 135.11709 
L 159.3034 130.484764 
L 162.18936 130.650346 
L 165.07532 132.288998 
L 167.96128 132.59123 
L 170.84724 128.08063 
L 173.7332 129.056239 
L 176.61916 128.376927 
L 179.50512 128.859844 
L 188.163 125.520076 
L 191.04896 126.568868 
L 193.93492 123.359408 
L 196.82088 124.285004 
L 199.70684 124.569396 
L 202.5928 123.839858 
L 205.47876 122.181768 
L 211.25068 123.486873 
L 214.13664 119.899383 
L 217.0226 118.246522 
L 219.90856 119.156439 
L 222.79452 121.156909 
L 225.68048 117.691758 
L 228.56644 118.46777 
L 231.4524 116.997709 
L 234.33836 118.945811 
L 237.22432 115.50806 
L 240.11028 116.248775 
L 245.8822 116.877603 
L 248.76816 112.805189 
L 251.65412 113.729565 
L 254.54008 114.483181 
L 257.42604 113.934721 
L 260.312 109.35287 
L 263.19796 111.172335 
L 266.08392 111.767066 
L 268.96988 112.116549 
L 271.85584 108.631131 
L 274.7418 109.642248 
L 277.62776 110.396603 
L 280.51372 110.071236 
L 283.39968 106.221396 
L 286.28564 106.813574 
L 289.1716 106.810147 
L 292.05756 108.3805 
L 294.94352 104.377293 
L 297.82948 105.531326 
L 300.71544 106.034087 
L 303.6014 104.86973 
L 306.48736 102.144759 
L 309.37332 102.469434 
L 312.25928 103.116974 
L 315.14524 103.024717 
L 318.0312 100.008704 
L 320.91716 100.101047 
L 323.80312 99.679998 
L 326.68908 101.24577 
L 329.57504 97.152362 
L 332.461 98.586737 
L 335.34696 98.942043 
L 338.23292 98.881318 
L 341.11888 95.712527 
L 344.00484 97.406008 
L 346.8908 94.993123 
L 349.77676 96.156771 
L 352.66272 94.123203 
L 355.54868 94.178496 
L 358.43464 93.009916 
L 361.3206 93.863879 
L 364.20656 90.678138 
L 367.09252 91.299959 
L 369.97848 89.829664 
L 372.86444 90.334749 
L 375.7504 88.362155 
L 378.63636 88.332061 
L 381.52232 89.414248 
L 384.40828 88.508687 
L 387.29424 85.645678 
L 390.1802 83.813791 
L 393.06616 85.176549 
L 395.95212 85.64271 
L 398.83808 83.22359 
L 401.72404 82.829236 
L 407.49596 84.160116 
L 410.38192 80.963177 
L 413.26788 79.391452 
L 416.15384 80.566213 
L 419.0398 80.183029 
L 421.92576 78.208605 
L 424.81172 76.923517 
L 427.69768 77.971473 
L 430.58364 74.742694 
L 430.58364 74.742694 
" clip-path="url(#p9c29537a80)" style="fill: none; stroke-dasharray: 8,3; stroke-dashoffset: 0; stroke: #2ca02c; stroke-width: 2"/>
   </g>
   <g id="line2d_27">
    <path d="M 46.75096 182.06738 
L 66.95268 180.912584 
L 69.83864 180.938003 
L 72.7246 180.746676 
L 75.61056 180.770434 
L 81.38248 180.5563 
L 92.92632 180.272193 
L 95.81228 180.410545 
L 101.5842 180.183657 
L 110.24208 180.099893 
L 118.89996 179.968316 
L 124.67188 179.876973 
L 130.4438 179.815093 
L 139.10168 179.811194 
L 144.8736 179.745853 
L 147.75956 179.556276 
L 150.64552 179.729794 
L 162.18936 179.617949 
L 165.07532 179.697656 
L 167.96128 179.490286 
L 170.84724 179.470554 
L 173.7332 179.312074 
L 176.61916 179.484247 
L 191.04896 179.42616 
L 196.82088 179.332152 
L 199.70684 179.44251 
L 205.47876 179.331988 
L 211.25068 179.412713 
L 214.13664 179.26615 
L 219.90856 179.435226 
L 225.68048 179.215869 
L 228.56644 179.238909 
L 231.4524 179.111908 
L 234.33836 179.276591 
L 237.22432 179.295238 
L 240.11028 179.131995 
L 260.312 179.019969 
L 263.19796 178.938815 
L 266.08392 179.165959 
L 271.85584 178.934099 
L 274.7418 179.085518 
L 286.28564 178.996143 
L 292.05756 179.04137 
L 294.94352 178.797546 
L 297.82948 179.004687 
L 300.71544 179.0658 
L 303.6014 178.945747 
L 306.48736 178.979299 
L 309.37332 178.846671 
L 312.25928 178.967964 
L 320.91716 178.868194 
L 326.68908 178.923505 
L 329.57504 178.736058 
L 332.461 178.913949 
L 335.34696 178.785473 
L 352.66272 178.838588 
L 364.20656 178.707658 
L 372.86444 178.753995 
L 375.7504 178.596302 
L 378.63636 178.717891 
L 395.95212 178.625954 
L 398.83808 178.576982 
L 401.72404 178.68257 
L 407.49596 178.57878 
L 410.38192 178.68127 
L 421.92576 178.542489 
L 430.58364 178.565565 
L 430.58364 178.565565 
" clip-path="url(#p9c29537a80)" style="fill: none; stroke: #d62728; stroke-width: 2; stroke-linecap: square"/>
   </g>
   <g id="line2d_28">
    <path d="M 46.75096 179.460718 
L 49.63692 173.643035 
L 52.52288 169.544004 
L 55.40884 164.85724 
L 58.2948 163.159562 
L 64.06672 158.660387 
L 66.95268 156.092895 
L 69.83864 155.248928 
L 72.7246 152.408179 
L 75.61056 152.825612 
L 78.49652 148.05896 
L 81.38248 146.767374 
L 84.26844 146.061435 
L 87.1544 145.979541 
L 90.04036 140.187445 
L 92.92632 137.831053 
L 95.81228 137.03652 
L 98.69824 135.888681 
L 101.5842 133.459432 
L 104.47016 130.259283 
L 107.35612 129.02744 
L 110.24208 128.913422 
L 113.12804 125.683067 
L 118.89996 124.330385 
L 121.78592 124.978068 
L 124.67188 117.718224 
L 130.4438 121.393186 
L 133.32976 118.280529 
L 136.21572 116.847479 
L 139.10168 114.553443 
L 141.98764 112.772224 
L 144.8736 114.184386 
L 147.75956 112.810331 
L 150.64552 111.056903 
L 153.53148 112.43113 
L 156.41744 113.067969 
L 159.3034 107.204991 
L 162.18936 107.078992 
L 165.07532 109.820526 
L 167.96128 109.288697 
L 170.84724 103.643562 
L 173.7332 104.698122 
L 176.61916 103.657275 
L 179.50512 104.409978 
L 185.27704 101.069299 
L 188.163 99.207474 
L 191.04896 100.532403 
L 193.93492 96.088246 
L 196.82088 97.003544 
L 199.70684 97.590743 
L 205.47876 93.844945 
L 208.36472 95.376383 
L 211.25068 96.144996 
L 214.13664 90.955685 
L 217.0226 88.065135 
L 219.90856 89.314295 
L 222.79452 92.18788 
L 225.68048 87.721323 
L 228.56644 88.860051 
L 231.4524 87.066329 
L 234.33836 88.529464 
L 237.22432 83.844413 
L 240.11028 85.089378 
L 242.99624 84.90425 
L 245.8822 85.197949 
L 248.76816 80.324699 
L 254.54008 81.480459 
L 257.42604 80.571558 
L 260.312 75.072074 
L 263.19796 77.107734 
L 266.08392 78.494195 
L 268.96988 78.202241 
L 271.85584 73.992209 
L 274.7418 74.684378 
L 277.62776 76.068951 
L 280.51372 75.498583 
L 283.39968 70.480499 
L 286.28564 70.211414 
L 289.1716 69.816512 
L 292.05756 71.907226 
L 294.94352 66.544619 
L 297.82948 68.456326 
L 300.71544 69.275491 
L 303.6014 67.516305 
L 306.48736 63.746754 
L 309.37332 63.95648 
L 312.25928 64.743998 
L 315.14524 64.953079 
L 318.0312 60.948374 
L 320.91716 60.062813 
L 323.80312 59.369962 
L 326.68908 61.994287 
L 329.57504 55.60857 
L 335.34696 57.979412 
L 338.23292 57.929685 
L 341.11888 53.576123 
L 344.00484 55.624575 
L 346.8908 51.86707 
L 349.77676 54.433982 
L 352.66272 51.574203 
L 355.54868 50.365098 
L 358.43464 48.917854 
L 361.3206 50.574676 
L 364.20656 45.901304 
L 367.09252 45.981203 
L 369.97848 44.858857 
L 372.86444 44.992357 
L 375.7504 42.524632 
L 378.63636 42.029892 
L 381.52232 44.619949 
L 384.40828 42.294553 
L 387.29424 38.373145 
L 390.1802 35.867168 
L 393.06616 37.62524 
L 395.95212 37.949746 
L 398.83808 35.518848 
L 401.72404 33.420458 
L 404.61 34.742039 
L 407.49596 35.695684 
L 410.38192 30.677168 
L 413.26788 28.513448 
L 416.15384 30.233805 
L 419.0398 30.335448 
L 421.92576 26.562206 
L 424.81172 24.431686 
L 427.69768 26.248199 
L 430.58364 22.49875 
L 430.58364 22.49875 
" clip-path="url(#p9c29537a80)" style="fill: none; stroke-dasharray: 8,3; stroke-dashoffset: 0; stroke: #d62728; stroke-width: 2"/>
   </g>
   <g id="patch_3">
    <path d="M 43.865 216.11875 
L 43.865 13.27875 
" style="fill: none; stroke: #000000; stroke-width: 2; stroke-linejoin: miter; stroke-linecap: square"/>
   </g>
   <g id="patch_4">
    <path d="M 404.61 216.11875 
L 404.61 13.27875 
" style="fill: none; stroke: #000000; stroke-width: 2; stroke-linejoin: miter; stroke-linecap: square"/>
   </g>
   <g id="patch_5">
    <path d="M 43.865 216.11875 
L 404.61 216.11875 
" style="fill: none; stroke: #000000; stroke-width: 2; stroke-linejoin: miter; stroke-linecap: square"/>
   </g>
   <g id="patch_6">
    <path d="M 43.865 13.27875 
L 404.61 13.27875 
" style="fill: none; stroke: #000000; stroke-width: 2; stroke-linejoin: miter; stroke-linecap: square"/>
   </g>
  </g>
  <g id="axes_2">
   <g id="patch_7">
    <path d="M 474.83 216.11875 
L 835.575 216.11875 
L 835.575 13.27875 
L 474.83 13.27875 
z
" style="fill: #ffffff"/>
   </g>
   <g id="PolyCollection_9"/>
   <g id="PolyCollection_10"/>
   <g id="PolyCollection_11"/>
   <g id="PolyCollection_12"/>
   <g id="PolyCollection_13"/>
   <g id="PolyCollection_14"/>
   <g id="PolyCollection_15"/>
   <g id="PolyCollection_16"/>
   <g id="matplotlib.axis_3">
    <g id="xtick_6">
     <g id="line2d_29">
      <path d="M 474.83 216.11875 
L 474.83 13.27875 
" clip-path="url(#p6390ad786a)" style="fill: none; stroke: #b0b0b0; stroke-width: 0.8; stroke-linecap: square"/>
     </g>
     <g id="line2d_30">
      <g>
       <use xlink:href="#m80c4303965" x="474.83" y="216.11875" style="stroke: #000000; stroke-width: 2"/>
      </g>
     </g>
     <g id="text_14">
      <!-- 0 -->
      <g transform="translate(469.74 235.27625) scale(0.16 -0.16)">
       <use xlink:href="#DejaVuSans-30"/>
      </g>
     </g>
    </g>
    <g id="xtick_7">
     <g id="line2d_31">
      <path d="M 554.995556 216.11875 
L 554.995556 13.27875 
" clip-path="url(#p6390ad786a)" style="fill: none; stroke: #b0b0b0; stroke-width: 0.8; stroke-linecap: square"/>
     </g>
     <g id="line2d_32">
      <g>
       <use xlink:href="#m80c4303965" x="554.995556" y="216.11875" style="stroke: #000000; stroke-width: 2"/>
      </g>
     </g>
     <g id="text_15">
      <!-- 2 -->
      <g transform="translate(549.905556 235.27625) scale(0.16 -0.16)">
       <use xlink:href="#DejaVuSans-32"/>
      </g>
     </g>
    </g>
    <g id="xtick_8">
     <g id="line2d_33">
      <path d="M 635.161111 216.11875 
L 635.161111 13.27875 
" clip-path="url(#p6390ad786a)" style="fill: none; stroke: #b0b0b0; stroke-width: 0.8; stroke-linecap: square"/>
     </g>
     <g id="line2d_34">
      <g>
       <use xlink:href="#m80c4303965" x="635.161111" y="216.11875" style="stroke: #000000; stroke-width: 2"/>
      </g>
     </g>
     <g id="text_16">
      <!-- 4 -->
      <g transform="translate(630.071111 235.27625) scale(0.16 -0.16)">
       <use xlink:href="#DejaVuSans-34"/>
      </g>
     </g>
    </g>
    <g id="xtick_9">
     <g id="line2d_35">
      <path d="M 715.326667 216.11875 
L 715.326667 13.27875 
" clip-path="url(#p6390ad786a)" style="fill: none; stroke: #b0b0b0; stroke-width: 0.8; stroke-linecap: square"/>
     </g>
     <g id="line2d_36">
      <g>
       <use xlink:href="#m80c4303965" x="715.326667" y="216.11875" style="stroke: #000000; stroke-width: 2"/>
      </g>
     </g>
     <g id="text_17">
      <!-- 6 -->
      <g transform="translate(710.236667 235.27625) scale(0.16 -0.16)">
       <use xlink:href="#DejaVuSans-36"/>
      </g>
     </g>
    </g>
    <g id="xtick_10">
     <g id="line2d_37">
      <path d="M 795.492222 216.11875 
L 795.492222 13.27875 
" clip-path="url(#p6390ad786a)" style="fill: none; stroke: #b0b0b0; stroke-width: 0.8; stroke-linecap: square"/>
     </g>
     <g id="line2d_38">
      <g>
       <use xlink:href="#m80c4303965" x="795.492222" y="216.11875" style="stroke: #000000; stroke-width: 2"/>
      </g>
     </g>
     <g id="text_18">
      <!-- 8 -->
      <g transform="translate(790.402222 235.27625) scale(0.16 -0.16)">
       <use xlink:href="#DejaVuSans-38"/>
      </g>
     </g>
    </g>
    <g id="text_19">
     <!-- Tokens -->
     <g transform="translate(628.27875 254.76125) scale(0.16 -0.16)">
      <use xlink:href="#DejaVuSans-54"/>
      <use xlink:href="#DejaVuSans-6f" x="44.083984"/>
      <use xlink:href="#DejaVuSans-6b" x="105.265625"/>
      <use xlink:href="#DejaVuSans-65" x="159.550781"/>
      <use xlink:href="#DejaVuSans-6e" x="221.074219"/>
      <use xlink:href="#DejaVuSans-73" x="284.453125"/>
     </g>
    </g>
    <g id="text_20">
     <!-- 1e9 -->
     <g transform="translate(805.37 253.76125) scale(0.16 -0.16)">
      <use xlink:href="#DejaVuSans-31"/>
      <use xlink:href="#DejaVuSans-65" x="63.623047"/>
      <use xlink:href="#DejaVuSans-39" x="125.146484"/>
     </g>
    </g>
   </g>
   <g id="matplotlib.axis_4">
    <g id="ytick_6">
     <g id="line2d_39">
      <path d="M 474.83 216.11875 
L 835.575 216.11875 
" clip-path="url(#p6390ad786a)" style="fill: none; stroke: #b0b0b0; stroke-width: 0.8; stroke-linecap: square"/>
     </g>
     <g id="line2d_40">
      <g>
       <use xlink:href="#mcd066f0821" x="474.83" y="216.11875" style="stroke: #000000; stroke-width: 2"/>
      </g>
     </g>
     <g id="text_21">
      <!-- 0.0 -->
      <g transform="translate(442.385 222.1975) scale(0.16 -0.16)">
       <defs>
        <path id="DejaVuSans-2e" d="M 684 794 
L 1344 794 
L 1344 0 
L 684 0 
L 684 794 
z
" transform="scale(0.015625)"/>
       </defs>
       <use xlink:href="#DejaVuSans-30"/>
       <use xlink:href="#DejaVuSans-2e" x="63.623047"/>
       <use xlink:href="#DejaVuSans-30" x="95.410156"/>
      </g>
     </g>
    </g>
    <g id="ytick_7">
     <g id="line2d_41">
      <path d="M 474.83 182.312083 
L 835.575 182.312083 
" clip-path="url(#p6390ad786a)" style="fill: none; stroke: #b0b0b0; stroke-width: 0.8; stroke-linecap: square"/>
     </g>
     <g id="line2d_42">
      <g>
       <use xlink:href="#mcd066f0821" x="474.83" y="182.312083" style="stroke: #000000; stroke-width: 2"/>
      </g>
     </g>
     <g id="text_22">
      <!-- 0.5 -->
      <g transform="translate(442.385 188.390833) scale(0.16 -0.16)">
       <defs>
        <path id="DejaVuSans-35" d="M 691 4666 
L 3169 4666 
L 3169 4134 
L 1269 4134 
L 1269 2991 
Q 1406 3038 1543 3061 
Q 1681 3084 1819 3084 
Q 2600 3084 3056 2656 
Q 3513 2228 3513 1497 
Q 3513 744 3044 326 
Q 2575 -91 1722 -91 
Q 1428 -91 1123 -41 
Q 819 9 494 109 
L 494 744 
Q 775 591 1075 516 
Q 1375 441 1709 441 
Q 2250 441 2565 725 
Q 2881 1009 2881 1497 
Q 2881 1984 2565 2268 
Q 2250 2553 1709 2553 
Q 1456 2553 1204 2497 
Q 953 2441 691 2322 
L 691 4666 
z
" transform="scale(0.015625)"/>
       </defs>
       <use xlink:href="#DejaVuSans-30"/>
       <use xlink:href="#DejaVuSans-2e" x="63.623047"/>
       <use xlink:href="#DejaVuSans-35" x="95.410156"/>
      </g>
     </g>
    </g>
    <g id="ytick_8">
     <g id="line2d_43">
      <path d="M 474.83 148.505417 
L 835.575 148.505417 
" clip-path="url(#p6390ad786a)" style="fill: none; stroke: #b0b0b0; stroke-width: 0.8; stroke-linecap: square"/>
     </g>
     <g id="line2d_44">
      <g>
       <use xlink:href="#mcd066f0821" x="474.83" y="148.505417" style="stroke: #000000; stroke-width: 2"/>
      </g>
     </g>
     <g id="text_23">
      <!-- 1.0 -->
      <g transform="translate(442.385 154.584167) scale(0.16 -0.16)">
       <use xlink:href="#DejaVuSans-31"/>
       <use xlink:href="#DejaVuSans-2e" x="63.623047"/>
       <use xlink:href="#DejaVuSans-30" x="95.410156"/>
      </g>
     </g>
    </g>
    <g id="ytick_9">
     <g id="line2d_45">
      <path d="M 474.83 114.69875 
L 835.575 114.69875 
" clip-path="url(#p6390ad786a)" style="fill: none; stroke: #b0b0b0; stroke-width: 0.8; stroke-linecap: square"/>
     </g>
     <g id="line2d_46">
      <g>
       <use xlink:href="#mcd066f0821" x="474.83" y="114.69875" style="stroke: #000000; stroke-width: 2"/>
      </g>
     </g>
     <g id="text_24">
      <!-- 1.5 -->
      <g transform="translate(442.385 120.7775) scale(0.16 -0.16)">
       <use xlink:href="#DejaVuSans-31"/>
       <use xlink:href="#DejaVuSans-2e" x="63.623047"/>
       <use xlink:href="#DejaVuSans-35" x="95.410156"/>
      </g>
     </g>
    </g>
    <g id="ytick_10">
     <g id="line2d_47">
      <path d="M 474.83 80.892083 
L 835.575 80.892083 
" clip-path="url(#p6390ad786a)" style="fill: none; stroke: #b0b0b0; stroke-width: 0.8; stroke-linecap: square"/>
     </g>
     <g id="line2d_48">
      <g>
       <use xlink:href="#mcd066f0821" x="474.83" y="80.892083" style="stroke: #000000; stroke-width: 2"/>
      </g>
     </g>
     <g id="text_25">
      <!-- 2.0 -->
      <g transform="translate(442.385 86.970833) scale(0.16 -0.16)">
       <use xlink:href="#DejaVuSans-32"/>
       <use xlink:href="#DejaVuSans-2e" x="63.623047"/>
       <use xlink:href="#DejaVuSans-30" x="95.410156"/>
      </g>
     </g>
    </g>
    <g id="ytick_11">
     <g id="line2d_49">
      <path d="M 474.83 47.085417 
L 835.575 47.085417 
" clip-path="url(#p6390ad786a)" style="fill: none; stroke: #b0b0b0; stroke-width: 0.8; stroke-linecap: square"/>
     </g>
     <g id="line2d_50">
      <g>
       <use xlink:href="#mcd066f0821" x="474.83" y="47.085417" style="stroke: #000000; stroke-width: 2"/>
      </g>
     </g>
     <g id="text_26">
      <!-- 2.5 -->
      <g transform="translate(442.385 53.164167) scale(0.16 -0.16)">
       <use xlink:href="#DejaVuSans-32"/>
       <use xlink:href="#DejaVuSans-2e" x="63.623047"/>
       <use xlink:href="#DejaVuSans-35" x="95.410156"/>
      </g>
     </g>
    </g>
    <g id="ytick_12">
     <g id="line2d_51">
      <path d="M 474.83 13.27875 
L 835.575 13.27875 
" clip-path="url(#p6390ad786a)" style="fill: none; stroke: #b0b0b0; stroke-width: 0.8; stroke-linecap: square"/>
     </g>
     <g id="line2d_52">
      <g>
       <use xlink:href="#mcd066f0821" x="474.83" y="13.27875" style="stroke: #000000; stroke-width: 2"/>
      </g>
     </g>
     <g id="text_27">
      <!-- 3.0 -->
      <g transform="translate(442.385 19.3575) scale(0.16 -0.16)">
       <defs>
        <path id="DejaVuSans-33" d="M 2597 2516 
Q 3050 2419 3304 2112 
Q 3559 1806 3559 1356 
Q 3559 666 3084 287 
Q 2609 -91 1734 -91 
Q 1441 -91 1130 -33 
Q 819 25 488 141 
L 488 750 
Q 750 597 1062 519 
Q 1375 441 1716 441 
Q 2309 441 2620 675 
Q 2931 909 2931 1356 
Q 2931 1769 2642 2001 
Q 2353 2234 1838 2234 
L 1294 2234 
L 1294 2753 
L 1863 2753 
Q 2328 2753 2575 2939 
Q 2822 3125 2822 3475 
Q 2822 3834 2567 4026 
Q 2313 4219 1838 4219 
Q 1578 4219 1281 4162 
Q 984 4106 628 3988 
L 628 4550 
Q 988 4650 1302 4700 
Q 1616 4750 1894 4750 
Q 2613 4750 3031 4423 
Q 3450 4097 3450 3541 
Q 3450 3153 3228 2886 
Q 3006 2619 2597 2516 
z
" transform="scale(0.015625)"/>
       </defs>
       <use xlink:href="#DejaVuSans-33"/>
       <use xlink:href="#DejaVuSans-2e" x="63.623047"/>
       <use xlink:href="#DejaVuSans-30" x="95.410156"/>
      </g>
     </g>
    </g>
    <g id="text_28">
     <!-- Loss -->
     <g transform="translate(435.0575 132.24625) rotate(-90) scale(0.16 -0.16)">
      <use xlink:href="#DejaVuSans-4c"/>
      <use xlink:href="#DejaVuSans-6f" x="53.962891"/>
      <use xlink:href="#DejaVuSans-73" x="115.144531"/>
      <use xlink:href="#DejaVuSans-73" x="167.244141"/>
     </g>
    </g>
   </g>
   <g id="line2d_53">
    <path d="M 474.83 119.152252 
L 475.407192 120.227515 
L 475.984384 120.562938 
L 476.561576 120.243329 
L 478.293152 121.192791 
L 478.870344 120.881336 
L 479.447536 121.769826 
L 480.024728 122.21814 
L 480.60192 122.419062 
L 481.179112 122.500059 
L 481.756304 123.014698 
L 482.333496 124.014811 
L 482.910688 123.692452 
L 483.48788 123.923405 
L 484.065072 125.007479 
L 484.642264 124.895345 
L 485.219456 125.369232 
L 485.796648 125.031193 
L 486.37384 126.003656 
L 487.528224 125.890548 
L 488.105416 126.69325 
L 488.682608 127.179448 
L 489.2598 127.18718 
L 489.836992 126.97812 
L 490.414184 127.242541 
L 490.991376 128.15245 
L 491.568568 127.830395 
L 492.14576 127.960107 
L 492.722952 127.813365 
L 493.300144 128.848296 
L 493.877336 128.527594 
L 494.454528 129.159674 
L 495.03172 128.583856 
L 495.608912 129.754306 
L 496.186104 129.244221 
L 496.763296 129.780944 
L 497.340488 129.026983 
L 497.91768 130.386439 
L 498.494872 129.861561 
L 499.072064 130.14733 
L 499.649256 130.084892 
L 500.226448 131.237387 
L 500.80364 130.201959 
L 501.380832 130.683682 
L 501.958024 130.853055 
L 502.535216 131.584894 
L 503.112408 131.128903 
L 503.6896 131.165334 
L 504.843984 131.917061 
L 505.421176 131.91014 
L 505.998368 131.568754 
L 506.57556 132.228402 
L 507.152752 132.138241 
L 508.884328 132.476525 
L 509.46152 132.959031 
L 510.038712 132.702241 
L 510.615904 133.052412 
L 511.193096 132.754444 
L 511.770288 133.443258 
L 512.34748 133.581712 
L 512.924672 132.933648 
L 513.501864 133.396668 
L 514.079056 134.004654 
L 514.656248 133.305105 
L 515.23344 134.197227 
L 515.810632 133.274872 
L 516.387824 134.332312 
L 516.965016 134.306456 
L 517.542208 134.053092 
L 518.1194 134.300615 
L 518.696592 135.072067 
L 519.273784 134.418592 
L 521.00536 134.862602 
L 521.582552 134.828536 
L 522.159744 135.292387 
L 522.736936 134.823726 
L 523.314128 135.560848 
L 523.89132 135.670492 
L 524.468512 135.143946 
L 525.045704 135.319319 
L 525.622896 135.823762 
L 526.77728 135.744705 
L 527.354472 135.763134 
L 528.508856 136.118171 
L 529.086048 135.956671 
L 529.66324 136.325562 
L 530.817624 136.105357 
L 531.394816 136.73646 
L 531.972008 136.148218 
L 532.5492 137.052203 
L 533.126392 136.67708 
L 533.703584 136.564662 
L 534.857968 137.651097 
L 535.43516 136.459108 
L 536.012352 137.127509 
L 536.589544 136.841821 
L 537.166736 137.767197 
L 537.743928 137.037418 
L 538.32112 136.963072 
L 538.898312 137.455994 
L 539.475504 137.69867 
L 540.052696 137.430487 
L 540.629888 137.469591 
L 541.20708 137.738277 
L 541.784272 137.41305 
L 542.361464 138.309459 
L 542.938656 137.56792 
L 543.515848 138.185339 
L 544.09304 138.397791 
L 544.670232 137.953464 
L 546.401808 138.474169 
L 548.133384 138.157115 
L 548.710576 138.943708 
L 549.287768 138.366478 
L 549.86496 138.783565 
L 550.442152 138.659316 
L 551.019344 138.987344 
L 552.173728 138.472629 
L 552.75092 139.018262 
L 553.328112 139.184492 
L 554.482496 138.961931 
L 555.63688 139.458607 
L 556.791264 139.166043 
L 557.368456 139.531988 
L 557.945648 139.675834 
L 559.100032 139.310812 
L 559.677224 139.746185 
L 560.831608 139.844585 
L 561.4088 139.615119 
L 562.563184 140.159629 
L 563.140376 139.828769 
L 564.29476 139.850774 
L 564.871952 140.588616 
L 565.449144 139.9643 
L 566.026336 139.81224 
L 566.603528 140.453866 
L 567.18072 140.554559 
L 567.757912 140.450313 
L 568.335104 140.105897 
L 568.912296 140.363236 
L 569.489488 141.074685 
L 570.06668 140.150965 
L 570.643872 140.319387 
L 571.221064 140.928741 
L 571.798256 140.925236 
L 572.375448 140.427772 
L 573.529832 140.91039 
L 574.107024 140.989325 
L 575.261408 140.698124 
L 575.8386 141.236882 
L 576.992984 141.346824 
L 577.570176 140.791922 
L 578.147368 141.408717 
L 578.72456 141.549495 
L 579.301752 141.138922 
L 579.878944 141.17877 
L 580.456136 141.515748 
L 581.61052 141.34065 
L 582.187712 141.561013 
L 582.764904 141.488663 
L 583.342096 141.903632 
L 583.919288 141.461407 
L 585.650864 141.974048 
L 586.805248 141.556797 
L 587.38244 141.836569 
L 587.959632 142.514188 
L 589.114016 141.646662 
L 589.691208 142.278783 
L 590.2684 142.35768 
L 591.422784 141.683298 
L 591.999976 142.639479 
L 592.577168 141.960513 
L 593.15436 142.100821 
L 593.731552 142.583874 
L 594.308744 142.025707 
L 594.885936 142.451364 
L 595.463128 142.667404 
L 596.04032 142.217812 
L 596.617512 142.986998 
L 597.194704 142.40722 
L 597.771896 142.740272 
L 598.349088 142.401518 
L 598.92628 142.788485 
L 599.503472 143.028763 
L 600.080664 142.810739 
L 600.657856 142.366407 
L 601.81224 142.985246 
L 602.389432 142.996777 
L 602.966624 143.179837 
L 603.543816 142.830495 
L 604.121008 143.346542 
L 604.6982 142.734686 
L 605.275392 143.339181 
L 605.852584 142.910228 
L 606.429776 143.552214 
L 607.006968 142.974682 
L 607.58416 143.366318 
L 608.738544 143.189561 
L 609.315736 143.446288 
L 609.892928 143.311079 
L 610.47012 143.825896 
L 611.047312 143.386489 
L 611.624504 143.294089 
L 612.201696 143.014857 
L 612.778888 143.793085 
L 613.35608 143.720976 
L 613.933272 143.399949 
L 614.510464 143.365427 
L 615.087656 144.286655 
L 616.24204 143.55157 
L 616.819232 143.342269 
L 617.396424 143.909992 
L 617.973616 143.97823 
L 618.550808 144.190439 
L 619.128 143.512657 
L 619.705192 144.065482 
L 620.282384 144.347378 
L 620.859576 143.669673 
L 621.436768 144.01456 
L 622.01396 144.768315 
L 623.168344 143.701971 
L 623.745536 143.840406 
L 624.322728 144.621269 
L 624.89992 144.061003 
L 625.477112 144.353466 
L 626.054304 144.08623 
L 626.631496 144.236665 
L 627.208688 144.633475 
L 627.78588 144.315246 
L 628.363072 144.256119 
L 628.940264 144.87699 
L 629.517456 144.961155 
L 630.094648 144.100629 
L 630.67184 144.180883 
L 631.249032 144.812912 
L 631.826224 144.695734 
L 632.403416 144.869772 
L 632.980608 144.258915 
L 633.5578 144.906575 
L 634.712184 144.760636 
L 635.289376 144.25871 
L 635.866568 145.272974 
L 636.44376 145.140097 
L 637.020952 144.700027 
L 637.598144 144.830424 
L 638.175336 145.091029 
L 638.752528 145.02598 
L 639.32972 144.840768 
L 640.484104 145.178962 
L 641.061296 145.11066 
L 641.638488 145.352292 
L 642.21568 144.766329 
L 642.792872 145.239719 
L 644.524448 145.179533 
L 645.10164 145.307697 
L 645.678832 145.305566 
L 646.256024 145.558695 
L 646.833216 145.164573 
L 647.410408 145.624665 
L 647.9876 145.406702 
L 649.719176 145.544847 
L 650.296368 145.7889 
L 650.87356 145.505503 
L 651.450752 145.48725 
L 652.027944 146.10907 
L 652.605136 145.871669 
L 653.182328 145.497472 
L 653.75952 145.495816 
L 654.336712 146.0773 
L 654.913904 146.021301 
L 655.491096 145.789017 
L 656.068288 145.308011 
L 656.64548 146.222623 
L 657.222672 145.670947 
L 657.799864 146.003488 
L 658.377056 145.397897 
L 658.954248 146.433333 
L 660.108632 145.786341 
L 660.685824 145.965869 
L 661.263016 146.481422 
L 662.994592 145.883461 
L 663.571784 146.544657 
L 664.148976 146.600347 
L 664.726168 146.004632 
L 665.30336 145.716516 
L 665.880552 146.939517 
L 666.457744 145.991122 
L 667.034936 146.355555 
L 667.612128 146.111311 
L 668.18932 146.541668 
L 669.343704 146.52952 
L 669.920896 146.18957 
L 670.498088 147.040986 
L 671.07528 146.418426 
L 671.652472 146.352256 
L 672.229664 146.432754 
L 672.806856 146.966228 
L 673.384048 146.969424 
L 674.538432 146.094263 
L 675.115624 146.833345 
L 676.270008 146.858127 
L 676.8472 146.499685 
L 677.424392 147.031053 
L 678.001584 146.690445 
L 678.578776 146.951609 
L 679.155968 147.018934 
L 679.73316 146.93687 
L 682.041928 147.240239 
L 682.61912 146.808037 
L 684.350696 147.299972 
L 684.927888 147.241598 
L 685.50508 146.856722 
L 686.082272 147.403313 
L 686.659464 147.655417 
L 687.236656 147.074211 
L 687.813848 147.034318 
L 688.39104 147.173041 
L 688.968232 147.767265 
L 689.545424 147.158998 
L 691.854192 147.561522 
L 692.431384 147.378889 
L 693.585768 147.686142 
L 694.16296 147.470706 
L 694.740152 147.562133 
L 695.317344 147.378188 
L 695.894536 148.072946 
L 696.471728 147.979217 
L 697.04892 147.324915 
L 697.626112 147.514016 
L 698.203304 147.954198 
L 698.780496 147.993807 
L 699.357688 147.496938 
L 700.512072 147.699359 
L 701.089264 148.153079 
L 701.666456 147.791628 
L 702.243648 147.79445 
L 702.82084 147.970944 
L 703.398032 147.809325 
L 703.975224 148.025583 
L 704.552416 148.03488 
L 705.129608 148.583598 
L 705.7068 148.060828 
L 706.283992 147.777596 
L 706.861184 147.33418 
L 707.438376 148.231358 
L 708.015568 148.23398 
L 708.59276 147.581004 
L 709.169952 147.729171 
L 709.747144 148.762543 
L 710.324336 148.246079 
L 710.901528 148.027729 
L 712.055912 148.267842 
L 712.633104 148.58631 
L 713.210296 148.321986 
L 713.787488 147.91085 
L 714.36468 148.800822 
L 714.941872 148.120876 
L 715.519064 148.457382 
L 716.096256 148.452017 
L 717.25064 148.818404 
L 717.827832 148.160186 
L 718.405024 148.36399 
L 718.982216 148.871624 
L 719.559408 148.458268 
L 720.713792 148.410447 
L 721.290984 148.966802 
L 722.445368 148.16602 
L 723.02256 148.975893 
L 723.599752 149.05731 
L 724.176944 148.555993 
L 724.754136 148.986782 
L 725.331328 148.692394 
L 725.90852 149.018494 
L 726.485712 148.544053 
L 727.062904 148.442589 
L 727.640096 149.192549 
L 728.217288 149.156698 
L 728.79448 148.987263 
L 729.371672 148.977848 
L 729.948864 148.776808 
L 731.103248 149.161276 
L 731.68044 148.813251 
L 732.257632 148.890287 
L 732.834824 149.56014 
L 733.412016 148.764823 
L 735.143592 149.548712 
L 736.297976 148.949469 
L 736.875168 148.9968 
L 737.45236 149.442101 
L 738.029552 149.43729 
L 738.606744 149.261486 
L 739.183936 149.216905 
L 739.761128 149.65287 
L 740.33832 149.256073 
L 740.915512 149.029118 
L 741.492704 149.510222 
L 742.069896 149.489301 
L 742.647088 149.694868 
L 743.22428 149.310336 
L 743.801472 149.251126 
L 744.378664 149.82343 
L 744.955856 149.605206 
L 745.533048 149.261983 
L 746.687432 149.90324 
L 747.264624 149.859572 
L 747.841816 149.516714 
L 748.419008 149.560275 
L 748.9962 149.930913 
L 749.573392 149.469829 
L 750.150584 149.568183 
L 750.727776 149.542785 
L 751.304968 149.966959 
L 751.88216 149.662533 
L 753.036544 149.869496 
L 753.613736 149.888443 
L 754.190928 149.741848 
L 754.76812 149.734536 
L 755.345312 150.243965 
L 755.922504 150.181162 
L 756.499696 149.882657 
L 757.65408 149.653157 
L 758.808464 150.227226 
L 759.385656 149.794001 
L 760.54004 149.587547 
L 761.117232 150.108398 
L 762.271616 150.330289 
L 762.848808 150.026313 
L 763.426 150.173467 
L 764.003192 149.933858 
L 765.157576 150.300161 
L 765.734768 150.19197 
L 766.31196 149.874254 
L 767.466344 150.338878 
L 768.620728 150.062866 
L 769.19792 150.364101 
L 769.775112 150.419324 
L 770.929496 150.06929 
L 772.08388 150.504251 
L 772.661072 150.440762 
L 773.238264 150.078172 
L 773.815456 150.470144 
L 774.96984 150.623243 
L 775.547032 150.26888 
L 776.124224 150.317126 
L 776.701416 150.90416 
L 777.278608 150.348227 
L 777.8558 150.489844 
L 778.432992 150.875386 
L 779.010184 150.608397 
L 779.587376 150.58413 
L 780.164568 150.219771 
L 780.74176 150.692292 
L 781.318952 150.864899 
L 781.896144 150.854533 
L 782.473336 150.329395 
L 783.050528 150.80225 
L 783.62772 151.090247 
L 784.204912 150.657552 
L 784.782104 150.574915 
L 785.359296 151.018086 
L 785.936488 150.595626 
L 786.51368 151.073319 
L 787.090872 150.581172 
L 787.668064 150.981569 
L 788.245256 151.112009 
L 788.822448 150.641564 
L 789.39964 151.015871 
L 791.131216 151.176536 
L 791.708408 150.633175 
L 792.2856 151.157678 
L 792.862792 151.288063 
L 794.017176 150.885584 
L 794.594368 151.028641 
L 795.17156 151.72883 
L 795.748752 151.125885 
L 796.325944 151.127328 
L 796.903136 151.633174 
L 797.480328 151.173544 
L 798.05752 151.333466 
L 798.634712 151.19101 
L 799.211904 151.886951 
L 799.789096 151.479437 
L 800.366288 151.352768 
L 800.94348 150.893738 
L 801.520672 151.695356 
L 802.097864 151.465742 
L 803.252248 151.315696 
L 803.82944 151.788292 
L 804.406632 151.542137 
L 804.983824 151.659002 
L 805.561016 151.28342 
L 806.138208 151.945204 
L 806.7154 151.975767 
L 807.292592 151.447118 
L 808.446976 151.524154 
L 809.024168 152.184762 
L 809.60136 151.629977 
L 810.178552 151.363443 
L 810.755744 151.936494 
L 811.332936 151.919028 
L 812.48732 151.6376 
L 813.064512 152.043862 
L 813.641704 151.978542 
L 814.218896 151.791961 
L 814.796088 151.814215 
L 815.37328 151.693122 
L 815.950472 152.438042 
L 816.527664 151.69172 
L 817.104856 151.768022 
L 817.682048 152.149834 
L 818.25924 152.019726 
L 818.836432 152.133755 
L 819.413624 151.937088 
L 819.990816 152.077501 
L 820.568008 151.947971 
L 821.722392 152.150894 
L 822.299584 152.102008 
L 823.453968 152.475923 
L 824.03116 151.845779 
L 825.185544 152.261274 
L 825.762736 151.926199 
L 826.339928 152.636908 
L 826.91712 152.383702 
L 827.494312 152.558213 
L 828.071504 152.110726 
L 828.648696 152.113959 
L 829.225888 152.384108 
L 830.380272 152.190836 
L 831.534656 152.612556 
L 832.68904 152.208706 
L 833.266232 152.367488 
L 833.843424 152.680099 
L 834.420616 152.63616 
L 835.575 152.215648 
L 836.152192 152.589894 
L 837.306576 152.756657 
L 837.883768 152.123478 
L 838.46096 152.871499 
L 839.038152 153.003016 
L 839.615344 152.267914 
L 840.192536 152.530916 
L 840.769728 152.299347 
L 841.34692 153.075684 
L 841.924112 152.454344 
L 842.501304 152.559501 
L 843.078496 152.935088 
L 843.775 152.923237 
L 843.775 152.923237 
" clip-path="url(#p6390ad786a)" style="fill: none; stroke: #1f77b4; stroke-width: 2; stroke-linecap: square"/>
   </g>
   <g id="line2d_54">
    <path d="M 474.83 120.146383 
L 475.984384 125.15741 
L 476.561576 126.40606 
L 477.138768 131.530993 
L 478.293152 133.412356 
L 478.870344 133.918838 
L 479.447536 140.530262 
L 480.024728 140.097997 
L 480.60192 140.924469 
L 481.179112 142.903303 
L 481.756304 150.813869 
L 482.333496 152.495458 
L 482.910688 153.532329 
L 483.48788 155.791046 
L 484.065072 163.744003 
L 484.642264 163.85296 
L 485.796648 165.755886 
L 486.37384 172.599952 
L 486.951032 172.726714 
L 487.528224 173.040155 
L 488.105416 173.989529 
L 488.682608 179.445111 
L 489.2598 179.220736 
L 489.836992 179.21926 
L 490.414184 179.50053 
L 490.991376 185.055052 
L 491.568568 183.797619 
L 492.14576 183.54738 
L 492.722952 184.204961 
L 493.300144 188.551556 
L 494.454528 187.179564 
L 495.03172 187.311693 
L 495.608912 191.962447 
L 496.186104 190.277543 
L 497.340488 190.214617 
L 497.91768 193.683325 
L 499.072064 192.322538 
L 499.649256 192.659261 
L 500.226448 195.715487 
L 501.380832 194.014734 
L 501.958024 194.342121 
L 502.535216 197.472134 
L 503.112408 196.209034 
L 503.6896 195.674444 
L 504.266792 196.103995 
L 504.843984 198.658509 
L 505.421176 197.462551 
L 505.998368 197.130306 
L 506.57556 197.442178 
L 507.152752 199.539404 
L 507.729944 198.726928 
L 508.307136 198.217609 
L 508.884328 198.491992 
L 509.46152 200.697511 
L 510.038712 199.610327 
L 510.615904 199.312185 
L 511.193096 199.475155 
L 511.770288 201.520142 
L 512.924672 200.007012 
L 513.501864 200.430366 
L 514.079056 202.338203 
L 514.656248 201.458032 
L 515.23344 201.015925 
L 515.810632 201.098406 
L 516.387824 203.011712 
L 516.965016 202.187177 
L 517.542208 201.677276 
L 518.1194 201.827434 
L 518.696592 203.513334 
L 519.273784 202.701924 
L 519.850976 202.160792 
L 520.428168 202.68118 
L 521.00536 203.977628 
L 521.582552 203.310357 
L 522.159744 202.844689 
L 522.736936 203.242202 
L 523.314128 204.605586 
L 523.89132 203.844418 
L 524.468512 203.371873 
L 525.045704 203.884495 
L 525.622896 205.015984 
L 526.200088 204.22375 
L 526.77728 203.911854 
L 527.354472 204.353426 
L 527.931664 205.28213 
L 529.086048 204.224325 
L 529.66324 204.704497 
L 530.240432 205.659971 
L 531.394816 204.655202 
L 531.972008 205.131644 
L 532.5492 205.92773 
L 533.126392 205.440634 
L 533.703584 205.128843 
L 534.280776 205.544709 
L 534.857968 206.222118 
L 536.012352 205.390764 
L 536.589544 205.914983 
L 537.166736 206.739149 
L 537.743928 205.942186 
L 538.32112 205.753295 
L 538.898312 206.209719 
L 539.475504 206.835029 
L 540.052696 206.344203 
L 540.629888 206.067785 
L 541.784272 207.075161 
L 542.361464 206.595747 
L 542.938656 206.379712 
L 543.515848 206.742788 
L 544.09304 207.381673 
L 544.670232 206.869446 
L 545.247424 206.610745 
L 545.824616 206.992519 
L 546.401808 207.570046 
L 546.979 207.068499 
L 547.556192 206.916817 
L 548.710576 207.807053 
L 549.287768 207.285552 
L 549.86496 207.07027 
L 551.019344 207.966251 
L 551.596536 207.568811 
L 552.173728 207.327683 
L 553.328112 208.080126 
L 554.482496 207.511999 
L 555.059688 208.073041 
L 555.63688 208.271963 
L 556.791264 207.682184 
L 557.368456 208.179506 
L 557.945648 208.492672 
L 559.100032 207.833164 
L 559.677224 208.395758 
L 560.254416 208.703259 
L 560.831608 208.270106 
L 561.4088 208.085674 
L 561.985992 208.525457 
L 562.563184 208.739648 
L 563.717568 208.219269 
L 564.29476 208.796992 
L 564.871952 208.917438 
L 565.449144 208.542223 
L 566.026336 208.357274 
L 566.603528 208.901135 
L 567.18072 209.119177 
L 567.757912 208.712892 
L 568.335104 208.541213 
L 568.912296 209.069131 
L 569.489488 209.179153 
L 570.06668 208.873051 
L 570.643872 208.715476 
L 571.221064 209.149176 
L 571.798256 209.345748 
L 572.95264 208.798749 
L 573.529832 209.355587 
L 574.107024 209.488086 
L 574.684216 209.135169 
L 575.261408 209.011803 
L 575.8386 209.468488 
L 576.415792 209.517953 
L 577.570176 209.055472 
L 578.147368 209.643628 
L 578.72456 209.690897 
L 579.878944 209.184958 
L 580.456136 209.721523 
L 581.033328 209.770236 
L 582.187712 209.349523 
L 582.764904 209.845682 
L 583.342096 209.918729 
L 583.919288 209.598814 
L 584.49648 209.498007 
L 585.073672 210.004373 
L 585.650864 209.968552 
L 586.805248 209.550203 
L 587.38244 210.059824 
L 587.959632 210.077721 
L 588.536824 209.832718 
L 589.114016 209.745214 
L 589.691208 210.209812 
L 590.2684 210.218719 
L 590.845592 209.861974 
L 591.422784 209.799355 
L 591.999976 210.29862 
L 592.577168 210.262712 
L 593.731552 209.857965 
L 594.308744 210.413678 
L 594.885936 210.36623 
L 596.04032 209.932812 
L 596.617512 210.509033 
L 597.194704 210.425985 
L 598.349088 210.085844 
L 598.92628 210.631706 
L 599.503472 210.543001 
L 600.657856 210.101605 
L 601.235048 210.744291 
L 601.81224 210.628847 
L 602.389432 210.380012 
L 602.966624 210.267339 
L 603.543816 210.801412 
L 605.275392 210.367108 
L 605.852584 210.88518 
L 607.58416 210.428 
L 608.161352 211.02693 
L 609.892928 210.465223 
L 610.47012 211.058571 
L 612.201696 210.623343 
L 612.778888 211.109029 
L 616.24204 210.83691 
L 616.819232 210.732145 
L 617.396424 211.348695 
L 618.550808 210.949769 
L 619.128 210.837603 
L 619.705192 211.404218 
L 620.859576 210.99734 
L 621.436768 210.888841 
L 622.01396 211.439132 
L 623.745536 211.013376 
L 624.322728 211.477372 
L 626.054304 211.043051 
L 626.631496 211.606242 
L 628.363072 211.077366 
L 628.940264 211.668561 
L 630.094648 211.269055 
L 630.67184 211.173103 
L 631.249032 211.723707 
L 632.403416 211.32232 
L 632.980608 211.265976 
L 633.5578 211.840363 
L 634.134992 211.468732 
L 635.289376 211.318033 
L 635.866568 211.865829 
L 637.020952 211.441294 
L 637.598144 211.392401 
L 638.175336 211.900876 
L 638.752528 211.651868 
L 639.906912 211.455143 
L 640.484104 211.93463 
L 641.638488 211.58016 
L 642.21568 211.580367 
L 642.792872 211.977061 
L 643.947256 211.687399 
L 644.524448 211.593316 
L 645.10164 212.011701 
L 646.256024 211.661447 
L 646.833216 211.657013 
L 647.410408 212.125843 
L 647.9876 211.853311 
L 648.564792 211.749049 
L 649.141984 211.774178 
L 649.719176 212.123268 
L 651.450752 211.763702 
L 652.027944 212.242797 
L 652.605136 211.937752 
L 653.75952 211.861768 
L 654.336712 212.260423 
L 654.913904 212.014609 
L 656.068288 211.910273 
L 656.64548 212.317254 
L 657.222672 212.069081 
L 658.377056 211.956383 
L 658.954248 212.310515 
L 660.685824 212.024457 
L 661.263016 212.372269 
L 662.4174 212.082928 
L 662.994592 212.059664 
L 663.571784 212.397739 
L 664.726168 212.085912 
L 665.880552 212.380947 
L 667.612128 212.195514 
L 668.18932 212.508509 
L 668.766512 212.31544 
L 669.920896 212.25159 
L 670.498088 212.552568 
L 671.07528 212.318748 
L 672.229664 212.316152 
L 672.806856 212.544291 
L 673.96124 212.33398 
L 674.538432 212.36784 
L 675.115624 212.640426 
L 675.692816 212.417237 
L 676.8472 212.392159 
L 677.424392 212.65143 
L 679.155968 212.426477 
L 679.73316 212.713278 
L 680.887544 212.458761 
L 681.464736 212.531068 
L 682.041928 212.729012 
L 683.196312 212.531225 
L 683.773504 212.545297 
L 684.350696 212.735149 
L 685.50508 212.564813 
L 686.082272 212.610344 
L 686.659464 212.795318 
L 687.813848 212.576202 
L 688.968232 212.837895 
L 690.122616 212.627134 
L 691.277 212.829318 
L 692.431384 212.734569 
L 693.008576 212.698966 
L 693.585768 212.925535 
L 694.740152 212.69303 
L 695.894536 212.964638 
L 696.471728 212.775828 
L 697.04892 212.741089 
L 698.203304 212.972008 
L 699.357688 212.781076 
L 699.93488 212.854724 
L 700.512072 213.061127 
L 701.666456 212.813312 
L 702.243648 212.880996 
L 702.82084 213.079219 
L 703.975224 212.858871 
L 705.129608 213.084905 
L 706.861184 212.987832 
L 707.438376 213.132389 
L 708.59276 212.929201 
L 709.747144 213.169937 
L 710.324336 213.025455 
L 711.47872 213.054971 
L 712.055912 213.165964 
L 713.787488 213.115667 
L 714.36468 213.198434 
L 716.096256 213.144617 
L 716.673448 213.250662 
L 717.827832 213.065996 
L 718.982216 213.261267 
L 720.1366 213.167242 
L 721.290984 213.307303 
L 722.445368 213.188862 
L 723.599752 213.34344 
L 724.176944 213.229146 
L 738.029552 213.438767 
L 738.606744 213.369299 
L 739.761128 213.568875 
L 740.915512 213.418106 
L 742.069896 213.599451 
L 743.22428 213.446792 
L 743.801472 213.581203 
L 744.955856 213.523752 
L 745.533048 213.471925 
L 746.11024 213.608961 
L 752.459352 213.563218 
L 753.613736 213.723157 
L 754.76812 213.603264 
L 755.345312 213.744231 
L 756.499696 213.663382 
L 757.076888 213.612749 
L 758.231272 213.755627 
L 759.385656 213.684057 
L 760.54004 213.802144 
L 761.694424 213.685652 
L 762.848808 213.816656 
L 764.003192 213.658006 
L 764.580384 213.847195 
L 766.31196 213.705734 
L 766.889152 213.853089 
L 768.043536 213.798624 
L 768.620728 213.726344 
L 769.775112 213.912012 
L 770.929496 213.74828 
L 771.506688 213.932215 
L 773.238264 213.822854 
L 773.815456 213.965187 
L 775.547032 213.824673 
L 776.124224 213.994244 
L 777.8558 213.840022 
L 778.432992 213.996834 
L 780.164568 213.883395 
L 780.74176 214.021941 
L 783.050528 214.023745 
L 789.39964 213.963044 
L 789.976832 214.126097 
L 791.708408 213.980628 
L 792.2856 214.144694 
L 794.017176 214.016559 
L 794.594368 214.145767 
L 796.325944 214.041806 
L 796.903136 214.183588 
L 798.634712 214.039623 
L 799.211904 214.21069 
L 800.94348 214.085391 
L 801.520672 214.234138 
L 803.252248 214.111967 
L 803.82944 214.232948 
L 805.561016 214.123396 
L 806.138208 214.267184 
L 807.869784 214.151791 
L 809.024168 214.244963 
L 810.178552 214.167317 
L 810.755744 214.304213 
L 812.48732 214.20934 
L 813.064512 214.306545 
L 814.796088 214.200388 
L 815.950472 214.31429 
L 817.104856 214.24867 
L 817.682048 214.358658 
L 819.413624 214.258556 
L 819.990816 214.379313 
L 821.1452 214.288012 
L 821.722392 214.258878 
L 822.299584 214.392342 
L 823.453968 214.320456 
L 825.185544 214.30862 
L 826.91712 214.401064 
L 830.957464 214.346752 
L 831.534656 214.466497 
L 833.266232 214.344571 
L 833.843424 214.465715 
L 835.575 214.369552 
L 836.152192 214.47357 
L 837.883768 214.366655 
L 838.46096 214.527132 
L 839.615344 214.429128 
L 840.192536 214.384849 
L 840.769728 214.513369 
L 842.501304 214.417448 
L 843.078496 214.522012 
L 843.775 214.481623 
L 843.775 214.481623 
" clip-path="url(#p6390ad786a)" style="fill: none; stroke-dasharray: 8,3; stroke-dashoffset: 0; stroke: #1f77b4; stroke-width: 2"/>
   </g>
   <g id="line2d_55">
    <path d="M 477.71596 122.791179 
L 480.60192 123.107915 
L 483.48788 123.2933 
L 489.2598 123.278696 
L 492.14576 123.338489 
L 495.03172 123.02595 
L 497.91768 123.078313 
L 500.80364 123.287361 
L 503.6896 122.947427 
L 506.57556 123.227556 
L 509.46152 122.935587 
L 515.23344 122.744599 
L 518.1194 122.948569 
L 521.00536 122.518711 
L 523.89132 122.448839 
L 526.77728 122.824744 
L 529.66324 122.684976 
L 532.5492 122.372398 
L 535.43516 122.471601 
L 538.32112 122.382318 
L 541.20708 122.506526 
L 544.09304 122.13742 
L 546.979 122.038749 
L 549.86496 122.23572 
L 552.75092 122.310634 
L 555.63688 122.159861 
L 558.52284 121.886284 
L 561.4088 121.86307 
L 564.29476 122.122485 
L 567.18072 121.702454 
L 570.06668 122.038533 
L 575.8386 121.989941 
L 578.72456 121.515033 
L 584.49648 122.18255 
L 587.38244 121.869533 
L 590.2684 121.787907 
L 593.15436 121.841127 
L 596.04032 122.047779 
L 598.92628 121.655307 
L 601.81224 121.542888 
L 604.6982 121.228754 
L 607.58416 121.701744 
L 610.47012 121.926452 
L 613.35608 121.532676 
L 619.128 121.626473 
L 624.89992 121.366474 
L 630.67184 121.813325 
L 633.5578 121.606695 
L 636.44376 121.516266 
L 639.32972 121.876996 
L 642.21568 121.818592 
L 645.10164 121.511397 
L 647.9876 121.769583 
L 650.87356 121.872076 
L 656.64548 121.469893 
L 662.4174 121.378646 
L 665.30336 121.714376 
L 668.18932 121.684033 
L 671.07528 121.297333 
L 673.96124 121.290306 
L 676.8472 121.601444 
L 679.73316 121.376963 
L 682.61912 121.312674 
L 685.50508 121.414572 
L 688.39104 121.1018 
L 691.277 121.212902 
L 694.16296 120.954232 
L 697.04892 121.582899 
L 699.93488 121.395284 
L 702.82084 120.951336 
L 705.7068 121.272981 
L 708.59276 121.218946 
L 711.47872 121.376748 
L 714.36468 121.405841 
L 717.25064 121.178547 
L 723.02256 121.365529 
L 725.90852 120.725059 
L 728.79448 121.242003 
L 734.5664 121.361949 
L 740.33832 121.068388 
L 743.22428 121.375621 
L 746.11024 121.145714 
L 751.88216 121.218875 
L 754.76812 121.224706 
L 757.65408 121.44016 
L 760.54004 120.932291 
L 763.426 121.308398 
L 769.19792 121.103532 
L 772.08388 121.173298 
L 774.96984 120.971508 
L 777.8558 121.128797 
L 780.74176 121.129588 
L 783.62772 121.346867 
L 789.39964 120.901508 
L 792.2856 121.072474 
L 798.05752 121.005252 
L 800.94348 121.021759 
L 803.82944 120.90042 
L 809.60136 120.865476 
L 812.48732 121.142652 
L 815.37328 120.876959 
L 818.25924 121.122832 
L 821.1452 121.07668 
L 824.03116 121.152757 
L 826.91712 120.815711 
L 829.80308 120.784498 
L 832.68904 120.935564 
L 838.46096 120.879607 
L 841.34692 121.016025 
L 843.775 121.013898 
L 843.775 121.013898 
" clip-path="url(#p6390ad786a)" style="fill: none; stroke: #ff7f0e; stroke-width: 2; stroke-linecap: square"/>
   </g>
   <g id="line2d_56">
    <path d="M 477.71596 117.56133 
L 480.60192 111.922482 
L 483.48788 111.430444 
L 486.37384 106.110959 
L 489.2598 104.778719 
L 492.14576 102.368755 
L 495.03172 98.923596 
L 497.91768 94.571316 
L 500.80364 93.612152 
L 503.6896 87.772305 
L 506.57556 90.317286 
L 509.46152 78.16597 
L 512.34748 77.657195 
L 515.23344 76.199616 
L 518.1194 75.936455 
L 521.00536 64.98835 
L 523.89132 62.593765 
L 526.77728 59.242149 
L 529.66324 59.575409 
L 532.5492 54.665282 
L 535.43516 47.732466 
L 538.32112 47.503673 
L 541.20708 47.445706 
L 544.09304 40.541729 
L 546.979 39.23023 
L 549.86496 39.175278 
L 552.75092 39.970541 
L 555.63688 28.255738 
L 558.52284 32.697327 
L 561.4088 34.426374 
L 564.29476 29.097223 
L 570.06668 22.79584 
L 572.95264 19.85619 
L 575.8386 23.650037 
L 578.72456 18.768955 
L 581.61052 16.610958 
L 584.49648 20.494978 
L 587.38244 22.004073 
L 590.2684 9.901422 
L 593.15436 10.677743 
L 596.04032 14.616562 
L 598.92628 15.374739 
L 601.81224 3.017435 
L 604.6982 6.219941 
L 607.58416 4.424521 
L 610.47012 4.969732 
L 616.24204 0.433475 
L 617.590743 -1 
M 621.244909 -1 
L 622.01396 -0.406428 
L 622.22214 -1 
L 622.22214 -1 
" clip-path="url(#p6390ad786a)" style="fill: none; stroke-dasharray: 8,3; stroke-dashoffset: 0; stroke: #ff7f0e; stroke-width: 2"/>
   </g>
   <g id="line2d_57">
    <path d="M 477.71596 118.908349 
L 480.60192 118.812839 
L 483.48788 118.525709 
L 486.37384 117.997715 
L 492.14576 117.511793 
L 495.03172 116.92275 
L 500.80364 116.705487 
L 503.6896 116.270762 
L 506.57556 116.524127 
L 509.46152 115.95124 
L 512.34748 115.723339 
L 518.1194 115.634942 
L 521.00536 115.226916 
L 523.89132 115.121283 
L 526.77728 115.385774 
L 529.66324 115.20469 
L 532.5492 114.77049 
L 535.43516 114.845759 
L 541.20708 114.646293 
L 544.09304 114.192643 
L 546.979 114.060529 
L 552.75092 114.283656 
L 555.63688 113.928708 
L 558.52284 113.721167 
L 561.4088 113.731456 
L 564.29476 113.943645 
L 567.18072 113.38204 
L 570.06668 113.725181 
L 572.95264 113.823704 
L 575.8386 113.667286 
L 578.72456 113.208419 
L 581.61052 113.343284 
L 584.49648 113.86894 
L 587.38244 113.468803 
L 593.15436 113.293007 
L 596.04032 113.604663 
L 598.92628 113.093735 
L 601.81224 112.799534 
L 604.6982 112.70145 
L 607.58416 113.047652 
L 610.47012 113.220221 
L 613.35608 112.822221 
L 616.24204 113.064089 
L 619.128 112.804241 
L 622.01396 112.853553 
L 624.89992 112.617249 
L 627.78588 112.833228 
L 630.67184 112.915309 
L 633.5578 112.647579 
L 636.44376 112.59242 
L 639.32972 112.842088 
L 642.21568 112.955651 
L 645.10164 112.451666 
L 647.9876 112.899805 
L 650.87356 112.951304 
L 653.75952 112.6349 
L 656.64548 112.434237 
L 659.53144 112.509114 
L 662.4174 112.148115 
L 665.30336 112.740525 
L 668.18932 112.64543 
L 671.07528 112.058747 
L 676.8472 112.500611 
L 679.73316 112.150581 
L 682.61912 112.06395 
L 685.50508 112.46237 
L 688.39104 111.847176 
L 691.277 111.914728 
L 694.16296 111.479669 
L 697.04892 112.297894 
L 699.93488 112.209424 
L 702.82084 111.612487 
L 705.7068 112.135667 
L 708.59276 111.99716 
L 711.47872 112.117675 
L 714.36468 112.112434 
L 717.25064 111.790253 
L 723.02256 111.926321 
L 725.90852 111.263137 
L 728.79448 111.963596 
L 731.68044 112.098539 
L 737.45236 111.873961 
L 740.33832 111.674048 
L 743.22428 112.02991 
L 748.9962 111.692665 
L 751.88216 111.782129 
L 754.76812 111.72732 
L 757.65408 112.056609 
L 760.54004 111.36918 
L 763.426 111.746379 
L 769.19792 111.50176 
L 772.08388 111.513707 
L 774.96984 111.372926 
L 777.8558 111.482001 
L 780.74176 111.458237 
L 783.62772 111.637784 
L 789.39964 111.257722 
L 792.2856 111.400181 
L 795.17156 111.329184 
L 798.05752 111.42372 
L 803.82944 111.207079 
L 809.60136 111.185481 
L 812.48732 111.363797 
L 815.37328 111.177818 
L 818.25924 111.34488 
L 821.1452 111.242621 
L 824.03116 111.441967 
L 826.91712 111.040119 
L 829.80308 110.971194 
L 832.68904 111.259239 
L 835.575 110.987045 
L 843.775 111.151637 
L 843.775 111.151637 
" clip-path="url(#p6390ad786a)" style="fill: none; stroke: #2ca02c; stroke-width: 2; stroke-linecap: square"/>
   </g>
   <g id="line2d_58">
    <path d="M 477.71596 110.160048 
L 480.60192 100.25283 
L 483.48788 97.187231 
L 486.37384 88.568107 
L 489.2598 86.103493 
L 492.14576 82.283992 
L 495.03172 77.487159 
L 497.91768 71.19459 
L 500.80364 69.891671 
L 503.6896 62.598232 
L 506.57556 64.629758 
L 509.46152 50.105662 
L 512.34748 48.48187 
L 515.23344 46.639189 
L 518.1194 45.646679 
L 521.00536 32.140856 
L 523.89132 27.737862 
L 526.77728 24.031299 
L 529.66324 24.210274 
L 532.5492 17.787304 
L 535.43516 8.792717 
L 538.32112 8.210242 
L 541.20708 7.952904 
L 544.064661 -1 
L 544.064661 -1 
" clip-path="url(#p6390ad786a)" style="fill: none; stroke-dasharray: 8,3; stroke-dashoffset: 0; stroke: #2ca02c; stroke-width: 2"/>
   </g>
   <g id="line2d_59">
    <path d="M 477.71596 131.192491 
L 483.48788 130.002115 
L 486.37384 129.076167 
L 492.14576 128.213394 
L 495.03172 127.56878 
L 497.91768 127.312678 
L 500.80364 127.398081 
L 503.6896 126.755272 
L 506.57556 126.835093 
L 509.46152 126.31051 
L 518.1194 125.833527 
L 521.00536 125.411644 
L 523.89132 125.161134 
L 526.77728 125.62596 
L 529.66324 125.134333 
L 532.5492 124.863677 
L 535.43516 124.878386 
L 538.32112 124.523203 
L 541.20708 124.582251 
L 546.979 124.023566 
L 549.86496 124.140186 
L 552.75092 124.136199 
L 558.52284 123.553318 
L 561.4088 123.625397 
L 564.29476 123.502134 
L 567.18072 123.036911 
L 570.06668 123.612297 
L 572.95264 123.668152 
L 575.8386 123.392769 
L 578.72456 122.755839 
L 581.61052 123.338816 
L 584.49648 123.20001 
L 587.38244 122.832066 
L 590.2684 122.701473 
L 596.04032 123.230841 
L 598.92628 122.53413 
L 601.81224 122.467836 
L 604.6982 121.935386 
L 607.58416 122.513842 
L 610.47012 122.517044 
L 613.35608 122.347921 
L 616.24204 122.606683 
L 619.128 122.371979 
L 622.01396 122.318685 
L 624.89992 122.061687 
L 627.78588 122.002843 
L 630.67184 122.373614 
L 636.44376 122.00229 
L 639.32972 122.260583 
L 642.21568 122.273504 
L 645.10164 121.781093 
L 647.9876 122.00794 
L 650.87356 122.349145 
L 653.75952 121.864998 
L 656.64548 121.612161 
L 659.53144 121.689569 
L 662.4174 121.262881 
L 665.30336 121.81617 
L 668.18932 121.87882 
L 671.07528 121.330367 
L 673.96124 121.308922 
L 676.8472 121.540953 
L 682.61912 121.200466 
L 685.50508 121.528649 
L 688.39104 120.930177 
L 691.277 120.953988 
L 694.16296 120.681331 
L 697.04892 121.444476 
L 699.93488 121.185175 
L 702.82084 120.665489 
L 705.7068 121.174217 
L 708.59276 121.04422 
L 714.36468 121.086396 
L 717.25064 120.87394 
L 723.02256 121.025891 
L 725.90852 120.206707 
L 728.79448 120.902644 
L 731.68044 121.107969 
L 734.5664 120.704623 
L 737.45236 120.817349 
L 740.33832 120.371753 
L 743.22428 120.779267 
L 746.11024 120.560036 
L 754.76812 120.499733 
L 757.65408 120.629896 
L 760.54004 120.000121 
L 763.426 120.597791 
L 766.31196 120.166144 
L 772.08388 120.215652 
L 780.74176 120.220819 
L 783.62772 120.344595 
L 789.39964 119.963352 
L 792.2856 120.063017 
L 795.17156 119.904705 
L 798.05752 119.996604 
L 800.94348 119.934383 
L 803.82944 120.060385 
L 806.7154 119.530578 
L 809.60136 119.939086 
L 815.37328 119.860238 
L 818.25924 120.149003 
L 821.1452 119.679288 
L 824.03116 119.984312 
L 826.91712 119.630203 
L 829.80308 119.46567 
L 832.68904 119.820418 
L 835.575 119.482365 
L 838.46096 119.47171 
L 841.34692 119.816049 
L 843.775 119.673649 
L 843.775 119.673649 
" clip-path="url(#p6390ad786a)" style="fill: none; stroke: #d62728; stroke-width: 2; stroke-linecap: square"/>
   </g>
   <g id="line2d_60">
    <path d="M 477.71596 122.43479 
L 480.60192 102.888897 
L 483.48788 89.117228 
L 486.37384 73.370926 
L 489.2598 67.667174 
L 495.03172 52.551123 
L 497.91768 43.925021 
L 500.80364 41.089514 
L 503.6896 31.545341 
L 506.57556 32.947806 
L 509.46152 16.933104 
L 512.34748 12.593714 
L 515.23344 10.221943 
L 518.1194 9.9468 
L 519.74284 -1 
L 519.74284 -1 
" clip-path="url(#p6390ad786a)" style="fill: none; stroke-dasharray: 8,3; stroke-dashoffset: 0; stroke: #d62728; stroke-width: 2"/>
   </g>
   <g id="patch_8">
    <path d="M 474.83 216.11875 
L 474.83 13.27875 
" style="fill: none; stroke: #000000; stroke-width: 2; stroke-linejoin: miter; stroke-linecap: square"/>
   </g>
   <g id="patch_9">
    <path d="M 835.575 216.11875 
L 835.575 13.27875 
" style="fill: none; stroke: #000000; stroke-width: 2; stroke-linejoin: miter; stroke-linecap: square"/>
   </g>
   <g id="patch_10">
    <path d="M 474.83 216.11875 
L 835.575 216.11875 
" style="fill: none; stroke: #000000; stroke-width: 2; stroke-linejoin: miter; stroke-linecap: square"/>
   </g>
   <g id="patch_11">
    <path d="M 474.83 13.27875 
L 835.575 13.27875 
" style="fill: none; stroke: #000000; stroke-width: 2; stroke-linejoin: miter; stroke-linecap: square"/>
   </g>
  </g>
 </g>
 <defs>
  <clipPath id="p9c29537a80">
   <rect x="43.865" y="13.27875" width="360.745" height="202.84"/>
  </clipPath>
  <clipPath id="p6390ad786a">
   <rect x="474.83" y="13.27875" width="360.745" height="202.84"/>
  </clipPath>
 </defs>
</svg>
