<?xml version="1.0" encoding="utf-8" standalone="no"?>
<!DOCTYPE svg PUBLIC "-//W3C//DTD SVG 1.1//EN"
  "http://www.w3.org/Graphics/SVG/1.1/DTD/svg11.dtd">
<svg xmlns:xlink="http://www.w3.org/1999/xlink" width="160.705pt" height="251.645pt" viewBox="0 0 160.705 251.645" xmlns="http://www.w3.org/2000/svg" version="1.1">
 <metadata>
  <rdf:RDF xmlns:dc="http://purl.org/dc/elements/1.1/" xmlns:cc="http://creativecommons.org/ns#" xmlns:rdf="http://www.w3.org/1999/02/22-rdf-syntax-ns#">
   <cc:Work>
    <dc:type rdf:resource="http://purl.org/dc/dcmitype/StillImage"/>
    <dc:date>2024-11-18T13:47:09.643299</dc:date>
    <dc:format>image/svg+xml</dc:format>
    <dc:creator>
     <cc:Agent>
      <dc:title>Matplotlib v3.9.2, https://matplotlib.org/</dc:title>
     </cc:Agent>
    </dc:creator>
   </cc:Work>
  </rdf:RDF>
 </metadata>
 <defs>
  <style type="text/css">*{stroke-linejoin: round; stroke-linecap: butt}</style>
 </defs>
 <g id="figure_1">
  <g id="patch_1">
   <path d="M 0 251.645 
L 160.705 251.645 
L 160.705 0 
L 0 0 
z
" style="fill: #ffffff"/>
  </g>
  <g id="axes_1">
   <g id="patch_2">
    <path d="M 64.225 235.03875 
L 153.505 235.03875 
L 153.505 13.27875 
L 64.225 13.27875 
z
" style="fill: #ffffff"/>
   </g>
   <g id="patch_3">
    <path d="M 73.153 235.03875 
L 96.961 235.03875 
L 96.961 56.867846 
L 73.153 56.867846 
z
" clip-path="url(#pe08a92e062)" style="fill: #3274a1"/>
   </g>
   <g id="patch_4">
    <path d="M 96.961 235.03875 
L 120.769 235.03875 
L 120.769 53.912187 
L 96.961 53.912187 
z
" clip-path="url(#pe08a92e062)" style="fill: #e1812c"/>
   </g>
   <g id="patch_5">
    <path d="M 120.769 235.03875 
L 144.577 235.03875 
L 144.577 52.624014 
L 120.769 52.624014 
z
" clip-path="url(#pe08a92e062)" style="fill: #3a923a"/>
   </g>
   <g id="matplotlib.axis_1">
    <g id="xtick_1">
     <g id="line2d_1">
      <defs>
       <path id="mef10677801" d="M 0 0 
L 0 3.5 
" style="stroke: #000000; stroke-width: 2"/>
      </defs>
      <g>
       <use xlink:href="#mef10677801" x="108.865" y="235.03875" style="stroke: #000000; stroke-width: 2"/>
      </g>
     </g>
    </g>
   </g>
   <g id="matplotlib.axis_2">
    <g id="ytick_1">
     <g id="line2d_2">
      <path d="M 64.225 235.03875 
L 153.505 235.03875 
" clip-path="url(#pe08a92e062)" style="fill: none; stroke: #b0b0b0; stroke-width: 0.8; stroke-linecap: square"/>
     </g>
     <g id="line2d_3">
      <defs>
       <path id="m8248ce079f" d="M 0 0 
L -3.5 0 
" style="stroke: #000000; stroke-width: 2"/>
      </defs>
      <g>
       <use xlink:href="#m8248ce079f" x="64.225" y="235.03875" style="stroke: #000000; stroke-width: 2"/>
      </g>
     </g>
     <g id="text_1">
      <!-- 0 -->
      <g transform="translate(47.045 241.1175) scale(0.16 -0.16)">
       <defs>
        <path id="DejaVuSans-30" d="M 2034 4250 
Q 1547 4250 1301 3770 
Q 1056 3291 1056 2328 
Q 1056 1369 1301 889 
Q 1547 409 2034 409 
Q 2525 409 2770 889 
Q 3016 1369 3016 2328 
Q 3016 3291 2770 3770 
Q 2525 4250 2034 4250 
z
M 2034 4750 
Q 2819 4750 3233 4129 
Q 3647 3509 3647 2328 
Q 3647 1150 3233 529 
Q 2819 -91 2034 -91 
Q 1250 -91 836 529 
Q 422 1150 422 2328 
Q 422 3509 836 4129 
Q 1250 4750 2034 4750 
z
" transform="scale(0.015625)"/>
       </defs>
       <use xlink:href="#DejaVuSans-30"/>
      </g>
     </g>
    </g>
    <g id="ytick_2">
     <g id="line2d_4">
      <path d="M 64.225 190.68675 
L 153.505 190.68675 
" clip-path="url(#pe08a92e062)" style="fill: none; stroke: #b0b0b0; stroke-width: 0.8; stroke-linecap: square"/>
     </g>
     <g id="line2d_5">
      <g>
       <use xlink:href="#m8248ce079f" x="64.225" y="190.68675" style="stroke: #000000; stroke-width: 2"/>
      </g>
     </g>
     <g id="text_2">
      <!-- 20 -->
      <g transform="translate(36.865 196.7655) scale(0.16 -0.16)">
       <defs>
        <path id="DejaVuSans-32" d="M 1228 531 
L 3431 531 
L 3431 0 
L 469 0 
L 469 531 
Q 828 903 1448 1529 
Q 2069 2156 2228 2338 
Q 2531 2678 2651 2914 
Q 2772 3150 2772 3378 
Q 2772 3750 2511 3984 
Q 2250 4219 1831 4219 
Q 1534 4219 1204 4116 
Q 875 4013 500 3803 
L 500 4441 
Q 881 4594 1212 4672 
Q 1544 4750 1819 4750 
Q 2544 4750 2975 4387 
Q 3406 4025 3406 3419 
Q 3406 3131 3298 2873 
Q 3191 2616 2906 2266 
Q 2828 2175 2409 1742 
Q 1991 1309 1228 531 
z
" transform="scale(0.015625)"/>
       </defs>
       <use xlink:href="#DejaVuSans-32"/>
       <use xlink:href="#DejaVuSans-30" x="63.623047"/>
      </g>
     </g>
    </g>
    <g id="ytick_3">
     <g id="line2d_6">
      <path d="M 64.225 146.33475 
L 153.505 146.33475 
" clip-path="url(#pe08a92e062)" style="fill: none; stroke: #b0b0b0; stroke-width: 0.8; stroke-linecap: square"/>
     </g>
     <g id="line2d_7">
      <g>
       <use xlink:href="#m8248ce079f" x="64.225" y="146.33475" style="stroke: #000000; stroke-width: 2"/>
      </g>
     </g>
     <g id="text_3">
      <!-- 40 -->
      <g transform="translate(36.865 152.4135) scale(0.16 -0.16)">
       <defs>
        <path id="DejaVuSans-34" d="M 2419 4116 
L 825 1625 
L 2419 1625 
L 2419 4116 
z
M 2253 4666 
L 3047 4666 
L 3047 1625 
L 3713 1625 
L 3713 1100 
L 3047 1100 
L 3047 0 
L 2419 0 
L 2419 1100 
L 313 1100 
L 313 1709 
L 2253 4666 
z
" transform="scale(0.015625)"/>
       </defs>
       <use xlink:href="#DejaVuSans-34"/>
       <use xlink:href="#DejaVuSans-30" x="63.623047"/>
      </g>
     </g>
    </g>
    <g id="ytick_4">
     <g id="line2d_8">
      <path d="M 64.225 101.98275 
L 153.505 101.98275 
" clip-path="url(#pe08a92e062)" style="fill: none; stroke: #b0b0b0; stroke-width: 0.8; stroke-linecap: square"/>
     </g>
     <g id="line2d_9">
      <g>
       <use xlink:href="#m8248ce079f" x="64.225" y="101.98275" style="stroke: #000000; stroke-width: 2"/>
      </g>
     </g>
     <g id="text_4">
      <!-- 60 -->
      <g transform="translate(36.865 108.0615) scale(0.16 -0.16)">
       <defs>
        <path id="DejaVuSans-36" d="M 2113 2584 
Q 1688 2584 1439 2293 
Q 1191 2003 1191 1497 
Q 1191 994 1439 701 
Q 1688 409 2113 409 
Q 2538 409 2786 701 
Q 3034 994 3034 1497 
Q 3034 2003 2786 2293 
Q 2538 2584 2113 2584 
z
M 3366 4563 
L 3366 3988 
Q 3128 4100 2886 4159 
Q 2644 4219 2406 4219 
Q 1781 4219 1451 3797 
Q 1122 3375 1075 2522 
Q 1259 2794 1537 2939 
Q 1816 3084 2150 3084 
Q 2853 3084 3261 2657 
Q 3669 2231 3669 1497 
Q 3669 778 3244 343 
Q 2819 -91 2113 -91 
Q 1303 -91 875 529 
Q 447 1150 447 2328 
Q 447 3434 972 4092 
Q 1497 4750 2381 4750 
Q 2619 4750 2861 4703 
Q 3103 4656 3366 4563 
z
" transform="scale(0.015625)"/>
       </defs>
       <use xlink:href="#DejaVuSans-36"/>
       <use xlink:href="#DejaVuSans-30" x="63.623047"/>
      </g>
     </g>
    </g>
    <g id="ytick_5">
     <g id="line2d_10">
      <path d="M 64.225 57.63075 
L 153.505 57.63075 
" clip-path="url(#pe08a92e062)" style="fill: none; stroke: #b0b0b0; stroke-width: 0.8; stroke-linecap: square"/>
     </g>
     <g id="line2d_11">
      <g>
       <use xlink:href="#m8248ce079f" x="64.225" y="57.63075" style="stroke: #000000; stroke-width: 2"/>
      </g>
     </g>
     <g id="text_5">
      <!-- 80 -->
      <g transform="translate(36.865 63.7095) scale(0.16 -0.16)">
       <defs>
        <path id="DejaVuSans-38" d="M 2034 2216 
Q 1584 2216 1326 1975 
Q 1069 1734 1069 1313 
Q 1069 891 1326 650 
Q 1584 409 2034 409 
Q 2484 409 2743 651 
Q 3003 894 3003 1313 
Q 3003 1734 2745 1975 
Q 2488 2216 2034 2216 
z
M 1403 2484 
Q 997 2584 770 2862 
Q 544 3141 544 3541 
Q 544 4100 942 4425 
Q 1341 4750 2034 4750 
Q 2731 4750 3128 4425 
Q 3525 4100 3525 3541 
Q 3525 3141 3298 2862 
Q 3072 2584 2669 2484 
Q 3125 2378 3379 2068 
Q 3634 1759 3634 1313 
Q 3634 634 3220 271 
Q 2806 -91 2034 -91 
Q 1263 -91 848 271 
Q 434 634 434 1313 
Q 434 1759 690 2068 
Q 947 2378 1403 2484 
z
M 1172 3481 
Q 1172 3119 1398 2916 
Q 1625 2713 2034 2713 
Q 2441 2713 2670 2916 
Q 2900 3119 2900 3481 
Q 2900 3844 2670 4047 
Q 2441 4250 2034 4250 
Q 1625 4250 1398 4047 
Q 1172 3844 1172 3481 
z
" transform="scale(0.015625)"/>
       </defs>
       <use xlink:href="#DejaVuSans-38"/>
       <use xlink:href="#DejaVuSans-30" x="63.623047"/>
      </g>
     </g>
    </g>
    <g id="ytick_6">
     <g id="line2d_12">
      <path d="M 64.225 13.27875 
L 153.505 13.27875 
" clip-path="url(#pe08a92e062)" style="fill: none; stroke: #b0b0b0; stroke-width: 0.8; stroke-linecap: square"/>
     </g>
     <g id="line2d_13">
      <g>
       <use xlink:href="#m8248ce079f" x="64.225" y="13.27875" style="stroke: #000000; stroke-width: 2"/>
      </g>
     </g>
     <g id="text_6">
      <!-- 100 -->
      <g transform="translate(26.685 19.3575) scale(0.16 -0.16)">
       <defs>
        <path id="DejaVuSans-31" d="M 794 531 
L 1825 531 
L 1825 4091 
L 703 3866 
L 703 4441 
L 1819 4666 
L 2450 4666 
L 2450 531 
L 3481 531 
L 3481 0 
L 794 0 
L 794 531 
z
" transform="scale(0.015625)"/>
       </defs>
       <use xlink:href="#DejaVuSans-31"/>
       <use xlink:href="#DejaVuSans-30" x="63.623047"/>
       <use xlink:href="#DejaVuSans-30" x="127.246094"/>
      </g>
     </g>
    </g>
    <g id="text_7">
     <!-- pLDDT of Correct Enzymes -->
     <g transform="translate(19.3575 231.3775) rotate(-90) scale(0.16 -0.16)">
      <defs>
       <path id="DejaVuSans-70" d="M 1159 525 
L 1159 -1331 
L 581 -1331 
L 581 3500 
L 1159 3500 
L 1159 2969 
Q 1341 3281 1617 3432 
Q 1894 3584 2278 3584 
Q 2916 3584 3314 3078 
Q 3713 2572 3713 1747 
Q 3713 922 3314 415 
Q 2916 -91 2278 -91 
Q 1894 -91 1617 61 
Q 1341 213 1159 525 
z
M 3116 1747 
Q 3116 2381 2855 2742 
Q 2594 3103 2138 3103 
Q 1681 3103 1420 2742 
Q 1159 2381 1159 1747 
Q 1159 1113 1420 752 
Q 1681 391 2138 391 
Q 2594 391 2855 752 
Q 3116 1113 3116 1747 
z
" transform="scale(0.015625)"/>
       <path id="DejaVuSans-4c" d="M 628 4666 
L 1259 4666 
L 1259 531 
L 3531 531 
L 3531 0 
L 628 0 
L 628 4666 
z
" transform="scale(0.015625)"/>
       <path id="DejaVuSans-44" d="M 1259 4147 
L 1259 519 
L 2022 519 
Q 2988 519 3436 956 
Q 3884 1394 3884 2338 
Q 3884 3275 3436 3711 
Q 2988 4147 2022 4147 
L 1259 4147 
z
M 628 4666 
L 1925 4666 
Q 3281 4666 3915 4102 
Q 4550 3538 4550 2338 
Q 4550 1131 3912 565 
Q 3275 0 1925 0 
L 628 0 
L 628 4666 
z
" transform="scale(0.015625)"/>
       <path id="DejaVuSans-54" d="M -19 4666 
L 3928 4666 
L 3928 4134 
L 2272 4134 
L 2272 0 
L 1638 0 
L 1638 4134 
L -19 4134 
L -19 4666 
z
" transform="scale(0.015625)"/>
       <path id="DejaVuSans-20" transform="scale(0.015625)"/>
       <path id="DejaVuSans-6f" d="M 1959 3097 
Q 1497 3097 1228 2736 
Q 959 2375 959 1747 
Q 959 1119 1226 758 
Q 1494 397 1959 397 
Q 2419 397 2687 759 
Q 2956 1122 2956 1747 
Q 2956 2369 2687 2733 
Q 2419 3097 1959 3097 
z
M 1959 3584 
Q 2709 3584 3137 3096 
Q 3566 2609 3566 1747 
Q 3566 888 3137 398 
Q 2709 -91 1959 -91 
Q 1206 -91 779 398 
Q 353 888 353 1747 
Q 353 2609 779 3096 
Q 1206 3584 1959 3584 
z
" transform="scale(0.015625)"/>
       <path id="DejaVuSans-66" d="M 2375 4863 
L 2375 4384 
L 1825 4384 
Q 1516 4384 1395 4259 
Q 1275 4134 1275 3809 
L 1275 3500 
L 2222 3500 
L 2222 3053 
L 1275 3053 
L 1275 0 
L 697 0 
L 697 3053 
L 147 3053 
L 147 3500 
L 697 3500 
L 697 3744 
Q 697 4328 969 4595 
Q 1241 4863 1831 4863 
L 2375 4863 
z
" transform="scale(0.015625)"/>
       <path id="DejaVuSans-43" d="M 4122 4306 
L 4122 3641 
Q 3803 3938 3442 4084 
Q 3081 4231 2675 4231 
Q 1875 4231 1450 3742 
Q 1025 3253 1025 2328 
Q 1025 1406 1450 917 
Q 1875 428 2675 428 
Q 3081 428 3442 575 
Q 3803 722 4122 1019 
L 4122 359 
Q 3791 134 3420 21 
Q 3050 -91 2638 -91 
Q 1578 -91 968 557 
Q 359 1206 359 2328 
Q 359 3453 968 4101 
Q 1578 4750 2638 4750 
Q 3056 4750 3426 4639 
Q 3797 4528 4122 4306 
z
" transform="scale(0.015625)"/>
       <path id="DejaVuSans-72" d="M 2631 2963 
Q 2534 3019 2420 3045 
Q 2306 3072 2169 3072 
Q 1681 3072 1420 2755 
Q 1159 2438 1159 1844 
L 1159 0 
L 581 0 
L 581 3500 
L 1159 3500 
L 1159 2956 
Q 1341 3275 1631 3429 
Q 1922 3584 2338 3584 
Q 2397 3584 2469 3576 
Q 2541 3569 2628 3553 
L 2631 2963 
z
" transform="scale(0.015625)"/>
       <path id="DejaVuSans-65" d="M 3597 1894 
L 3597 1613 
L 953 1613 
Q 991 1019 1311 708 
Q 1631 397 2203 397 
Q 2534 397 2845 478 
Q 3156 559 3463 722 
L 3463 178 
Q 3153 47 2828 -22 
Q 2503 -91 2169 -91 
Q 1331 -91 842 396 
Q 353 884 353 1716 
Q 353 2575 817 3079 
Q 1281 3584 2069 3584 
Q 2775 3584 3186 3129 
Q 3597 2675 3597 1894 
z
M 3022 2063 
Q 3016 2534 2758 2815 
Q 2500 3097 2075 3097 
Q 1594 3097 1305 2825 
Q 1016 2553 972 2059 
L 3022 2063 
z
" transform="scale(0.015625)"/>
       <path id="DejaVuSans-63" d="M 3122 3366 
L 3122 2828 
Q 2878 2963 2633 3030 
Q 2388 3097 2138 3097 
Q 1578 3097 1268 2742 
Q 959 2388 959 1747 
Q 959 1106 1268 751 
Q 1578 397 2138 397 
Q 2388 397 2633 464 
Q 2878 531 3122 666 
L 3122 134 
Q 2881 22 2623 -34 
Q 2366 -91 2075 -91 
Q 1284 -91 818 406 
Q 353 903 353 1747 
Q 353 2603 823 3093 
Q 1294 3584 2113 3584 
Q 2378 3584 2631 3529 
Q 2884 3475 3122 3366 
z
" transform="scale(0.015625)"/>
       <path id="DejaVuSans-74" d="M 1172 4494 
L 1172 3500 
L 2356 3500 
L 2356 3053 
L 1172 3053 
L 1172 1153 
Q 1172 725 1289 603 
Q 1406 481 1766 481 
L 2356 481 
L 2356 0 
L 1766 0 
Q 1100 0 847 248 
Q 594 497 594 1153 
L 594 3053 
L 172 3053 
L 172 3500 
L 594 3500 
L 594 4494 
L 1172 4494 
z
" transform="scale(0.015625)"/>
       <path id="DejaVuSans-45" d="M 628 4666 
L 3578 4666 
L 3578 4134 
L 1259 4134 
L 1259 2753 
L 3481 2753 
L 3481 2222 
L 1259 2222 
L 1259 531 
L 3634 531 
L 3634 0 
L 628 0 
L 628 4666 
z
" transform="scale(0.015625)"/>
       <path id="DejaVuSans-6e" d="M 3513 2113 
L 3513 0 
L 2938 0 
L 2938 2094 
Q 2938 2591 2744 2837 
Q 2550 3084 2163 3084 
Q 1697 3084 1428 2787 
Q 1159 2491 1159 1978 
L 1159 0 
L 581 0 
L 581 3500 
L 1159 3500 
L 1159 2956 
Q 1366 3272 1645 3428 
Q 1925 3584 2291 3584 
Q 2894 3584 3203 3211 
Q 3513 2838 3513 2113 
z
" transform="scale(0.015625)"/>
       <path id="DejaVuSans-7a" d="M 353 3500 
L 3084 3500 
L 3084 2975 
L 922 459 
L 3084 459 
L 3084 0 
L 275 0 
L 275 525 
L 2438 3041 
L 353 3041 
L 353 3500 
z
" transform="scale(0.015625)"/>
       <path id="DejaVuSans-79" d="M 2059 -325 
Q 1816 -950 1584 -1140 
Q 1353 -1331 966 -1331 
L 506 -1331 
L 506 -850 
L 844 -850 
Q 1081 -850 1212 -737 
Q 1344 -625 1503 -206 
L 1606 56 
L 191 3500 
L 800 3500 
L 1894 763 
L 2988 3500 
L 3597 3500 
L 2059 -325 
z
" transform="scale(0.015625)"/>
       <path id="DejaVuSans-6d" d="M 3328 2828 
Q 3544 3216 3844 3400 
Q 4144 3584 4550 3584 
Q 5097 3584 5394 3201 
Q 5691 2819 5691 2113 
L 5691 0 
L 5113 0 
L 5113 2094 
Q 5113 2597 4934 2840 
Q 4756 3084 4391 3084 
Q 3944 3084 3684 2787 
Q 3425 2491 3425 1978 
L 3425 0 
L 2847 0 
L 2847 2094 
Q 2847 2600 2669 2842 
Q 2491 3084 2119 3084 
Q 1678 3084 1418 2786 
Q 1159 2488 1159 1978 
L 1159 0 
L 581 0 
L 581 3500 
L 1159 3500 
L 1159 2956 
Q 1356 3278 1631 3431 
Q 1906 3584 2284 3584 
Q 2666 3584 2933 3390 
Q 3200 3197 3328 2828 
z
" transform="scale(0.015625)"/>
       <path id="DejaVuSans-73" d="M 2834 3397 
L 2834 2853 
Q 2591 2978 2328 3040 
Q 2066 3103 1784 3103 
Q 1356 3103 1142 2972 
Q 928 2841 928 2578 
Q 928 2378 1081 2264 
Q 1234 2150 1697 2047 
L 1894 2003 
Q 2506 1872 2764 1633 
Q 3022 1394 3022 966 
Q 3022 478 2636 193 
Q 2250 -91 1575 -91 
Q 1294 -91 989 -36 
Q 684 19 347 128 
L 347 722 
Q 666 556 975 473 
Q 1284 391 1588 391 
Q 1994 391 2212 530 
Q 2431 669 2431 922 
Q 2431 1156 2273 1281 
Q 2116 1406 1581 1522 
L 1381 1569 
Q 847 1681 609 1914 
Q 372 2147 372 2553 
Q 372 3047 722 3315 
Q 1072 3584 1716 3584 
Q 2034 3584 2315 3537 
Q 2597 3491 2834 3397 
z
" transform="scale(0.015625)"/>
      </defs>
      <use xlink:href="#DejaVuSans-70"/>
      <use xlink:href="#DejaVuSans-4c" x="63.476562"/>
      <use xlink:href="#DejaVuSans-44" x="119.189453"/>
      <use xlink:href="#DejaVuSans-44" x="196.191406"/>
      <use xlink:href="#DejaVuSans-54" x="273.193359"/>
      <use xlink:href="#DejaVuSans-20" x="334.277344"/>
      <use xlink:href="#DejaVuSans-6f" x="366.064453"/>
      <use xlink:href="#DejaVuSans-66" x="427.246094"/>
      <use xlink:href="#DejaVuSans-20" x="462.451172"/>
      <use xlink:href="#DejaVuSans-43" x="494.238281"/>
      <use xlink:href="#DejaVuSans-6f" x="564.0625"/>
      <use xlink:href="#DejaVuSans-72" x="625.244141"/>
      <use xlink:href="#DejaVuSans-72" x="664.607422"/>
      <use xlink:href="#DejaVuSans-65" x="703.470703"/>
      <use xlink:href="#DejaVuSans-63" x="764.994141"/>
      <use xlink:href="#DejaVuSans-74" x="819.974609"/>
      <use xlink:href="#DejaVuSans-20" x="859.183594"/>
      <use xlink:href="#DejaVuSans-45" x="890.970703"/>
      <use xlink:href="#DejaVuSans-6e" x="954.154297"/>
      <use xlink:href="#DejaVuSans-7a" x="1017.533203"/>
      <use xlink:href="#DejaVuSans-79" x="1070.023438"/>
      <use xlink:href="#DejaVuSans-6d" x="1129.203125"/>
      <use xlink:href="#DejaVuSans-65" x="1226.615234"/>
      <use xlink:href="#DejaVuSans-73" x="1288.138672"/>
     </g>
    </g>
   </g>
   <g id="line2d_14">
    <path d="M 85.057 61.035204 
L 85.057 53.17788 
" clip-path="url(#pe08a92e062)" style="fill: none; stroke: #424242; stroke-width: 3; stroke-linecap: square"/>
   </g>
   <g id="line2d_15">
    <path d="M 108.865 58.723103 
L 108.865 50.122065 
" clip-path="url(#pe08a92e062)" style="fill: none; stroke: #424242; stroke-width: 3; stroke-linecap: square"/>
   </g>
   <g id="line2d_16">
    <path d="M 132.673 55.741274 
L 132.673 49.31231 
" clip-path="url(#pe08a92e062)" style="fill: none; stroke: #424242; stroke-width: 3; stroke-linecap: square"/>
   </g>
   <g id="patch_6">
    <path d="M 64.225 235.03875 
L 64.225 13.27875 
" style="fill: none; stroke: #000000; stroke-width: 2; stroke-linejoin: miter; stroke-linecap: square"/>
   </g>
   <g id="patch_7">
    <path d="M 153.505 235.03875 
L 153.505 13.27875 
" style="fill: none; stroke: #000000; stroke-width: 2; stroke-linejoin: miter; stroke-linecap: square"/>
   </g>
   <g id="patch_8">
    <path d="M 64.225 235.03875 
L 153.505 235.03875 
" style="fill: none; stroke: #000000; stroke-width: 2; stroke-linejoin: miter; stroke-linecap: square"/>
   </g>
   <g id="patch_9">
    <path d="M 64.225 13.27875 
L 153.505 13.27875 
" style="fill: none; stroke: #000000; stroke-width: 2; stroke-linejoin: miter; stroke-linecap: square"/>
   </g>
   <g id="PathCollection_1">
    <defs>
     <path id="C0_0_0eef15fa1f" d="M 0 3 
C 0.795609 3 1.55874 2.683901 2.12132 2.12132 
C 2.683901 1.55874 3 0.795609 3 -0 
C 3 -0.795609 2.683901 -1.55874 2.12132 -2.12132 
C 1.55874 -2.683901 0.795609 -3 0 -3 
C -0.795609 -3 -1.55874 -2.683901 -2.12132 -2.12132 
C -2.683901 -1.55874 -3 -0.795609 -3 0 
C -3 0.795609 -2.683901 1.55874 -2.12132 2.12132 
C -1.55874 2.683901 -0.795609 3 0 3 
z
"/>
    </defs>
    <g clip-path="url(#pe08a92e062)">
     <use xlink:href="#C0_0_0eef15fa1f" x="85.572465" y="48.820381" style="fill: #1f77b4; stroke: #3d3d3d; stroke-width: 1.5"/>
    </g>
    <g clip-path="url(#pe08a92e062)">
     <use xlink:href="#C0_0_0eef15fa1f" x="88.82573" y="62.557928" style="fill: #1f77b4; stroke: #3d3d3d; stroke-width: 1.5"/>
    </g>
    <g clip-path="url(#pe08a92e062)">
     <use xlink:href="#C0_0_0eef15fa1f" x="83.254071" y="54.32748" style="fill: #1f77b4; stroke: #3d3d3d; stroke-width: 1.5"/>
    </g>
    <g clip-path="url(#pe08a92e062)">
     <use xlink:href="#C0_0_0eef15fa1f" x="89.013568" y="51.365631" style="fill: #1f77b4; stroke: #3d3d3d; stroke-width: 1.5"/>
    </g>
    <g clip-path="url(#pe08a92e062)">
     <use xlink:href="#C0_0_0eef15fa1f" x="88.302" y="47.638989" style="fill: #1f77b4; stroke: #3d3d3d; stroke-width: 1.5"/>
    </g>
    <g clip-path="url(#pe08a92e062)">
     <use xlink:href="#C0_0_0eef15fa1f" x="82.726784" y="57.674189" style="fill: #1f77b4; stroke: #3d3d3d; stroke-width: 1.5"/>
    </g>
    <g clip-path="url(#pe08a92e062)">
     <use xlink:href="#C0_0_0eef15fa1f" x="89.245996" y="44.152213" style="fill: #1f77b4; stroke: #3d3d3d; stroke-width: 1.5"/>
    </g>
    <g clip-path="url(#pe08a92e062)">
     <use xlink:href="#C0_0_0eef15fa1f" x="89.704182" y="56.432464" style="fill: #1f77b4; stroke: #3d3d3d; stroke-width: 1.5"/>
    </g>
    <g clip-path="url(#pe08a92e062)">
     <use xlink:href="#C0_0_0eef15fa1f" x="82.796482" y="48.861604" style="fill: #1f77b4; stroke: #3d3d3d; stroke-width: 1.5"/>
    </g>
    <g clip-path="url(#pe08a92e062)">
     <use xlink:href="#C0_0_0eef15fa1f" x="85.423349" y="77.681688" style="fill: #1f77b4; stroke: #3d3d3d; stroke-width: 1.5"/>
    </g>
    <g clip-path="url(#pe08a92e062)">
     <use xlink:href="#C0_0_0eef15fa1f" x="90.311432" y="57.44296" style="fill: #1f77b4; stroke: #3d3d3d; stroke-width: 1.5"/>
    </g>
    <g clip-path="url(#pe08a92e062)">
     <use xlink:href="#C0_0_0eef15fa1f" x="80.031796" y="53.028404" style="fill: #1f77b4; stroke: #3d3d3d; stroke-width: 1.5"/>
    </g>
    <g clip-path="url(#pe08a92e062)">
     <use xlink:href="#C0_0_0eef15fa1f" x="82.170099" y="58.889099" style="fill: #1f77b4; stroke: #3d3d3d; stroke-width: 1.5"/>
    </g>
    <g clip-path="url(#pe08a92e062)">
     <use xlink:href="#C0_0_0eef15fa1f" x="89.675754" y="49.866413" style="fill: #1f77b4; stroke: #3d3d3d; stroke-width: 1.5"/>
    </g>
    <g clip-path="url(#pe08a92e062)">
     <use xlink:href="#C0_0_0eef15fa1f" x="80.927587" y="56.690665" style="fill: #1f77b4; stroke: #3d3d3d; stroke-width: 1.5"/>
    </g>
    <g clip-path="url(#pe08a92e062)">
     <use xlink:href="#C0_0_0eef15fa1f" x="86.99435" y="46.222513" style="fill: #1f77b4; stroke: #3d3d3d; stroke-width: 1.5"/>
    </g>
    <g clip-path="url(#pe08a92e062)">
     <use xlink:href="#C0_0_0eef15fa1f" x="81.871662" y="57.865273" style="fill: #1f77b4; stroke: #3d3d3d; stroke-width: 1.5"/>
    </g>
    <g clip-path="url(#pe08a92e062)">
     <use xlink:href="#C0_0_0eef15fa1f" x="81.230638" y="70.374067" style="fill: #1f77b4; stroke: #3d3d3d; stroke-width: 1.5"/>
    </g>
    <g clip-path="url(#pe08a92e062)">
     <use xlink:href="#C0_0_0eef15fa1f" x="82.84986" y="62.48594" style="fill: #1f77b4; stroke: #3d3d3d; stroke-width: 1.5"/>
    </g>
    <g clip-path="url(#pe08a92e062)">
     <use xlink:href="#C0_0_0eef15fa1f" x="83.412859" y="85.59807" style="fill: #1f77b4; stroke: #3d3d3d; stroke-width: 1.5"/>
    </g>
    <g clip-path="url(#pe08a92e062)">
     <use xlink:href="#C0_0_0eef15fa1f" x="81.269213" y="62.094599" style="fill: #1f77b4; stroke: #3d3d3d; stroke-width: 1.5"/>
    </g>
    <g clip-path="url(#pe08a92e062)">
     <use xlink:href="#C0_0_0eef15fa1f" x="84.714644" y="52.178934" style="fill: #1f77b4; stroke: #3d3d3d; stroke-width: 1.5"/>
    </g>
    <g clip-path="url(#pe08a92e062)">
     <use xlink:href="#C0_0_0eef15fa1f" x="80.745371" y="51.480559" style="fill: #1f77b4; stroke: #3d3d3d; stroke-width: 1.5"/>
    </g>
    <g clip-path="url(#pe08a92e062)">
     <use xlink:href="#C0_0_0eef15fa1f" x="83.537075" y="51.098232" style="fill: #1f77b4; stroke: #3d3d3d; stroke-width: 1.5"/>
    </g>
   </g>
   <g id="PathCollection_2">
    <defs>
     <path id="C1_0_4a951d40a0" d="M 0 3 
C 0.795609 3 1.55874 2.683901 2.12132 2.12132 
C 2.683901 1.55874 3 0.795609 3 -0 
C 3 -0.795609 2.683901 -1.55874 2.12132 -2.12132 
C 1.55874 -2.683901 0.795609 -3 0 -3 
C -0.795609 -3 -1.55874 -2.683901 -2.12132 -2.12132 
C -2.683901 -1.55874 -3 -0.795609 -3 0 
C -3 0.795609 -2.683901 1.55874 -2.12132 2.12132 
C -1.55874 2.683901 -0.795609 3 0 3 
z
"/>
    </defs>
    <g clip-path="url(#pe08a92e062)">
     <use xlink:href="#C1_0_4a951d40a0" x="103.788981" y="47.825386" style="fill: #ff7f0e; stroke: #3d3d3d; stroke-width: 1.5"/>
    </g>
    <g clip-path="url(#pe08a92e062)">
     <use xlink:href="#C1_0_4a951d40a0" x="108.190221" y="55.994433" style="fill: #ff7f0e; stroke: #3d3d3d; stroke-width: 1.5"/>
    </g>
    <g clip-path="url(#pe08a92e062)">
     <use xlink:href="#C1_0_4a951d40a0" x="112.941635" y="59.125168" style="fill: #ff7f0e; stroke: #3d3d3d; stroke-width: 1.5"/>
    </g>
    <g clip-path="url(#pe08a92e062)">
     <use xlink:href="#C1_0_4a951d40a0" x="108.698747" y="51.781515" style="fill: #ff7f0e; stroke: #3d3d3d; stroke-width: 1.5"/>
    </g>
    <g clip-path="url(#pe08a92e062)">
     <use xlink:href="#C1_0_4a951d40a0" x="105.679993" y="52.401602" style="fill: #ff7f0e; stroke: #3d3d3d; stroke-width: 1.5"/>
    </g>
    <g clip-path="url(#pe08a92e062)">
     <use xlink:href="#C1_0_4a951d40a0" x="113.125625" y="61.049454" style="fill: #ff7f0e; stroke: #3d3d3d; stroke-width: 1.5"/>
    </g>
    <g clip-path="url(#pe08a92e062)">
     <use xlink:href="#C1_0_4a951d40a0" x="110.818493" y="52.396103" style="fill: #ff7f0e; stroke: #3d3d3d; stroke-width: 1.5"/>
    </g>
    <g clip-path="url(#pe08a92e062)">
     <use xlink:href="#C1_0_4a951d40a0" x="113.147736" y="54.317753" style="fill: #ff7f0e; stroke: #3d3d3d; stroke-width: 1.5"/>
    </g>
    <g clip-path="url(#pe08a92e062)">
     <use xlink:href="#C1_0_4a951d40a0" x="113.088211" y="39.626357" style="fill: #ff7f0e; stroke: #3d3d3d; stroke-width: 1.5"/>
    </g>
    <g clip-path="url(#pe08a92e062)">
     <use xlink:href="#C1_0_4a951d40a0" x="110.29263" y="56.653313" style="fill: #ff7f0e; stroke: #3d3d3d; stroke-width: 1.5"/>
    </g>
    <g clip-path="url(#pe08a92e062)">
     <use xlink:href="#C1_0_4a951d40a0" x="110.652204" y="51.465604" style="fill: #ff7f0e; stroke: #3d3d3d; stroke-width: 1.5"/>
    </g>
    <g clip-path="url(#pe08a92e062)">
     <use xlink:href="#C1_0_4a951d40a0" x="105.66704" y="54.781327" style="fill: #ff7f0e; stroke: #3d3d3d; stroke-width: 1.5"/>
    </g>
    <g clip-path="url(#pe08a92e062)">
     <use xlink:href="#C1_0_4a951d40a0" x="113.939832" y="44.056749" style="fill: #ff7f0e; stroke: #3d3d3d; stroke-width: 1.5"/>
    </g>
    <g clip-path="url(#pe08a92e062)">
     <use xlink:href="#C1_0_4a951d40a0" x="113.474327" y="43.520057" style="fill: #ff7f0e; stroke: #3d3d3d; stroke-width: 1.5"/>
    </g>
    <g clip-path="url(#pe08a92e062)">
     <use xlink:href="#C1_0_4a951d40a0" x="103.395482" y="50.468803" style="fill: #ff7f0e; stroke: #3d3d3d; stroke-width: 1.5"/>
    </g>
    <g clip-path="url(#pe08a92e062)">
     <use xlink:href="#C1_0_4a951d40a0" x="104.111637" y="38.067331" style="fill: #ff7f0e; stroke: #3d3d3d; stroke-width: 1.5"/>
    </g>
    <g clip-path="url(#pe08a92e062)">
     <use xlink:href="#C1_0_4a951d40a0" x="103.156152" y="51.127184" style="fill: #ff7f0e; stroke: #3d3d3d; stroke-width: 1.5"/>
    </g>
    <g clip-path="url(#pe08a92e062)">
     <use xlink:href="#C1_0_4a951d40a0" x="114.383435" y="55.538115" style="fill: #ff7f0e; stroke: #3d3d3d; stroke-width: 1.5"/>
    </g>
    <g clip-path="url(#pe08a92e062)">
     <use xlink:href="#C1_0_4a951d40a0" x="104.577716" y="67.538277" style="fill: #ff7f0e; stroke: #3d3d3d; stroke-width: 1.5"/>
    </g>
    <g clip-path="url(#pe08a92e062)">
     <use xlink:href="#C1_0_4a951d40a0" x="108.011795" y="97.182328" style="fill: #ff7f0e; stroke: #3d3d3d; stroke-width: 1.5"/>
    </g>
    <g clip-path="url(#pe08a92e062)">
     <use xlink:href="#C1_0_4a951d40a0" x="108.957073" y="53.416339" style="fill: #ff7f0e; stroke: #3d3d3d; stroke-width: 1.5"/>
    </g>
    <g clip-path="url(#pe08a92e062)">
     <use xlink:href="#C1_0_4a951d40a0" x="106.691748" y="53.006467" style="fill: #ff7f0e; stroke: #3d3d3d; stroke-width: 1.5"/>
    </g>
    <g clip-path="url(#pe08a92e062)">
     <use xlink:href="#C1_0_4a951d40a0" x="108.41292" y="53.24859" style="fill: #ff7f0e; stroke: #3d3d3d; stroke-width: 1.5"/>
    </g>
    <g clip-path="url(#pe08a92e062)">
     <use xlink:href="#C1_0_4a951d40a0" x="105.395796" y="49.304243" style="fill: #ff7f0e; stroke: #3d3d3d; stroke-width: 1.5"/>
    </g>
   </g>
   <g id="PathCollection_3">
    <defs>
     <path id="C2_0_ddcf1a5558" d="M 0 3 
C 0.795609 3 1.55874 2.683901 2.12132 2.12132 
C 2.683901 1.55874 3 0.795609 3 -0 
C 3 -0.795609 2.683901 -1.55874 2.12132 -2.12132 
C 1.55874 -2.683901 0.795609 -3 0 -3 
C -0.795609 -3 -1.55874 -2.683901 -2.12132 -2.12132 
C -2.683901 -1.55874 -3 -0.795609 -3 0 
C -3 0.795609 -2.683901 1.55874 -2.12132 2.12132 
C -1.55874 2.683901 -0.795609 3 0 3 
z
"/>
    </defs>
    <g clip-path="url(#pe08a92e062)">
     <use xlink:href="#C2_0_ddcf1a5558" x="127.5316" y="46.539187" style="fill: #2ca02c; stroke: #3d3d3d; stroke-width: 1.5"/>
    </g>
    <g clip-path="url(#pe08a92e062)">
     <use xlink:href="#C2_0_ddcf1a5558" x="134.264553" y="53.262187" style="fill: #2ca02c; stroke: #3d3d3d; stroke-width: 1.5"/>
    </g>
    <g clip-path="url(#pe08a92e062)">
     <use xlink:href="#C2_0_ddcf1a5558" x="133.803606" y="61.372568" style="fill: #2ca02c; stroke: #3d3d3d; stroke-width: 1.5"/>
    </g>
    <g clip-path="url(#pe08a92e062)">
     <use xlink:href="#C2_0_ddcf1a5558" x="137.548431" y="55.360237" style="fill: #2ca02c; stroke: #3d3d3d; stroke-width: 1.5"/>
    </g>
    <g clip-path="url(#pe08a92e062)">
     <use xlink:href="#C2_0_ddcf1a5558" x="133.85759" y="55.269559" style="fill: #2ca02c; stroke: #3d3d3d; stroke-width: 1.5"/>
    </g>
    <g clip-path="url(#pe08a92e062)">
     <use xlink:href="#C2_0_ddcf1a5558" x="133.953453" y="60.33835" style="fill: #2ca02c; stroke: #3d3d3d; stroke-width: 1.5"/>
    </g>
    <g clip-path="url(#pe08a92e062)">
     <use xlink:href="#C2_0_ddcf1a5558" x="131.803788" y="57.142355" style="fill: #2ca02c; stroke: #3d3d3d; stroke-width: 1.5"/>
    </g>
    <g clip-path="url(#pe08a92e062)">
     <use xlink:href="#C2_0_ddcf1a5558" x="131.154674" y="37.370382" style="fill: #2ca02c; stroke: #3d3d3d; stroke-width: 1.5"/>
    </g>
    <g clip-path="url(#pe08a92e062)">
     <use xlink:href="#C2_0_ddcf1a5558" x="134.46757" y="57.300775" style="fill: #2ca02c; stroke: #3d3d3d; stroke-width: 1.5"/>
    </g>
    <g clip-path="url(#pe08a92e062)">
     <use xlink:href="#C2_0_ddcf1a5558" x="135.188327" y="58.133957" style="fill: #2ca02c; stroke: #3d3d3d; stroke-width: 1.5"/>
    </g>
    <g clip-path="url(#pe08a92e062)">
     <use xlink:href="#C2_0_ddcf1a5558" x="136.417699" y="52.586072" style="fill: #2ca02c; stroke: #3d3d3d; stroke-width: 1.5"/>
    </g>
    <g clip-path="url(#pe08a92e062)">
     <use xlink:href="#C2_0_ddcf1a5558" x="137.375549" y="65.019601" style="fill: #2ca02c; stroke: #3d3d3d; stroke-width: 1.5"/>
    </g>
    <g clip-path="url(#pe08a92e062)">
     <use xlink:href="#C2_0_ddcf1a5558" x="138.560204" y="43.290353" style="fill: #2ca02c; stroke: #3d3d3d; stroke-width: 1.5"/>
    </g>
    <g clip-path="url(#pe08a92e062)">
     <use xlink:href="#C2_0_ddcf1a5558" x="137.140087" y="40.343933" style="fill: #2ca02c; stroke: #3d3d3d; stroke-width: 1.5"/>
    </g>
    <g clip-path="url(#pe08a92e062)">
     <use xlink:href="#C2_0_ddcf1a5558" x="132.994656" y="38.222819" style="fill: #2ca02c; stroke: #3d3d3d; stroke-width: 1.5"/>
    </g>
    <g clip-path="url(#pe08a92e062)">
     <use xlink:href="#C2_0_ddcf1a5558" x="133.29162" y="64.729412" style="fill: #2ca02c; stroke: #3d3d3d; stroke-width: 1.5"/>
    </g>
    <g clip-path="url(#pe08a92e062)">
     <use xlink:href="#C2_0_ddcf1a5558" x="138.274776" y="49.426478" style="fill: #2ca02c; stroke: #3d3d3d; stroke-width: 1.5"/>
    </g>
    <g clip-path="url(#pe08a92e062)">
     <use xlink:href="#C2_0_ddcf1a5558" x="133.284237" y="55.755216" style="fill: #2ca02c; stroke: #3d3d3d; stroke-width: 1.5"/>
    </g>
    <g clip-path="url(#pe08a92e062)">
     <use xlink:href="#C2_0_ddcf1a5558" x="137.653071" y="54.000233" style="fill: #2ca02c; stroke: #3d3d3d; stroke-width: 1.5"/>
    </g>
    <g clip-path="url(#pe08a92e062)">
     <use xlink:href="#C2_0_ddcf1a5558" x="135.652827" y="51.789145" style="fill: #2ca02c; stroke: #3d3d3d; stroke-width: 1.5"/>
    </g>
    <g clip-path="url(#pe08a92e062)">
     <use xlink:href="#C2_0_ddcf1a5558" x="127.281183" y="51.097369" style="fill: #2ca02c; stroke: #3d3d3d; stroke-width: 1.5"/>
    </g>
    <g clip-path="url(#pe08a92e062)">
     <use xlink:href="#C2_0_ddcf1a5558" x="137.664441" y="49.378111" style="fill: #2ca02c; stroke: #3d3d3d; stroke-width: 1.5"/>
    </g>
   </g>
  </g>
 </g>
 <defs>
  <clipPath id="pe08a92e062">
   <rect x="64.225" y="13.27875" width="89.28" height="221.76"/>
  </clipPath>
 </defs>
</svg>
